<svg width="125" height="102" xmlns="http://www.w3.org/2000/svg"><g fill="none" fill-rule="evenodd"><path fill="#FFF" d="M0 0h124.438v102H0z"/><path d="M37.331 88.27c.237 0 .44.183.334.602l-1.086.29c.172-.515.495-.891.752-.891m.602 1.761h-.215c-.268.323-.57.58-.86.58-.3 0-.45-.182-.45-.58 0-.16.021-.333.053-.483l1.751-.58c.344-.817-.064-1.171-.547-1.171-.828 0-1.773 1.45-1.773 2.61 0 .548.258.85.666.85.473-.012.967-.474 1.375-1.226m-.28-2.62l1-.914v-.129h-.666l-.591 1.042h.258zm-3.738.88h.58l-.924 2.535c-.085.215.033.43.258.43.656 0 1.44-.559 1.74-1.353h-.16c-.237.333-.752.698-1.14.762l.85-2.374h.87l.107-.365h-.849l.323-.913h-.333l-.602.913-.72.097v.268zm-.601-.118c.075-.236-.086-.365-.204-.365-.505 0-1.107.45-1.354 1.095h.161c.161-.236.44-.494.71-.537l-.968 2.525c-.086.236.086.365.204.365.484 0 1.042-.462 1.29-1.096h-.172c-.162.237-.44.495-.71.537l1.043-2.524zm.096-1.01a.397.397 0 100-.795.397.397 0 100 .795m-4.694 1.343c.15 0 .236.236 0 .752l-.688 1.525c-.129.29.01.473.29.473.172 0 .247-.043.322-.225l.677-1.784c.312-.376.892-.784 1.139-.784.183 0 .161.15.043.376l-1.031 1.987a.293.293 0 00.258.43c.504 0 1.106-.451 1.353-1.096h-.161c-.161.237-.44.495-.709.537l.892-1.794c.118-.225.172-.44.172-.612 0-.29-.162-.483-.473-.483-.44 0-.817.494-1.343 1.106v-.473c0-.333-.107-.633-.408-.633-.355 0-.677.548-.924 1.095h.161c.15-.257.3-.397.43-.397m-.699.064c.119-.408.054-.773-.257-.773-.398 0-.516.268-.914 1.106v-.472c0-.333-.107-.634-.408-.634-.354 0-.677.548-.924 1.096h.161c.172-.247.333-.398.462-.398.15 0 .237.237 0 .752l-.687 1.526c-.129.29.01.472.29.472.172 0 .247-.043.322-.225l.677-1.784c.193-.236.365-.44.58-.666h.698zm-3.727-.3c.236 0 .44.182.333.601l-1.085.29c.172-.515.494-.891.752-.891m.601 1.761h-.215c-.268.323-.569.58-.86.58-.3 0-.45-.182-.45-.58 0-.16.021-.333.053-.483l1.752-.58c.343-.817-.065-1.171-.548-1.171-.828 0-1.773 1.45-1.773 2.61 0 .548.258.85.666.85.473-.012.967-.474 1.375-1.226m-4.018-1.74h.58l-.923 2.535c-.086.215.032.43.257.43.656 0 1.44-.559 1.74-1.353h-.16c-.237.333-.752.698-1.14.762l.85-2.374h.87l.107-.365h-.848l.322-.913h-.333l-.602.913-.72.097v.268zm-3.072 1.966c0-.784.87-1.837 1.354-1.837.107 0 .214.01.3.043l-.505 1.354c-.29.354-.74.784-.956.784-.118 0-.193-.108-.193-.344m2.664-2.6l-.268-.021-.301.3h-.054c-1.278 0-2.643 1.59-2.643 2.837 0 .29.161.483.473.483.376 0 .741-.537 1.15-1.106l-.022.204c-.054.58.129.902.43.902.354 0 .677-.548.924-1.096h-.162c-.171.247-.333.398-.461.398-.13 0-.226-.237 0-.752l.934-2.149zm-2.729.913c.119-.408.054-.773-.257-.773-.398 0-.516.268-.913 1.106v-.472c0-.333-.108-.634-.409-.634-.354 0-.677.548-.924 1.096h.162c.171-.247.333-.398.45-.398.151 0 .237.237 0 .752l-.687 1.536c-.129.29.01.473.29.473.172 0 .247-.043.323-.225l.676-1.784c.194-.236.366-.44.58-.666h.71v-.01zm-4.49 2.557l.064-.193c-.848-.161-.956-.161-.612-1.074l.312-.86h.676c.42 0 .42.183.366.645h.236l.559-1.526h-.237c-.204.365-.376.645-.827.645h-.677l.462-1.257c.161-.451.237-.537.817-.537h.15c.591 0 .655.16.655.784h.237l.193-1.042h-3.255l-.064.193c.676.14.74.204.43 1.075l-.699 1.869c-.322.87-.451.934-1.225 1.074l-.064.204h2.503zm16.189-10.227c.237 0 .44.183.334.59l-1.086.29c.183-.504.505-.88.752-.88m.602 1.751h-.215c-.268.322-.57.58-.86.58-.3 0-.45-.182-.45-.58 0-.161.021-.333.053-.483l1.762-.58c.344-.817-.075-1.171-.548-1.171-.827 0-1.772 1.45-1.772 2.61 0 .548.257.849.666.849.472 0 .967-.462 1.364-1.225m-.28-2.61l1-.914V79h-.666l-.591 1.042h.258zm-3.727.88h.58l-.924 2.536c-.086.215.032.43.258.43.655 0 1.44-.56 1.74-1.354h-.16c-.237.333-.753.698-1.14.763l.85-2.375h.87l.107-.365h-.849l.322-.913h-.333l-.601.913-.72.097v.268zm-.602-.128c.065-.237-.086-.366-.214-.366-.505 0-1.107.462-1.354 1.096h.161c.161-.236.44-.494.71-.537l-.968 2.525c-.086.236.086.365.204.365.484 0 1.042-.462 1.29-1.096h-.162c-.16.236-.44.494-.709.537l1.042-2.524zm.097-1a.404.404 0 00.398-.397.397.397 0 10-.397.397m-3.106 3.524l1.601-4.254-.054-.064-1.106.128v.13l.215.16c.193.15.129.29-.043.763l-1.225 3.266a.293.293 0 00.258.43c.505 0 1.042-.462 1.289-1.096h-.161c-.172.236-.516.494-.774.537m-3.276-.43c0-.784.87-1.837 1.353-1.837a.93.93 0 01.301.043l-.505 1.354c-.29.354-.741.784-.945.784-.129 0-.204-.107-.204-.344m2.664-2.6l-.269-.02-.3.3h-.054c-1.278 0-2.643 1.59-2.643 2.836 0 .29.161.484.473.484.376 0 .741-.538 1.15-1.107l-.022.204c-.054.58.129.903.43.903.354 0 .676-.548.923-1.096h-.16c-.173.247-.334.397-.463.397s-.225-.236 0-.752l.935-2.148zM15.609 84.5c0-.333.323-.548.785-.73.15.075.376.16.687.257.484.161.666.226.666.365 0 .312-.44.548-1.246.548-.602 0-.892-.129-.892-.44m1.322-2.052c-.215 0-.29-.183-.29-.376 0-.623.3-1.397.784-1.397.215 0 .29.183.29.376-.01.634-.312 1.397-.784 1.397m1.364 1.74c0-.408-.365-.548-.956-.73-.505-.15-.73-.194-.73-.365 0-.13.107-.29.322-.409.838-.043 1.364-.795 1.364-1.45a.987.987 0 00-.054-.322h.57l.107-.366h-.967a.841.841 0 00-.472-.128c-.881 0-1.44.773-1.44 1.45 0 .44.258.741.655.795-.408.193-.644.397-.644.655 0 .15.054.258.182.344-.945.28-1.332.623-1.332 1.042 0 .44.58.623 1.257.623 1.171.01 2.138-.612 2.138-1.139m-4.361-2.567c.418 0 .43.182.365.644h.236l.559-1.525h-.237c-.204.365-.376.644-.827.644h-.924l.452-1.256c.16-.452.236-.538.816-.538h.408c.591 0 .656.162.656.785h.236l.193-1.042h-3.502l-.064.193c.676.14.74.204.43 1.074l-.699 1.88c-.322.87-.451.935-1.235 1.074l-.054.205h3.889l.698-1.107h-.268c-.452.44-.903.849-1.784.849-1.031 0-.945-.054-.601-1.01l.322-.86h.935v-.01zM14.438 79l1-.72v-.13h-.667l-.59.86h.257V79zm14.879-5.469c.237 0 .44.183.333.591l-1.085.29c.172-.505.494-.88.752-.88m.602 1.75h-.215c-.269.323-.57.58-.86.58-.3 0-.45-.182-.45-.58 0-.16.02-.333.053-.483l1.751-.58c.344-.817-.075-1.171-.548-1.171-.827 0-1.772 1.45-1.772 2.61 0 .548.258.838.666.838.473.011.967-.45 1.375-1.214m-.28-2.61l1-.913v-.13h-.666l-.591 1.043h.258zm-3.738.88h.58l-.924 2.536c-.086.215.033.43.258.43.655 0 1.44-.559 1.74-1.354h-.16c-.237.333-.753.699-1.14.763l.85-2.374h.87l.107-.365h-.849l.322-.914h-.333l-.601.914-.72.096v.269zm-.3.28c.117-.408.053-.773-.259-.773-.397 0-.515.268-.913 1.106v-.472c0-.333-.107-.634-.408-.634-.354 0-.677.548-.924 1.095h.161c.172-.247.333-.397.452-.397.15 0 .236.236 0 .752l-.688 1.525c-.129.29.01.473.29.473.172 0 .247-.043.322-.225l.677-1.784c.193-.236.365-.44.58-.666h.71zm-3.74-.3c.237 0 .441.182.334.59l-1.085.29c.182-.505.494-.88.752-.88m.601 1.75h-.215c-.268.323-.569.58-.859.58-.3 0-.451-.182-.451-.58 0-.16.021-.333.054-.483l1.75-.58c.344-.817-.064-1.171-.547-1.171-.827 0-1.773 1.45-1.773 2.61 0 .548.258.838.666.838.473.011.967-.45 1.375-1.214m-4.093.71c-.172 0-.419-.162-.419-.301 0-.043.076-.237.172-.484l.28-.752c.3-.365.773-.752 1.03-.752.162 0 .28.097.28.333.01.699-.644 1.956-1.343 1.956m1.956-2.224c0-.516-.13-.71-.495-.71-.45 0-.87.484-1.289 1.064l.903-2.417-.054-.075-1.107.129v.129l.215.16c.194.151.13.302-.043.764l-.977 2.556c-.086.215-.183.473-.183.538 0 .3.408.59.784.59.838.011 2.246-1.536 2.246-2.728m-3.288-.344c.065-.236-.086-.365-.215-.365-.505 0-1.106.462-1.353 1.095h.16c.162-.236.441-.494.71-.537l-.967 2.525c-.086.236.086.365.215.365.483 0 1.042-.462 1.29-1.096h-.162c-.161.237-.44.495-.71.538l1.032-2.525zm.108-1.01a.404.404 0 00.397-.397.397.397 0 10-.795 0 .39.39 0 00.398.397m-2.471-.473h-2.31l-.064.194c.676.14.74.204.43 1.074l-.699 1.902c-.322.87-.451.934-1.225 1.074l-.064.193h3.513l.763-1.353h-.269c-.44.483-.935 1.095-1.719 1.095-.59 0-.677-.107-.344-1.01l.688-1.89c.322-.87.451-.935 1.235-1.074l.065-.205z" fill="#000" fill-rule="nonzero"/><path d="M13.375 34.914v-5.393l1.676 2.815h1.074l1.676-2.815v5.393h1.525v-7.52h-1.901l-1.837 3.159-1.837-3.159h-1.902v7.52h1.526zm9.728 0v-7.52h-1.525v7.52h1.525zm3.788 0v-5.436l3.363 5.436h1.955v-7.52h-1.526v5.436l-3.362-5.436h-1.955v7.52h1.525zm9.106 0v-7.52H34.47v7.52h1.526zm4.368.215c1.385 0 2.481-.848 2.503-2.267 0-2.578-3.417-2.191-3.417-3.555 0-.452.355-.795.892-.795.57 0 1.064.376 1.504.945l1.117-1.01c-.644-.763-1.504-1.268-2.632-1.268-1.44 0-2.428.989-2.428 2.181 0 2.546 3.417 2.17 3.417 3.556 0 .537-.366.86-.967.86-.613 0-1.214-.344-1.665-.924l-1.107 1.02c.666.795 1.515 1.257 2.783 1.257zm7.279-.215V28.78h2.32v-1.386h-6.166v1.386h2.32v6.134h1.526zm6.731-8.164l-1.214-1.45h-1.568l1.385 1.45h1.397zm1.472 8.164v-1.267h-2.858v-1.934h2.428v-1.268H52.99v-1.783h2.858v-1.268h-4.383v7.52h4.383zm3.455 0v-3.04h.784l2.009 3.04h1.794l-2.353-3.33c.774-.354 1.214-1.031 1.214-1.944 0-1.397-1.02-2.246-2.675-2.246h-2.299v7.52h1.526zm.859-4.308h-.86v-1.944h.86c.645 0 1.02.387 1.02.956 0 .612-.375.988-1.02.988zm9.234 4.308v-1.267h-2.857v-1.934h2.428v-1.268h-2.428v-1.783h2.857v-1.268h-4.383v7.52h4.383zM14.804 45.657c2.385 0 3.996-1.73 3.996-3.76s-1.611-3.76-3.996-3.76h-2.955v7.52h2.955zm.021-1.386h-1.45v-4.748h1.45c1.397 0 2.407 1.031 2.407 2.374 0 1.332-1.01 2.374-2.407 2.374zm8.515 1.601c1.89 0 3.05-1.182 3.05-3.158v-4.577h-1.525v4.706c0 1.01-.58 1.6-1.514 1.6-.957 0-1.526-.59-1.526-1.6v-4.706H20.3v4.577c0 1.976 1.16 3.158 3.04 3.158zm11.12-.215v-6.134h2.32v-1.386h-6.165v1.386h2.32v6.134h1.525zm5.346 0v-3.04h.784l2.01 3.04h1.793l-2.353-3.33c.774-.355 1.214-1.031 1.214-1.945 0-1.396-1.02-2.245-2.675-2.245H38.28v7.52h1.526zm.86-4.308h-.86v-1.944h.86c.644 0 1.02.387 1.02.956 0 .612-.376.988-1.02.988zm5.85 4.308l.72-1.955h3.008l.72 1.955h1.621l-2.846-7.52H47.74l-2.846 7.52h1.622zm3.255-3.255h-2.063l1.032-2.825 1.03 2.825zm7.365 3.255l2.847-7.52H58.36l-2.224 5.877-2.224-5.877H52.29l2.847 7.52h1.998zm4.174 0l.72-1.955h3.008l.72 1.955h1.622l-2.847-7.52h-1.998l-2.847 7.52h1.622zm3.256-3.255h-2.063l1.031-2.825 1.032 2.825zm5.657 3.255v-7.52h-1.526v7.52h1.526zm6.645 0v-1.386H74.01v-6.134h-1.525v7.52h4.383zm2.423 1.72l1.247-3.213H79l-.977 3.212h1.267zM14.804 56.4c2.385 0 3.996-1.73 3.996-3.76s-1.611-3.76-3.996-3.76h-2.955v7.52h2.955zm.021-1.386h-1.45v-4.748h1.45c1.397 0 2.407 1.031 2.407 2.374 0 1.332-1.01 2.374-2.407 2.374zm9.987 1.386v-1.268h-2.858V53.2h2.428v-1.27h-2.428v-1.783h2.858V48.88h-4.384v7.52h4.384zm9.262 0v-1.386h-2.858V48.88h-1.525v7.52h4.383zm1.779-4.426l.16-3.094h-1.525l.172 3.094h1.193zM42.24 56.4v-1.268h-2.858V53.2h2.428v-1.27h-2.428v-1.783h2.858V48.88h-4.383v7.52h4.383zm3.455 0v-5.393l1.676 2.815h1.074l1.676-2.815V56.4h1.525v-7.52h-1.901l-1.837 3.158-1.837-3.158h-1.902v7.52h1.526zm9.728 0v-3.04h.956c1.655 0 2.665-.849 2.665-2.235 0-1.396-1.01-2.245-2.665-2.245h-2.481v7.52h1.525zm1.021-4.308h-1.02v-1.944h1.02c.645 0 1.031.386 1.031.956 0 .612-.386.988-1.031.988zM64.84 56.4v-1.386h-2.857V48.88h-1.526v7.52h4.383zm4.583.215c2.364 0 3.986-1.826 3.986-3.975 0-2.148-1.622-3.975-3.986-3.975-2.374 0-3.996 1.827-3.996 3.975 0 2.149 1.622 3.975 3.996 3.975zm0-1.429c-1.418 0-2.428-1.106-2.428-2.546 0-1.44 1.01-2.546 2.428-2.546 1.407 0 2.417 1.107 2.417 2.546 0 1.44-1.01 2.546-2.417 2.546zm7.129 1.214v-7.52h-1.526v7.52h1.526zm-60.32 10.743v-1.268h-2.857v-1.933h2.428v-1.268h-2.428V60.89h2.857v-1.268H11.85v7.52h4.383zm5.163 0v-6.134h2.32v-1.386H17.55v1.386h2.32v6.134h1.526zm9.724 0c2.385 0 3.997-1.73 3.997-3.76s-1.612-3.76-3.997-3.76h-2.954v7.52h2.954zm.022-1.386h-1.45V61.01h1.45c1.396 0 2.406 1.031 2.406 2.374 0 1.332-1.01 2.374-2.406 2.374zm9.986 1.386v-1.268H38.27v-1.933h2.428v-1.268H38.27V60.89h2.857v-1.268h-4.383v7.52h4.383zm9.262 0v-1.386h-2.857v-6.134h-1.526v7.52h4.383zm1.78-4.426l.16-3.094h-1.525l.172 3.094h1.192zm3.53 4.426v-7.52h-1.526v7.52h1.525zm3.787 0v-5.436l3.362 5.436h1.956v-7.52h-1.526v5.436l-3.362-5.436H57.96v7.52h1.526zm9.686.215c1.385 0 2.481-.849 2.503-2.267 0-2.578-3.417-2.191-3.417-3.556 0-.451.355-.795.892-.795.57 0 1.064.376 1.504.946l1.117-1.01c-.644-.763-1.504-1.268-2.632-1.268-1.44 0-2.428.988-2.428 2.18 0 2.547 3.417 2.171 3.417 3.557 0 .537-.366.86-.967.86-.613 0-1.214-.345-1.665-.925l-1.107 1.02c.666.796 1.515 1.258 2.783 1.258zm8.643-.215v-1.268h-2.857v-1.933h2.427v-1.268h-2.427V60.89h2.857v-1.268h-4.383v7.52h4.383zm3.455 0v-3.04h.784l2.009 3.04h1.794l-2.353-3.33c.774-.355 1.214-1.032 1.214-1.945 0-1.396-1.02-2.245-2.675-2.245h-2.299v7.52h1.526zm.86-4.308h-.86v-1.944h.86c.644 0 1.02.386 1.02.956 0 .612-.376.988-1.02.988zm7.59 4.308v-6.134h2.32v-1.386h-6.166v1.386h2.32v6.134h1.526zm5.345 0v-7.52H93.54v7.52h1.525zm5.615.215c2.363 0 3.985-1.826 3.985-3.975s-1.622-3.975-3.985-3.975c-2.375 0-3.997 1.826-3.997 3.975s1.622 3.975 3.997 3.975zm0-1.429c-1.419 0-2.428-1.107-2.428-2.546 0-1.44 1.01-2.546 2.428-2.546 1.407 0 2.417 1.106 2.417 2.546 0 1.44-1.01 2.546-2.417 2.546zm7.128 1.214v-5.436l3.363 5.436h1.955v-7.52h-1.525v5.436l-3.363-5.436h-1.955v7.52h1.525z" fill="#1E1E1E" fill-rule="nonzero"/><path fill="#FFF" d="M10.743 10.743h29.543v10.743H10.743z"/><path d="M22.998 20.223c.115-.115.23-.238.345-.363h-.004a6.68 6.68 0 01.676-.691c.076-.07.15-.13.219-.178.02-.02.02-.063.042-.08-.101.038-.16.122-.265.16-.02 0-.042-.02-.02-.042.072-.052.145-.108.215-.164h-.014c-.02 0-.02-.02-.02-.041-.265-.042-.467.143-.648.303-.042.021-.08-.02-.101-.02-.303.1-.525.366-.828.484v-.042c-.122.042-.24.115-.366.143-.18.042-.344.021-.504.021-.247.025-.49.08-.734.133-.007.003-.014.003-.021.007a1.522 1.522 0 00-.376.153l-.014.007-.028.035a.47.47 0 01-.139.122c-.125.063-.226.175-.334.262-.007.007-.02.01-.031.01-.108.105-.216.21-.327.311-.007.007-.039.01-.063.007 0 0 .003 0 .003-.003l.01-.021.053-.084c.02-.032.038-.063.06-.094.027-.042.055-.084.086-.122.007-.01.007-.021 0-.028a.04.04 0 00-.028-.01 1.9 1.9 0 01.341-.256v-.003c-.014.003-.034-.007-.024-.021.014-.017.024-.038.035-.056.003-.007.003-.01.007-.017-.004-.007-.01-.01-.014-.018-.031.021-.066.042-.094.067-.049.041-.087.132-.16.132-.004 0-.021 0-.031-.003a.032.032 0 01-.021-.007c0-.004 0-.004.003-.004 0 0 .004-.003.004-.007 0 0 0-.003.003-.003.004-.007.007-.01.01-.018l.011-.017c.003-.004.003-.01.007-.014l.014-.028.01-.017c.01-.014.018-.032.028-.046a.073.073 0 01.014-.02c.007-.015.014-.025.02-.04.011-.017 0-.03-.013-.034a.47.47 0 01.14-.122h-.008c.077-.039.157-.087.233-.13.01-.01.021-.02.035-.027-.115.038-.22.09-.32.16 0 0-.028.01-.035.018 0 0-.02.007-.048-.018-.004-.003-.004-.007-.004-.014.02-.041.08-.059.122-.1.02 0 .038 0 .038.02.647-.506 1.538-.384 2.286-.649.06-.042.122-.08.181-.122.101-.042.181-.143.303-.202a.901.901 0 00.344-.468c0-.02-.02-.042-.02-.042a3.2 3.2 0 01-.891.67c-.425.223-.891.185-1.333.244.02-.041.063-.041.1-.041 0-.063.04-.08.081-.123h.06c.02 0 .02-.041.04-.041.043 0 .102-.021.08-.021-.062-.08-.18.059-.28 0 .037-.042.02-.102.058-.122h.08c0-.042.042-.08.042-.08.303-.182.588-.325.87-.486-.06 0-.101.063-.16.021.042 0 0-.06.042-.06.222-.058.403-.18.626-.264-.08 0-.143.063-.223 0 .042-.021.06-.06.122-.06v-.059c0-.02.021-.02.042-.02-.021 0-.042-.022-.042-.022.021-.042.08-.02.122-.06-.021 0-.06 0-.06-.02.06-.08.16-.101.262-.122-.021-.042-.08 0-.08-.042 0-.02.02-.02.041-.02h-.041c-.042-.022-.021-.064-.021-.081.122-.143.122-.325.18-.485-.02 0-.041 0-.041-.021-.202.223-.525.303-.828.384h-.101a.4.4 0 01-.345-.021c-.08-.042-.121-.101-.201-.16a2.494 2.494 0 00-.505-.245 4.543 4.543 0 00-1.555-.223c.222-.122.466-.133.706-.203.344-.1.668-.223 1.03-.202-.06-.02-.143 0-.202 0-.282-.02-.567.06-.87.122-.202.042-.383.122-.588.16-.122.042-.18.161-.323.144v-.063c.201-.244.445-.485.769-.506.365-.06.706 0 1.071.042.261.02.505.08.77.143.1 0 .121.16.201.181.122.042.244 0 .365.08 0-.041-.02-.08 0-.122.08-.08.181.021.261-.02.164-.102-.142-.283-.222-.426 0-.021.02-.042.02-.042.16.143.283.304.484.405.101.042.345.1.303-.021-.1-.224-.303-.405-.466-.607v-.08c-.042 0-.042-.022-.06-.042v-.08c-.08-.043-.062-.123-.1-.182-.063-.101-.021-.244-.063-.366a2.064 2.064 0 01-.08-.346c-.063-.345-.143-.649-.18-.973-.043-.384.222-.691.403-1.033.142-.244.302-.485.567-.65.06-.243.223-.446.383-.648.16-.199.431-.318.623-.405.281-.125.535-.206.539-.206H10.743V21.49h9.917c.386-.279.77-.408 1.308-.677.251-.125.832-.394 1.03-.59m-3.11-1.45c-.042 0-.122.02-.101-.022.02-.1.16-.1.243-.143.042-.02.101-.06.143-.042.042.06.1.042.143.08-.126.126-.286.063-.428.126m-3.094-.446s-.02-.021-.02-.042a6.2 6.2 0 00.646-1.033c.265-.143.48-.349.69-.569.344-.366.706-.69 1.13-.893.16-.063.366-.042.526.021-.06.08-.16.06-.244.122-.02 0-.042 0-.062-.02.02-.022.02-.043.02-.064-.201.224-.483.325-.647.59-.122.202-.202.468-.463.527-.08.02.021-.06-.02-.042-.627.387-1.069.855-1.556 1.403m1.677-1.34c-.02.042-.041.045-.059.08a.163.163 0 01-.08.08c-.02 0-.042 0-.042-.02.021-.08.08-.161.16-.182.021.003.021.024.021.042m.94 3.039a.26.26 0 01-.049.06c.025.003.042.017.028.03-.045.042-.09.088-.153.109-.004 0-.018.003-.031.003a.727.727 0 01-.077.07c-.024.02-.136.007-.1-.024.051-.046.1-.095.149-.144.028-.027.059-.052.083-.08.014-.017.025-.031.042-.045.017-.01.125-.021.108.02m-.362-.167c-.003 0-.003 0-.003.004-.077.052-.15.108-.23.153-.087.05-.178.088-.268.133 0 0 0-.004-.004-.004-.007-.01-.02-.014-.034-.007a.896.896 0 00-.23.185l-.028.028-.003.004v.003c-.014.014-.028.028-.046.05-.01.01-.014.02-.027.027-.014.007-.05.007-.046-.014v-.003a.162.162 0 01-.034.017c-.01.007-.021.01-.032.017-.003-.003-.01-.003-.014-.003-.003 0-.01 0-.014.003-.024.021-.048.039-.073.063-.041.039-.08.08-.118.126 0 0 0 .003-.003.003 0 .004-.004.004-.004.007l-.007.007c-.003.004-.003.007-.007.007l-.003.004a.073.073 0 01-.014.02.027.027 0 01-.018.008c-.003-.004-.007-.007-.007-.01-.003-.004-.003-.008-.007-.011-.007-.01-.01-.021-.017-.032v-.003c0-.004-.003-.007-.003-.01l.062-.074.004-.003c.007-.007.014-.018.02-.025.011-.014.025-.028.035-.042l.01-.017c.022-.028.043-.056.063-.087v-.004a.016.016 0 00.007-.014c.01-.014.021-.028.028-.042l.021-.041v-.004l.004-.003c0-.004.003-.004.003-.007.007-.018.014-.032.02-.05v-.003l.004-.014c.004-.007.004-.014.007-.02v-.004c.004-.01.004-.021.007-.032 0-.003 0-.01-.003-.014a.578.578 0 01.08-.108c-.004 0-.007.004-.01.004-.028.017-.05.045-.077.066-.021.018-.063-.01-.035-.031a.617.617 0 00.045-.042s0-.004.004-.004c.035-.031.066-.073.104-.1a.983.983 0 00.073-.057.606.606 0 01.045-.052s.004 0 .004-.003c.195-.189.518-.178.776-.297.1-.042.223.02.324 0 .059 0 .121 0 .18.042-.177.094-.344.206-.511.31m.191-3.119c.021 0 .063 0 .063.021a.2.2 0 01-.164.202c.164.042.324.042.484.123-.02.041-.059.02-.08.02.101.06.223.021.324.102-.063.059-.122 0-.181 0 .626.181 1.294.324 1.82.729-.446.223-.912.324-1.396.426-.059 0-.1 0-.16-.021 0 .02 0 .059-.02.059-.08 0-.143 0-.202.042-.084.045-.206.066-.265.007-.02-.021.063 0 .08-.042h-.16c-.02 0-.02-.021-.02-.042l-.324.08c-.143.042-.265.143-.425.182-.223.08-.404.265-.647.345-.021 0-.021-.02-.021-.042.02-.06.1-.08.143-.143 0-.02 0-.042-.021-.042.16-.223.382-.345.588-.527v-.062c.059-.08.16-.122.202-.224.02-.059.1-.143.201-.181-.02-.021-.059-.021-.059-.06-.08 0-.163.042-.243-.02a.29.29 0 01.125-.074.071.071 0 01-.045-.028c-.021-.041.038-.087.1-.1.08-.022.182-.022.244-.08-.142-.022-.303.04-.445-.043.1-.261.264-.485.504-.607z" fill="#000091" fill-rule="nonzero"/><path d="M40.258 10.743H28.747s.02.003.108.049l.289.153a.94.94 0 01.386.325c.042.06.1.182.063.262-.042.101-.063.266-.164.304-.122.063-.282.063-.425.042-.08 0-.16-.021-.243-.042.303.122.588.265.79.548.02.042.1.06.18.06.022 0 .022.042.022.06-.042.041-.08.062-.06.121h.06c.1-.042.08-.244.222-.181.101.06.143.202.08.304-.08.08-.16.143-.243.202a.172.172 0 000 .143c.059.08.08.161.1.245.063.143.08.304.143.447.08.304.16.608.143.915 0 .16-.08.304-.02.468.04.16.142.283.222.426.08.122.16.202.223.325.121.202.344.405.243.65-.059.143-.282.122-.424.202-.122.101-.021.265.041.367.101.181-.121.303-.264.366.042.063.122.042.143.08.02.102.121.161.059.266-.08.122-.324.182-.202.367.08.143.028.3-.021.447-.06.181-.223.262-.365.304a.794.794 0 01-.383.02c-.042-.02-.08-.041-.122-.041-.344-.042-.689-.14-1.03-.14-.1.021-.202.038-.282.08-.09.067-.174.14-.243.217l-.004.003c-.014.018-.031.032-.045.05l-.024.03c-.007.008-.01.015-.018.022a2.1 2.1 0 00-.16.234c-.003.007-.007.01-.01.014-.004.01-.01.017-.018.028a2.012 2.012 0 00-.153.373c-.139.465-.076.863.021.96.028.029.668.228 1.114.427.208.094.355.164.476.24h11.302V10.744h.004z" fill="#E1000F" fill-rule="nonzero"/><path d="M29.432 14.658c.08.02.202.02.202.062-.041.16-.282.202-.403.365h-.063c-.06.042-.042.143-.1.143-.06-.021-.123 0-.182.02.08.08.181.143.303.122.02 0 .06.042.06.08 0 0 .02 0 .04-.02.022 0 .043 0 .043.02v.08c-.06.08-.164.042-.244.06a.883.883 0 00.466 0c.122-.042 0-.244.08-.345-.041 0 0-.062-.041-.062.041-.042.08-.101.121-.122.042 0 .101-.021.122-.063 0-.041-.08-.059-.062-.1.121-.08.222-.202.18-.324-.02-.062-.18-.062-.281-.1-.101-.039-.223 0-.345.02-.1 0-.202.063-.303.08a1.39 1.39 0 00-.382.202c.142-.06.281-.08.445-.122.122.004.223-.024.344.004" fill="gray" fill-rule="nonzero"/></g></svg>