<svg width="25" height="25" viewBox="0 0 25 25" fill="none" xmlns="http://www.w3.org/2000/svg">
<circle cx="17.5" cy="7.5" r="6.25" fill="#006ADC"/>
<path fill-rule="evenodd" clip-rule="evenodd" d="M7.92182 5.50888C7.39011 5.93478 7.05539 6.56014 7.05539 7.39468C7.05539 8.25429 7.40494 9.24577 7.98509 10.0203C8.56735 10.7976 9.32779 11.2897 10.1188 11.2897C10.9099 11.2897 11.6703 10.7976 12.2526 10.0203C12.8327 9.24577 13.1823 8.25429 13.1823 7.39468C13.1823 6.56014 12.8476 5.93478 12.3159 5.50888C11.7742 5.07497 11.0023 4.82955 10.1188 4.82955C9.2354 4.82955 8.46351 5.07497 7.92182 5.50888ZM7.4083 4.85988C8.12715 4.28407 9.0931 4 10.1188 4C11.1446 4 12.1105 4.28407 12.8294 4.85988C13.5582 5.44369 14.0068 6.30828 14.0068 7.39468C14.0068 8.45599 13.5853 9.6194 12.911 10.5196C12.2388 11.4169 11.2614 12.1192 10.1188 12.1192C8.97623 12.1192 7.99884 11.4169 7.32667 10.5196C6.65239 9.6194 6.23092 8.45599 6.23092 7.39468C6.23092 6.30828 6.67946 5.44369 7.4083 4.85988ZM14.3082 9.38949C14.3082 8.9634 14.6641 8.6053 15.0876 8.6053H18.2206C18.6258 8.6053 19 8.9208 19 9.38949V11.2365C19 11.6626 18.6441 12.0207 18.2206 12.0207H17.5542C16.9414 12.7137 16.344 12.9573 15.8441 12.9807C15.5847 12.9929 15.3715 12.9444 15.22 12.8906C15.1443 12.8637 15.0835 12.8353 15.0391 12.812C15.0169 12.8003 14.9986 12.7898 14.9846 12.7813C14.9775 12.7771 14.9715 12.7733 14.9666 12.7702L14.9599 12.7658L14.9572 12.764L14.956 12.7632L14.9554 12.7628C14.9551 12.7626 14.9549 12.7624 15.1855 12.4186L14.9549 12.7624C14.8334 12.68 14.7646 12.5388 14.7741 12.3917C14.7837 12.2446 14.8701 12.1136 15.0011 12.0477C15.0157 12.0403 15.0308 12.031 15.0465 12.0196C14.6414 11.9974 14.3082 11.6488 14.3082 11.2365V9.38949ZM16.0479 12.1095C16.3034 12.033 16.6474 11.833 17.0446 11.3436C17.1229 11.2471 17.2402 11.1912 17.3639 11.1912H18.1755V9.43486H15.1327V11.1912H15.9198C16.0923 11.1912 16.2466 11.2992 16.3064 11.462C16.3663 11.6248 16.3191 11.8079 16.1881 11.9209C16.1911 11.9183 16.1855 11.9228 16.1701 11.9414C16.1555 11.959 16.1377 11.9826 16.1149 12.0142C16.103 12.0308 16.0838 12.0583 16.0616 12.0899C16.0572 12.0963 16.0526 12.1029 16.0479 12.1095ZM7.86218 13.1865C7.94089 13.4014 7.83151 13.6399 7.61788 13.7191L5.29259 14.581L5.28586 14.5834C4.40445 14.8928 3.82448 15.7414 3.82448 16.6792V19.5852C3.82448 19.8143 3.63991 20 3.41224 20C3.18457 20 3 19.8143 3 19.5852V16.6792C3 15.4017 3.7892 14.2319 5.01076 13.8014L7.33285 12.9407C7.54648 12.8615 7.78348 12.9715 7.86218 13.1865ZM12.4643 13.0715C12.5751 12.9316 12.7625 12.8788 12.9293 12.9407L15.2558 13.8031C16.4667 14.2564 17.2622 15.3944 17.2622 16.6792V19.5852C17.2622 19.7687 17.1423 19.9303 16.9676 19.9827C16.7928 20.0351 16.6046 19.9657 16.5048 19.8121L12.4417 13.5568C12.3445 13.407 12.3536 13.2114 12.4643 13.0715ZM13.8136 14.1525L16.4377 18.1924V16.6792C16.4377 15.7477 15.8627 14.9156 14.9688 14.5807C14.9686 14.5807 14.9685 14.5806 14.9683 14.5806L13.8136 14.1525Z" fill="#000638"/>
<path fill-rule="evenodd" clip-rule="evenodd" d="M8.12557 14.12C8.30337 13.969 8.60417 13.9592 8.79742 14.0981L9.50321 14.6054C9.62464 14.6927 9.67947 14.8229 9.64808 14.9495L8.99855 17.568L10 18.1621L11.0014 17.568L10.3519 14.9495C10.3205 14.8229 10.3754 14.6927 10.4968 14.6054L11.2026 14.0981C11.3958 13.9592 11.6966 13.969 11.8744 14.12C12.0522 14.271 12.0397 14.506 11.8464 14.6449L11.336 15.0118L11.9913 17.6535C12.0257 17.7924 11.9562 17.9345 11.812 18.02L10.2875 18.9244C10.1176 19.0252 9.88244 19.0252 9.71247 18.9244L8.18797 18.02C8.04376 17.9345 7.97425 17.7924 8.0087 17.6535L8.66398 15.0118L8.15357 14.6449C7.96031 14.506 7.94778 14.271 8.12557 14.12Z" fill="#000638"/>
</svg>
