<svg width="24" height="24" viewBox="0 0 24 24" fill="none" xmlns="http://www.w3.org/2000/svg">
<g id="marche/contrat">
<g id="Group 12">
<circle id="Ellipse 7" cx="14.6545" cy="6" r="6" fill="#FFDDDD"/>
<path id="Path 23" d="M12.6413 3.10823C12.8614 3.10823 13.0398 3.28664 13.0398 3.50672C13.0398 3.71305 12.883 3.88275 12.682 3.90315L12.6413 3.90521H3.63341V20.3189L13.432 20.2144C13.6383 20.2122 13.8097 20.3672 13.8322 20.5679L13.8347 20.6086C13.8369 20.8149 13.6819 20.9863 13.4812 21.0088L13.4405 21.0113L3.23916 21.12C3.03129 21.1222 2.85921 20.9649 2.83851 20.7626L2.83643 20.7215V3.50672C2.83643 3.3004 2.99323 3.13069 3.19417 3.11029L3.23492 3.10823H12.6413Z" fill="#000638"/>
<path id="Shape" fill-rule="evenodd" clip-rule="evenodd" d="M16.7019 3.46598C16.6815 3.26504 16.5118 3.10823 16.3054 3.10823H14.8709L14.8301 3.11029C14.6292 3.13069 14.4724 3.3004 14.4724 3.50672L14.4744 3.54746C14.4948 3.74841 14.6645 3.90521 14.8709 3.90521H15.9069V10.6086L15.909 10.6493C15.9294 10.8503 16.0991 11.0071 16.3054 11.0071C16.5255 11.0071 16.7039 10.8286 16.7039 10.6086V3.50672L16.7019 3.46598ZM16.7017 16.7315C16.6812 16.5306 16.5115 16.3738 16.3052 16.3738L16.2645 16.3758C16.0635 16.3962 15.9067 16.5659 15.9067 16.7723V20.2768L14.8707 20.277L14.8299 20.2791C14.629 20.2995 14.4722 20.4692 14.4722 20.6755C14.4722 20.8956 14.6506 21.074 14.8707 21.074H16.3052L16.346 21.0719C16.5469 21.0515 16.7037 20.8818 16.7037 20.6755V16.7723L16.7017 16.7315Z" fill="#000638"/>
<path id="Oval" fill-rule="evenodd" clip-rule="evenodd" d="M7.61835 6.53524C7.61835 5.34681 8.58176 4.38339 9.7702 4.38339C10.9586 4.38339 11.922 5.34681 11.922 6.53524C11.922 7.72368 10.9586 8.68709 9.7702 8.68709C8.58176 8.68709 7.61835 7.72368 7.61835 6.53524ZM11.1252 6.53523C11.1252 5.78696 10.5186 5.18036 9.77033 5.18036C9.02205 5.18036 8.41546 5.78696 8.41546 6.53523C8.41546 7.2835 9.02205 7.8901 9.77033 7.8901C10.5186 7.8901 11.1252 7.2835 11.1252 6.53523Z" fill="#000638"/>
<path id="Path 30" d="M14.3928 9.16528C14.6129 9.16528 14.7913 9.34369 14.7913 9.56377C14.7913 9.7701 14.6345 9.9398 14.4336 9.96021L14.3928 9.96227H5.94482C5.72474 9.96227 5.54633 9.78386 5.54633 9.56377C5.54633 9.35745 5.70313 9.18775 5.90407 9.16734L5.94482 9.16528H14.3928Z" fill="#000638"/>
<path id="Path 31" d="M9.77001 10.4405C9.99009 10.4405 10.1685 10.6189 10.1685 10.839C10.1685 11.0453 10.0117 11.215 9.81075 11.2354L9.77001 11.2374H4.82873C4.60865 11.2374 4.43024 11.059 4.43024 10.839C4.43024 10.6326 4.58704 10.4629 4.78798 10.4425L4.82873 10.4405H9.77001Z" fill="#000638"/>
<path id="Path 32" d="M13.1175 11.3968C13.3376 11.3968 13.516 11.5752 13.516 11.7953C13.516 12.0017 13.3592 12.1714 13.1583 12.1918L13.1175 12.1938H8.01684C7.79676 12.1938 7.61835 12.0154 7.61835 11.7953C7.61835 11.589 7.77515 11.4193 7.97609 11.3989L8.01684 11.3968H13.1175Z" fill="#000638"/>
<path id="Path 33" d="M8.97303 12.672C9.19311 12.672 9.37152 12.8504 9.37152 13.0705C9.37152 13.2768 9.21471 13.4465 9.01377 13.4669L8.97303 13.469H4.82873C4.60865 13.469 4.43024 13.2906 4.43024 13.0705C4.43024 12.8642 4.58704 12.6945 4.78798 12.6741L4.82873 12.672H8.97303Z" fill="#000638"/>
<path id="Path 34" d="M18.0118 11.1356C18.2001 11.0217 18.4451 11.082 18.559 11.2703L18.7063 11.5106L18.8469 11.7339C18.8698 11.7697 18.8925 11.8047 18.9148 11.8391L19.0456 12.0368C19.1305 12.1629 19.211 12.2776 19.287 12.3808L19.3975 12.527C19.4332 12.5729 19.4678 12.6159 19.5012 12.656C19.6005 12.7752 19.6872 12.8657 19.7584 12.9267L19.827 12.9818C19.8325 12.9872 19.8316 12.9896 19.8231 12.9904L19.812 12.9908H20.9278C21.1479 12.9908 21.3263 13.1692 21.3263 13.3893C21.3263 13.5956 21.1695 13.7653 20.9686 13.7857L20.9278 13.7878H19.812C19.4589 13.7878 19.0852 13.4697 18.5994 12.7957L18.4895 12.64L18.3758 12.4726L18.2579 12.2932C18.2379 12.2623 18.2177 12.2309 18.1973 12.199L18.0728 12.0016L17.9435 11.7921C17.9216 11.7562 17.8995 11.7197 17.8771 11.6828C17.7632 11.4945 17.8235 11.2495 18.0118 11.1356Z" fill="#000638"/>
<path id="Path 35" d="M16.3051 12.672C16.5252 12.672 16.7036 12.8504 16.7036 13.0705C16.7036 13.2768 16.5468 13.4465 16.3459 13.4669L16.3051 13.469H13.436C13.4238 13.469 13.4175 13.4716 13.4197 13.5073L13.4273 13.5738L13.4382 13.6455C13.4519 13.731 13.48 13.8196 13.5146 13.8914L13.5367 13.9328L13.8349 13.8813C14.8481 13.7155 15.7715 13.7887 16.8032 14.3086C17.6774 14.7491 17.9706 15.115 18.1708 15.774L18.1919 15.8457C18.2605 16.0859 18.2988 16.1527 18.438 16.2451C18.801 16.4857 19.5141 16.6592 20.5599 16.7457L20.8173 16.7648C20.8612 16.7677 20.9057 16.7705 20.9507 16.7731C21.1704 16.7858 21.3382 16.9743 21.3254 17.194C21.3127 17.4137 21.1242 17.5815 20.9045 17.5687C19.5137 17.4879 18.5529 17.2774 17.9977 16.9093C17.6882 16.7042 17.5579 16.4976 17.4474 16.1384L17.3922 15.9539C17.2567 15.5317 17.0844 15.3427 16.4446 15.0203C15.6223 14.606 14.8911 14.5328 14.0754 14.6506L13.6861 14.7162C13.5742 14.7354 13.5053 14.7441 13.436 14.7441C13.0123 14.7441 12.7314 14.2748 12.6512 13.7707C12.5608 13.2028 12.7931 12.7062 13.3746 12.6737L13.436 12.672H16.3051Z" fill="#000638"/>
<path id="Path 24" d="M18.4046 8.53551C18.5503 8.37876 18.7911 8.36664 18.9514 8.50041L18.9844 8.53132L19.8611 9.44769C19.9996 9.5924 20.0079 9.81519 19.8866 9.96924L19.8587 10.0012L16.9099 13.0297C16.7563 13.1874 16.504 13.1907 16.3464 13.0372C16.1992 12.8939 16.1864 12.6646 16.3102 12.5064L16.3388 12.4737L19.0191 9.72061L18.7003 9.38747L15.3223 13.023C15.1825 13.1734 14.9535 13.1915 14.7925 13.0714L14.7591 13.0436C14.6087 12.9038 14.5906 12.6748 14.7106 12.5138L14.7385 12.4804L18.4046 8.53551Z" fill="#000638"/>
<path id="Path 36" d="M14.7201 14.0958C14.8581 13.9244 15.1089 13.8972 15.2804 14.0352C15.4404 14.164 15.4747 14.3911 15.3663 14.5602L15.3409 14.5955L13.747 16.5758C13.7199 16.6094 13.6877 16.6383 13.6515 16.6615L13.6141 16.6827L11.3826 17.7935C11.0276 17.9702 10.6693 17.5795 10.8546 17.2465L10.875 17.2135L12.1095 15.389L12.7936 14.4326C12.9217 14.2536 13.1706 14.2123 13.3496 14.3404C13.5167 14.4599 13.5638 14.6846 13.4652 14.8596L13.4419 14.8963L12.7637 15.8441L12.3845 16.4041L13.1812 16.0075L14.7201 14.0958Z" fill="#000638"/>
<path id="Path 37" d="M16.5929 10.7049C16.8123 10.6877 17.0041 10.8517 17.0213 11.0711C17.0385 11.2905 16.8745 11.4823 16.6551 11.4994L16.2769 11.5303L15.8156 11.5721L15.4041 11.6144L15.1287 11.6463L14.8821 11.6782L14.6647 11.71L14.5361 11.7311L14.4207 11.7521L14.3187 11.7729L14.23 11.7936L14.1549 11.814C14.1436 11.8174 14.1327 11.8208 14.1225 11.8241L14.0679 11.8442C14.063 11.8462 14.0608 11.8474 14.059 11.861L14.0564 11.8922L14.0549 11.9178C14.0465 12.0647 14.0973 12.3 14.2146 12.6111C14.2922 12.817 14.1883 13.0469 13.9823 13.1245C13.7764 13.2022 13.5465 13.0982 13.4689 12.8923C13.1312 11.9969 13.1676 11.3565 13.7607 11.1088C13.8193 11.0843 13.8912 11.0606 13.9766 11.0375L14.0856 11.0101L14.2078 10.9832L14.3432 10.9569C14.3669 10.9526 14.3911 10.9482 14.4159 10.9439L14.5714 10.9184L14.7405 10.8933L15.0196 10.8564L15.3298 10.8204L15.554 10.7968L15.9168 10.7619L16.4505 10.7162C16.4974 10.7124 16.5449 10.7086 16.5929 10.7049Z" fill="#000638"/>
<path id="Path 38" fill-rule="evenodd" clip-rule="evenodd" d="M14.4113 14.7294L14.4596 14.5544C14.6686 13.8272 16.1777 13.6127 16.8294 14.004C17.1231 14.1804 17.4344 14.5879 17.7985 15.2471L17.9039 15.4423C17.9218 15.476 17.9397 15.5103 17.9578 15.5451L18.0679 15.7611C18.1947 16.0141 18.0248 16.3149 17.7427 16.3369L15.6988 16.4963C15.5952 16.5044 15.4926 16.4717 15.4127 16.4052L14.4564 15.6082C14.3655 15.5325 14.313 15.4203 14.313 15.302C14.313 15.1636 14.346 14.9777 14.4113 14.7294ZM16.8152 15.1549C16.6625 14.9215 16.5354 14.769 16.4413 14.7019L16.4191 14.6873C16.2638 14.5941 15.8853 14.6009 15.5956 14.6463L15.4917 14.665C15.344 14.6954 15.2368 14.7356 15.2256 14.7745L15.1838 14.9261L15.1514 15.0559L15.1339 15.135L15.7982 15.6887L17.076 15.5893L17.0388 15.5232C17.0229 15.4953 17.0072 15.4682 16.9917 15.4416L16.9011 15.2903L16.8152 15.1549Z" fill="#000638"/>
</g>
</g>
</svg>
