<svg width="24" height="24" viewBox="0 0 24 24" fill="none" xmlns="http://www.w3.org/2000/svg">
<g id="marche/augmentation">
<g id="Group 32">
<circle id="Ellipse 8" cx="16.56" cy="6" r="6" fill="#FFDDDD"/>
<path id="Path 49" d="M3.27753 12.4865L6.50637 9.36351L9.73522 12.4865L7.86611 12.4864L7.86637 15.84H7.06637V11.6865L7.75731 11.6864L6.50611 10.4765L5.25523 11.6864L5.94637 11.6865V15.84H5.14637L5.14611 12.4864L3.27753 12.4865Z" fill="#000638"/>
<path id="Path 49 Copy" d="M9.35721 9.60654L12.5861 6.48352L15.8149 9.60654L13.9458 9.60641L13.9461 12.96H13.1461V8.80654L13.837 8.80641L12.5858 7.59649L11.3349 8.80641L12.0261 8.80654V12.96H11.2261L11.2258 9.60641L9.35721 9.60654Z" fill="#000638"/>
<path id="Path 49 Copy 2" d="M15.4374 11.5265L18.6662 8.40352L21.8951 11.5265L20.026 11.5264L20.0262 14.88H19.2262V10.7265L19.9172 10.7264L18.666 9.51649L17.4151 10.7264L18.1062 10.7265V14.88H17.3062L17.306 11.5264L15.4374 11.5265Z" fill="#000638"/>
<path id="Path 50" d="M7.86598 17.12V18.4H7.06598V17.12H7.86598Z" fill="#000638"/>
<path id="Path 50 Copy" d="M13.9461 14.24V15.52H13.1461V14.24H13.9461Z" fill="#000638"/>
<path id="Path 50 Copy 3" d="M18.1063 15.52V16.8H17.3063V15.52H18.1063Z" fill="#000638"/>
<path id="Path 50 Copy 2" d="M12.0261 13.6V14.88H11.2261V13.6H12.0261Z" fill="#000638"/>
<path id="Path 51" d="M5.94597 16.48V17.12H5.14597V16.48H5.94597Z" fill="#000638"/>
<path id="Path 52" d="M5.94597 17.76V18.4H5.14597V17.76H5.94597Z" fill="#000638"/>
<path id="Path 52 Copy" d="M12.0261 15.52V16.16H11.2261V15.52H12.0261Z" fill="#000638"/>
<path id="Path 52 Copy 2" d="M13.9461 16.16V16.8H13.1461V16.16H13.9461Z" fill="#000638"/>
<path id="Path 52 Copy 3" d="M20.0263 16.16V16.8H19.2263V16.16H20.0263Z" fill="#000638"/>
<path id="Path 52 Copy 4" d="M20.0263 18.08V18.72H19.2263V18.08H20.0263Z" fill="#000638"/>
<path id="Path 52 Copy 5" d="M18.1063 17.44V18.08H17.3063V17.44H18.1063Z" fill="#000638"/>
</g>
</g>
</svg>
