<svg width="24" height="24" viewBox="0 0 24 24" fill="none" xmlns="http://www.w3.org/2000/svg">
<path d="M15.5684 14.7429C18.8765 14.7429 21.5582 12.0566 21.5582 8.74285C21.5582 5.42915 18.8765 2.74286 15.5684 2.74286C12.2603 2.74286 9.57858 5.42915 9.57858 8.74285C9.57858 12.0566 12.2603 14.7429 15.5684 14.7429Z" fill="#FFDDDD"/>
<g clip-path="url(#clip0_385:2384)">
<path d="M9.6 19.6L13.56 15.64C14.3431 14.8568 14.8764 13.859 15.0924 12.7727C15.3085 11.6864 15.1975 10.5605 14.7737 9.53725C14.3498 8.51401 13.632 7.63945 12.7111 7.02414C11.7902 6.40883 10.7075 6.08041 9.6 6.08041C8.49245 6.08041 7.40977 6.40883 6.48886 7.02414C5.56796 7.63945 4.85019 8.51401 4.42633 9.53725C4.00246 10.5605 3.89153 11.6864 4.10756 12.7727C4.32359 13.859 4.85688 14.8568 5.64 15.64L9.6 19.6ZM9.6 21.8624L4.5088 16.7712C3.50187 15.7643 2.81614 14.4813 2.53834 13.0847C2.26053 11.688 2.40312 10.2403 2.94807 8.92472C3.49303 7.6091 4.41587 6.48462 5.5999 5.69348C6.78393 4.90233 8.17598 4.48006 9.6 4.48006C11.024 4.48006 12.4161 4.90233 13.6001 5.69348C14.7841 6.48462 15.707 7.6091 16.2519 8.92472C16.7969 10.2403 16.9395 11.688 16.6617 13.0847C16.3839 14.4813 15.6981 15.7643 14.6912 16.7712L9.6 21.8624ZM9.6 13.28C10.0243 13.28 10.4313 13.1114 10.7314 12.8114C11.0314 12.5113 11.2 12.1043 11.2 11.68C11.2 11.2557 11.0314 10.8487 10.7314 10.5486C10.4313 10.2486 10.0243 10.08 9.6 10.08C9.17565 10.08 8.76869 10.2486 8.46863 10.5486C8.16857 10.8487 8 11.2557 8 11.68C8 12.1043 8.16857 12.5113 8.46863 12.8114C8.76869 13.1114 9.17565 13.28 9.6 13.28ZM9.6 14.88C8.7513 14.88 7.93737 14.5429 7.33726 13.9427C6.73714 13.3426 6.4 12.5287 6.4 11.68C6.4 10.8313 6.73714 10.0174 7.33726 9.41726C7.93737 8.81714 8.7513 8.48 9.6 8.48C10.4487 8.48 11.2626 8.81714 11.8627 9.41726C12.4629 10.0174 12.8 10.8313 12.8 11.68C12.8 12.5287 12.4629 13.3426 11.8627 13.9427C11.2626 14.5429 10.4487 14.88 9.6 14.88Z" fill="#000638"/>
</g>
<defs>
<clipPath id="clip0_385:2384">
<rect width="19.2" height="19.2" fill="white" transform="translate(0 2.88)"/>
</clipPath>
</defs>
</svg>
