<svg width="25" height="25" viewBox="0 0 25 25" fill="none" xmlns="http://www.w3.org/2000/svg">
<circle cx="17.5" cy="7.5" r="6.25" fill="#006ADC"/>
<path fill-rule="evenodd" clip-rule="evenodd" d="M5 4.85906C4.36988 4.85906 3.85906 5.36988 3.85906 6C3.85906 6.63012 4.36988 7.14094 5 7.14094C5.63012 7.14094 6.14094 6.63012 6.14094 6C6.14094 5.36988 5.63012 4.85906 5 4.85906ZM3 6C3 4.89543 3.89543 4 5 4C6.10457 4 7 4.89543 7 6C7 7.10457 6.10457 8 5 8C3.89543 8 3 7.10457 3 6Z" fill="#000638"/>
<path fill-rule="evenodd" clip-rule="evenodd" d="M11.5433 6.90381C11.2047 6.90381 10.9309 7.16963 10.9309 7.49835V8.13173C10.9309 8.38131 10.7225 8.58363 10.4655 8.58363C10.2084 8.58363 10 8.38131 10 8.13173V7.49835C10 6.67047 10.6906 6 11.5433 6H19.4567C20.3094 6 21 6.67047 21 7.49835V13.5016C21 14.3295 20.3094 15 19.4567 15H11.5433C10.6906 15 10 14.3295 10 13.5016V11.0232C10 10.7736 10.2084 10.5713 10.4655 10.5713C10.7225 10.5713 10.9309 10.7736 10.9309 11.0232V13.5016C10.9309 13.8304 11.2047 14.0962 11.5433 14.0962H19.4567C19.7953 14.0962 20.0691 13.8304 20.0691 13.5016V7.49835C20.0691 7.16963 19.7953 6.90381 19.4567 6.90381H11.5433Z" fill="#000638"/>
<path fill-rule="evenodd" clip-rule="evenodd" d="M3.3974 8.99498C3.14899 8.99498 2.94739 9.21684 2.94739 9.46759V13.1601C3.16505 13.1889 3.34328 13.3103 3.46362 13.45C3.60119 13.6097 3.69791 13.8316 3.69791 14.0756V19.8053C3.69791 19.9246 3.77448 20.005 3.88812 20.005C4.00177 20.005 4.07834 19.9246 4.07834 19.8053V15.8036C4.07834 15.5288 4.29042 15.3061 4.55204 15.3061H6.25513C6.51674 15.3061 6.72882 15.5288 6.72882 15.8036V19.8053C6.72882 19.9246 6.8054 20.005 6.91904 20.005C7.03268 20.005 7.10926 19.9246 7.10926 19.8053V19.8L7.13813 16.953V9.55854C7.13813 9.28378 7.35021 9.06105 7.61182 9.06105H10.9891C10.9978 9.06105 11.0081 9.05956 11.0188 9.05608C11.0294 9.0526 11.0381 9.04789 11.0442 9.0434C11.0473 9.04115 11.0493 9.03937 11.0506 9.03813L11.0517 9.03354C11.0517 9.03345 11.0517 9.0336 11.0517 9.03354C11.0518 9.03318 11.052 9.03276 11.0516 9.03119C11.051 9.02819 11.0487 9.02163 11.0428 9.01379C11.0369 9.00588 11.03 9.00036 11.0245 8.99739C11.0219 8.99602 11.0202 8.99543 11.0192 8.99519C11.0184 8.99497 11.0181 8.99498 11.018 8.99498H6.39867L5.759 9.69165C5.66865 9.79006 5.54372 9.84508 5.41355 9.8438C5.28339 9.84251 5.15947 9.78502 5.07089 9.68485L4.46094 8.99498H3.3974ZM11.0522 9.03618C11.0526 9.03577 11.0522 9.03619 11.0522 9.03618V9.03618ZM2 9.46759C2 8.68761 2.60665 8 3.3974 8H4.6675C4.79922 8 4.925 8.0576 5.01463 8.15897L5.42451 8.62256L5.85641 8.15216C5.94569 8.05493 6.06878 8 6.1974 8H11.018C11.6306 8 12.136 8.62643 11.967 9.29025C11.844 9.79594 11.3884 10.056 10.9891 10.056H8.08552V16.9609L8.05665 19.8082C8.05519 20.4756 7.55498 21 6.91904 21C6.28217 21 5.78143 20.4741 5.78143 19.8053V16.3011H5.02574V19.8053C5.02574 20.4741 4.525 21 3.88812 21C3.25125 21 2.75051 20.4741 2.75051 19.8053V14.1426C2.36974 14.0959 2 13.7823 2 13.2874V9.46759Z" fill="#000638"/>
<path fill-rule="evenodd" clip-rule="evenodd" d="M15.2959 14.0357C15.4745 13.9584 15.6779 14.0091 15.8087 14.1633L20.8746 20.1369C21.0505 20.3442 21.0401 20.669 20.8514 20.8622C20.6627 21.0555 20.3671 21.044 20.1913 20.8367L15.9341 15.8168V20.4868C15.9341 20.7702 15.725 21 15.467 21C15.2091 21 15 20.7702 15 20.4868V14.5132C15 14.3024 15.1174 14.113 15.2959 14.0357Z" fill="#000638"/>
<path fill-rule="evenodd" clip-rule="evenodd" d="M15.8514 14.1378C16.0401 14.331 16.0505 14.6558 15.8746 14.8631L10.8087 20.8367C10.6329 21.044 10.3373 21.0555 10.1486 20.8622C9.95993 20.669 9.94952 20.3442 10.1254 20.1369L15.1913 14.1633C15.3671 13.956 15.6627 13.9445 15.8514 14.1378Z" fill="#000638"/>
</svg>
