<svg width="24" height="24" viewBox="0 0 24 24" fill="none" xmlns="http://www.w3.org/2000/svg">
<g id="marche/main">
<g id="Group 33">
<path id="Oval" d="M21.1199 12.3736C20.6475 12.3736 20.2645 12.7566 20.2645 13.229C20.2645 13.7014 20.6475 14.0844 21.1199 14.0844C21.5923 14.0844 21.9753 13.7014 21.9753 13.229C21.9753 12.7566 21.5923 12.3736 21.1199 12.3736Z" fill="#000638"/>
<circle id="Ellipse 7" cx="16.56" cy="6.96001" r="6" fill="#FFDDDD"/>
<path id="Path 9" d="M2.87515 7.73488C2.95951 7.56898 3.14579 7.48484 3.32339 7.52682L3.36418 7.53877L6.42222 8.61215C6.56913 8.66372 6.6715 8.79517 6.68754 8.94755L6.68975 8.98958L6.68961 9.7651L6.72152 9.76439C7.25876 9.74483 7.64102 9.68725 7.85538 9.60042L7.91173 9.57505L9.18228 8.91823L9.41951 8.79889L9.72017 8.6517L9.90498 8.56419L10.0777 8.48523L10.2387 8.41486L10.3884 8.35313L10.5271 8.30008C10.7714 8.21081 10.9623 8.16554 11.1096 8.16554C11.6932 8.16554 12.0376 8.55119 12.0376 9.15684C12.0376 9.33983 11.9134 9.49949 11.736 9.54453L11.6287 9.57236L11.4244 9.62874C10.6019 9.86545 10.1388 10.1229 10.0433 10.3356C9.9372 10.5719 9.74263 10.8006 9.41818 11.1084L9.21122 11.3L8.77999 11.6921L8.70206 11.7665L8.65656 11.8125L8.61202 11.8589C8.55849 11.9152 8.5173 11.9632 8.48881 12.002L8.46982 12.0293C8.46688 12.0338 8.46515 12.0362 8.46415 12.036L8.46501 12.1018C8.46874 12.2085 8.4778 12.3227 8.49073 12.4289L8.50833 12.5536L8.51393 12.5869L8.5812 12.6055C8.75806 12.651 8.93016 12.6776 9.08261 12.6772C9.24458 12.6768 9.36438 12.6458 9.43583 12.5913C9.49803 12.5439 9.57306 12.479 9.65867 12.3993L9.76632 12.2967L9.88325 12.1808L10.0741 11.9843L10.2104 11.8397L10.2809 11.7637C10.3662 11.6713 10.4508 11.5781 10.5328 11.4864L10.8061 11.1759C10.8813 11.0883 10.9901 11.038 11.1042 11.0364L11.3563 11.0539C11.5179 11.0641 11.6794 11.07 11.8282 11.0698L11.9301 11.0683L12.0236 11.0647L12.1743 11.0545L12.2706 11.0454C12.3278 11.0045 12.3649 10.9439 12.383 10.8435L12.3897 10.7981C12.445 10.3131 13.1415 10.3374 13.185 10.7975L13.1871 10.8434L13.1869 11.1859L14.2445 12.0842C14.4017 12.2177 14.43 12.4464 14.3168 12.6132L14.2904 12.648C14.1569 12.8051 13.9281 12.8335 13.7613 12.7203L13.7266 12.6939L12.6259 11.7587L12.6088 11.7672C12.4399 11.8399 12.2166 11.8651 11.9139 11.8692L11.8294 11.8698C11.7174 11.87 11.6011 11.8671 11.4834 11.8619L11.279 11.8505L11.2537 11.8795C11.1721 11.972 11.087 12.0672 11.0002 12.1628L10.8688 12.3063L10.7066 12.4801C10.6803 12.508 10.6542 12.5354 10.6286 12.5622L10.4788 12.7166C10.2606 12.9378 10.0722 13.1121 9.92083 13.2275C9.69124 13.4025 9.40626 13.4764 9.08457 13.4772C8.89338 13.4777 8.69766 13.4524 8.5004 13.4087L8.35855 13.3741L8.09064 13.2927C7.83611 13.2169 7.72528 12.9229 7.68405 12.5053L7.67326 12.3695C7.67182 12.3462 7.67055 12.3226 7.66944 12.2987L7.66461 12.1517L7.66334 11.9676L7.66539 11.91C7.67314 11.7804 7.70389 11.6818 7.80328 11.5509L7.85022 11.4926C7.85879 11.4825 7.86774 11.4722 7.87709 11.4617L7.93813 11.3955L8.00958 11.3225L8.09223 11.2418L8.18688 11.1522L8.3531 10.9986L8.79627 10.5949L8.91421 10.4832C8.93261 10.4653 8.95039 10.4479 8.96755 10.4309L9.06308 10.3336C9.18061 10.2101 9.2589 10.1115 9.29982 10.0354L9.31341 10.008C9.37808 9.86392 9.47799 9.73109 9.61335 9.60774L9.64321 9.58142L9.50748 9.65044L8.38062 10.2342L8.23264 10.3084C7.89884 10.4646 7.38251 10.5465 6.66522 10.5668L6.41866 10.5712C6.37631 10.5716 6.33335 10.5718 6.28975 10.5718C6.08264 10.5718 5.9123 10.4144 5.89181 10.2127L5.88975 10.1718L5.88961 9.27294L3.42945 8.40926L3.1093 9.03938C3.01584 9.22317 2.79984 9.30377 2.61135 9.23228L2.57144 9.21462C2.38765 9.12116 2.30705 8.90516 2.37853 8.71668L2.3962 8.67676L2.87515 7.73488Z" fill="#000638"/>
<path id="Path 11" d="M20.5078 6.62982C20.6967 6.56066 20.905 6.64273 20.9979 6.81628L21.0159 6.85485L22.2495 9.89075C22.3326 10.0954 22.2341 10.3287 22.0295 10.4119C21.8376 10.4899 21.6205 10.4082 21.5256 10.229L21.5083 10.1919L20.4199 7.51359L17.9389 8.42239L17.9304 8.53053L17.9264 8.6457L17.9273 8.67123L17.9281 8.67519L17.9686 8.75092L18.0539 8.90061L18.1684 9.09271C18.1828 9.11637 18.1976 9.1408 18.213 9.16599C18.4193 9.504 18.0638 9.89533 17.715 9.74274L17.6802 9.72564L17.1239 9.42239L11.8604 9.42268C11.6533 9.42268 11.483 9.26528 11.4625 9.06357L11.4604 9.02268C11.4604 8.81557 11.6178 8.64522 11.8196 8.62474L11.8604 8.62268L17.1293 8.62239L17.1292 8.61632C17.1276 8.48614 17.14 8.33584 17.1638 8.16086L17.1767 8.0713C17.1963 7.94116 17.2784 7.82997 17.3947 7.77238L17.4347 7.75521L20.5078 6.62982Z" fill="#000638"/>
<path id="Path" d="M1.97064 11.4961C2.17319 11.5843 2.2659 11.82 2.17772 12.0225L1.96665 12.5141L1.78783 12.9438L1.69641 13.1704L1.57112 13.493L1.53065 13.6021L1.49579 13.6994L1.45413 13.8227L1.43354 13.8895L1.41875 13.9435L1.40984 13.9847C1.40885 13.9905 1.4081 13.9957 1.4076 14.0004L1.40686 14.0127C1.40686 14.0766 1.40232 14.1243 1.38975 14.1884L1.3706 14.2752L1.34409 14.386L1.3361 14.4254L1.33099 14.4611L1.33829 14.4685C1.37156 14.498 1.44224 14.536 1.55954 14.5762L1.6127 14.5936C1.69873 14.6203 1.78856 14.6463 1.88245 14.6718L2.0695 14.7205L2.29699 14.7729L2.82565 14.8868L3.54883 15.0409L3.74453 15.0861L3.78632 15.0975C3.91144 15.1364 4.11038 15.0311 4.25326 14.8191L4.29614 14.7493L4.34486 14.66L4.43123 14.4919L4.5733 14.2037L4.83512 13.6555L4.9715 13.365L5.18689 12.8975L5.42571 12.3856C5.64624 11.9147 6.33702 12.2203 6.16803 12.6825L6.15242 12.7203L6.15083 12.7226L5.86921 13.3337L5.76155 13.5726L5.61897 13.8966L5.53655 14.0895L5.46424 14.2641L5.40468 14.4134L5.35645 14.5403C5.34917 14.56 5.34228 14.5789 5.33577 14.5972L5.30134 14.6976L5.27621 14.7798L5.26731 14.8122L5.27345 14.8462C5.28169 14.9141 5.27264 14.9846 5.24435 15.0508L5.22505 15.09C5.16014 15.2056 5.04639 15.2764 4.92417 15.2913L4.89794 15.2934C4.5873 15.7359 4.09297 15.9964 3.60917 15.8782L3.53362 15.8572L3.35741 15.8171L2.30916 15.5949L1.97923 15.5213L1.8285 15.4849C1.6688 15.4441 1.51814 15.4019 1.37529 15.3575C0.774206 15.1707 0.495409 14.8415 0.535299 14.3845C0.540838 14.3211 0.549696 14.2702 0.566557 14.1972L0.595047 14.0782L0.605326 14.0283L0.606857 14.0127C0.606857 13.978 0.610741 13.937 0.618588 13.8896L0.633341 13.8136C0.636298 13.8001 0.639506 13.7861 0.642965 13.7718L0.666745 13.6806L0.696617 13.579L0.732641 13.4668L0.774875 13.3437L0.82338 13.2094L0.939434 12.9063L1.0071 12.7371L1.16202 12.3618L1.34343 11.9358L1.44422 11.7032C1.53241 11.5006 1.76809 11.4079 1.97064 11.4961Z" fill="#000638"/>
<path id="Path 13" d="M18.1591 13.736L18.1535 13.7996C18.1421 13.9004 18.1237 14.0012 18.0983 14.1019C17.9841 14.5545 17.7773 14.8343 17.395 14.9685L17.3312 14.9888C17.3313 15.0062 17.3322 15.0233 17.3342 15.0428L17.3436 15.1106L17.3595 15.1977C17.457 15.7037 17.407 15.9957 16.9866 16.2714C16.5362 16.5667 16.1671 16.7269 15.8425 16.6822L15.7971 16.6742L15.7824 16.7249C15.7277 16.8975 15.6563 17.0573 15.5681 17.2037L15.5131 17.2899C15.2809 17.6344 14.99 17.7374 14.6233 17.6483L14.6042 17.6429L14.6037 17.6464C14.5663 17.8531 14.4473 18.0369 14.2507 18.178L14.1999 18.2123C13.9227 18.3894 13.6699 18.4605 13.3994 18.4316L13.3728 18.4278L13.3673 18.45C13.2867 18.7311 13.0201 18.9346 12.666 19.0877L12.5941 19.1176C12.4462 19.1769 12.2979 19.2197 12.1741 19.2368C12.0861 19.2489 12.0063 19.2498 11.926 19.2317C11.7746 19.1975 11.6404 19.0963 11.5928 18.9358L11.5911 18.9286L11.5553 18.8855L11.4885 18.8115L11.4018 18.7214L11.3122 18.6321L11.2066 18.5298L11.0873 18.4169L10.8827 18.2279L10.6476 18.0154L10.3819 17.7793C10.2162 17.6332 10.2003 17.3804 10.3464 17.2147C10.4925 17.049 10.7453 17.0332 10.911 17.1793L11.3863 17.602L11.5829 17.781L11.7541 17.9408L11.8548 18.0375L11.9451 18.1272L12.0256 18.2102L12.0965 18.2871C12.1076 18.2995 12.1182 18.3116 12.1285 18.3235L12.186 18.3924L12.1997 18.4099L12.2511 18.3925L12.2964 18.3751C12.3765 18.343 12.4522 18.3053 12.5132 18.2674L12.5251 18.2592L12.5006 18.228C12.4792 18.2016 12.4548 18.1731 12.4274 18.1425L12.3362 18.0447L12.2832 17.9907L12.1651 17.8754L12.031 17.7504L11.8807 17.6157L11.7144 17.4713L11.5098 17.2989L11.309 17.1364L11.1153 16.9777C10.7066 16.6411 11.2058 16.0259 11.6194 16.3564L11.8483 16.5407L12.0755 16.727L12.3947 16.9786L12.6169 17.148L12.7484 17.245L12.8663 17.3293L12.9707 17.4007L13.0613 17.4591C13.0752 17.4678 13.0886 17.4759 13.1014 17.4834L13.1675 17.5205C13.4409 17.6629 13.5429 17.6732 13.7282 17.5635L13.7693 17.5382C13.8031 17.5166 13.8184 17.508 13.8195 17.4912L13.8173 17.4755L12.2899 15.8743C11.934 15.5012 12.4648 14.9682 12.8358 15.2907L12.864 15.3172L13.1226 15.576L13.285 15.7346L13.4391 15.8821C13.4642 15.9058 13.4888 15.929 13.5132 15.9517L13.655 16.0825L13.7885 16.202L13.9136 16.3103C13.9338 16.3274 13.9536 16.3441 13.973 16.3602L14.0855 16.4516L14.1894 16.5316C14.2557 16.5812 14.3164 16.6231 14.3712 16.6574C14.5762 16.7858 14.718 16.8521 14.8016 16.8686L14.8315 16.8734L14.84 16.8581L14.8497 16.8428C14.9167 16.7434 14.9715 16.63 15.0138 16.5018L15.0323 16.4397L13.1444 14.3364C12.8107 13.9647 13.3186 13.4535 13.6883 13.7535L13.718 13.7796L15.6892 15.6467L15.9346 15.8715C15.9708 15.9032 16.1546 15.8521 16.4876 15.6413L16.574 15.5853C16.5993 15.5677 16.6075 15.5547 16.6027 15.5093L16.5954 15.4616L16.5739 15.349C16.5523 15.2365 16.5399 15.1605 16.5346 15.0846L16.5319 15.024L16.5263 15.0207C16.5043 14.9936 16.4699 14.9612 16.4242 14.9246L16.3663 14.8808L16.14 14.7243C16.1133 14.7048 16.0906 14.6867 16.0687 14.6663C16.0145 14.6158 15.9742 14.565 15.9457 14.4796C15.877 14.274 15.9782 14.0625 16.1639 13.9769C16.2355 13.9439 16.2951 13.9358 16.3638 13.9358C16.4538 13.9358 16.537 13.9541 16.6244 13.9869L16.7197 14.027L16.8001 14.067L16.9852 14.1646C16.9962 14.1701 17.0063 14.1751 17.0159 14.1796L17.0677 14.2019L17.1008 14.2143C17.111 14.2182 17.112 14.2196 17.1043 14.2219C17.2228 14.1871 17.2655 14.1327 17.3226 13.9061C17.3666 13.732 17.378 13.5609 17.3576 13.3903C17.3311 13.1688 17.4904 12.9715 17.7068 12.9456L17.748 12.9429L18.2403 12.9344L18.158 11.8945C18.1201 11.4161 18.7916 11.2973 18.9346 11.73L18.9464 11.7722L19.0125 12.049C19.0235 12.0938 19.0345 12.1379 19.0454 12.1814L19.1112 12.4346C19.144 12.5572 19.1766 12.6739 19.2092 12.7847L19.2741 12.9982C19.382 13.3409 19.4882 13.6172 19.5919 13.826L19.6517 13.9433C19.8616 14.3417 19.9777 14.3993 20.3385 14.3993C20.3642 14.3993 20.3949 14.3969 20.4305 14.3921L20.5082 14.3792L20.5988 14.3599C20.6149 14.3562 20.6316 14.3522 20.6488 14.3479L20.7585 14.319C20.7778 14.3137 20.7976 14.308 20.818 14.3022L20.9463 14.2637L21.087 14.219L21.2398 14.1678L21.4047 14.1104L21.6742 14.0124L21.8685 13.9392L22.1815 13.8177L22.3898 13.7344L22.39 12.9386C22.39 12.7315 22.5474 12.5612 22.7491 12.5407L22.79 12.5386C22.9971 12.5386 23.1674 12.696 23.1879 12.8977L23.19 12.9386V14.004C23.19 14.1663 23.0919 14.3126 22.9417 14.3741L22.564 14.5269L22.3279 14.6199L22.1043 14.706L21.893 14.7851L21.6938 14.8572L21.5067 14.9224L21.3313 14.9807L21.1677 15.0321L21.0157 15.0765L20.8751 15.1141C20.6502 15.171 20.4723 15.1993 20.3385 15.1993C19.6294 15.1993 19.2566 14.9493 18.8754 14.182C18.8247 14.0799 18.7743 13.9665 18.7242 13.8418L18.6794 13.727L18.1591 13.736Z" fill="#000638"/>
<path id="Path 14" d="M5.12734 13.8091C5.21996 13.6239 5.43692 13.5419 5.62649 13.6138L5.66399 13.6302L6.87835 14.2374C7.07594 14.3362 7.15603 14.5765 7.05724 14.7741C6.96462 14.9593 6.74765 15.0413 6.55809 14.9694L6.52058 14.9529L5.30622 14.3458C5.10863 14.247 5.02854 14.0067 5.12734 13.8091Z" fill="#000638"/>
<path id="Path 15" d="M16.2354 11.5051C16.433 11.4063 16.6733 11.4864 16.7721 11.684C16.8647 11.8692 16.8001 12.092 16.6289 12.2005L16.5932 12.2206L15.3788 12.8278C15.1812 12.9266 14.941 12.8465 14.8422 12.6489C14.7496 12.4637 14.8142 12.2409 14.9854 12.1324L15.0211 12.1123L16.2354 11.5051Z" fill="#000638"/>
<path id="Oval_2" fill-rule="evenodd" clip-rule="evenodd" d="M5.99622 15.2024C5.99622 14.667 6.3501 14.1952 6.8516 14.1952C7.3531 14.1952 7.70698 14.667 7.70698 15.2024C7.70698 15.7377 7.3531 16.2095 6.8516 16.2095C6.3501 16.2095 5.99622 15.7377 5.99622 15.2024ZM6.85934 15.0057L6.85174 14.9952C6.85157 14.9952 6.85076 14.9961 6.84944 14.9978L6.83671 15.0188C6.8203 15.0501 6.79636 15.1121 6.79636 15.2024C6.79636 15.2926 6.8203 15.3546 6.83671 15.3859L6.84944 15.4069L6.85174 15.4095L6.85934 15.399L6.87545 15.3677C6.89049 15.3331 6.90712 15.2775 6.90712 15.2024C6.90712 15.0971 6.87453 15.0302 6.85934 15.0057Z" fill="#000638"/>
<path id="Oval Copy 3" fill-rule="evenodd" clip-rule="evenodd" d="M8.72809 17.3275C8.72809 16.7712 9.17902 16.3203 9.73527 16.3203C10.2915 16.3203 10.7424 16.7712 10.7424 17.3275C10.7424 17.8837 10.2915 18.3347 9.73527 18.3347C9.17902 18.3347 8.72809 17.8837 8.72809 17.3275ZM9.94244 17.3275C9.94244 17.2131 9.84968 17.1203 9.73526 17.1203C9.62084 17.1203 9.52808 17.2131 9.52808 17.3275C9.52808 17.4419 9.62084 17.5347 9.73526 17.5347C9.84968 17.5347 9.94244 17.4419 9.94244 17.3275Z" fill="#000638"/>
<path id="Oval Copy 4" fill-rule="evenodd" clip-rule="evenodd" d="M9.94263 18.0865C9.94263 17.585 10.4145 17.2311 10.9498 17.2311C11.4851 17.2311 11.957 17.585 11.957 18.0865C11.957 18.588 11.4851 18.9418 10.9498 18.9418C10.4145 18.9418 9.94263 18.588 9.94263 18.0865ZM11.1464 18.0789C11.1219 18.0637 11.0551 18.0311 10.9498 18.0311C10.8445 18.0311 10.7777 18.0637 10.7532 18.0789L10.7426 18.0865C10.7426 18.0866 10.7435 18.0874 10.7453 18.0888L10.7663 18.1015C10.7976 18.1179 10.8596 18.1418 10.9498 18.1418C11.0551 18.1418 11.1219 18.1093 11.1464 18.0941L11.157 18.0865L11.1464 18.0789Z" fill="#000638"/>
<path id="Oval Copy 2" fill-rule="evenodd" clip-rule="evenodd" d="M6.90704 16.1131C6.90704 15.3892 7.49389 14.8024 8.21781 14.8024C8.94173 14.8024 9.52858 15.3892 9.52858 16.1131C9.52858 16.837 8.94173 17.4239 8.21781 17.4239C7.49389 17.4239 6.90704 16.837 6.90704 16.1131ZM8.72857 16.1131C8.72857 15.831 8.4999 15.6024 8.21781 15.6024C7.93572 15.6024 7.70704 15.831 7.70704 16.1131C7.70704 16.3952 7.93572 16.6239 8.21781 16.6239C8.4999 16.6239 8.72857 16.3952 8.72857 16.1131Z" fill="#000638"/>
</g>
</g>
</svg>
