<svg width="25" height="24" viewBox="0 0 25 24" fill="none" xmlns="http://www.w3.org/2000/svg">
<ellipse cx="17.674" cy="6.69474" rx="5.99971" ry="6" fill="#FFDDDD"/>
<path d="M9.64001 21.44C5.22161 21.44 1.64001 17.8584 1.64001 13.44C1.64001 9.0216 5.22161 5.44 9.64001 5.44C14.0584 5.44 17.64 9.0216 17.64 13.44C17.64 17.8584 14.0584 21.44 9.64001 21.44ZM9.64001 19.84C11.3374 19.84 12.9653 19.1657 14.1655 17.9655C15.3657 16.7652 16.04 15.1374 16.04 13.44C16.04 11.7426 15.3657 10.1147 14.1655 8.91451C12.9653 7.71428 11.3374 7.04 9.64001 7.04C7.94263 7.04 6.31476 7.71428 5.11453 8.91451C3.9143 10.1147 3.24001 11.7426 3.24001 13.44C3.24001 15.1374 3.9143 16.7652 5.11453 17.9655C6.31476 19.1657 7.94263 19.84 9.64001 19.84ZM5.64001 14.24H7.24001C7.24001 14.8765 7.49287 15.487 7.94296 15.9371C8.39304 16.3871 9.00349 16.64 9.64001 16.64C10.2765 16.64 10.887 16.3871 11.3371 15.9371C11.7872 15.487 12.04 14.8765 12.04 14.24H13.64C13.64 15.3009 13.2186 16.3183 12.4684 17.0684C11.7183 17.8186 10.7009 18.24 9.64001 18.24C8.57915 18.24 7.56173 17.8186 6.81159 17.0684C6.06144 16.3183 5.64001 15.3009 5.64001 14.24ZM6.44001 12.64C6.12175 12.64 5.81653 12.5136 5.59149 12.2885C5.36644 12.0635 5.24001 11.7583 5.24001 11.44C5.24001 11.1217 5.36644 10.8165 5.59149 10.5915C5.81653 10.3664 6.12175 10.24 6.44001 10.24C6.75827 10.24 7.0635 10.3664 7.28854 10.5915C7.51359 10.8165 7.64001 11.1217 7.64001 11.44C7.64001 11.7583 7.51359 12.0635 7.28854 12.2885C7.0635 12.5136 6.75827 12.64 6.44001 12.64ZM12.84 12.64C12.5218 12.64 12.2165 12.5136 11.9915 12.2885C11.7664 12.0635 11.64 11.7583 11.64 11.44C11.64 11.1217 11.7664 10.8165 11.9915 10.5915C12.2165 10.3664 12.5218 10.24 12.84 10.24C13.1583 10.24 13.4635 10.3664 13.6885 10.5915C13.9136 10.8165 14.04 11.1217 14.04 11.44C14.04 11.7583 13.9136 12.0635 13.6885 12.2885C13.4635 12.5136 13.1583 12.64 12.84 12.64Z" fill="black"/>
</svg>
