<svg width="24" height="25" viewBox="0 0 24 25" fill="none" xmlns="http://www.w3.org/2000/svg">
<g id="marche/loupe">
<g id="Group 9">
<ellipse id="Oval" cx="16.6402" cy="6.03999" rx="6" ry="6" fill="#FFDDDD"/>
<path id="Shape" fill-rule="evenodd" clip-rule="evenodd" d="M11.28 1.88C11.8023 1.88 12.3179 1.93389 12.821 2.03987C13.0371 2.08541 13.1755 2.29757 13.1299 2.51374C13.0844 2.7299 12.8722 2.86823 12.656 2.82268C12.2071 2.72811 11.7468 2.68 11.28 2.68C7.61283 2.68 4.64 5.65283 4.64 9.32C4.64 12.6892 7.16303 15.514 10.4794 15.9123C10.6987 15.9386 10.8552 16.1378 10.8288 16.3571C10.8025 16.5764 10.6033 16.7329 10.384 16.7066C6.66675 16.2601 3.84 13.0953 3.84 9.32C3.84 5.21101 7.171 1.88 11.28 1.88ZM16.0855 14.4802C16.2267 14.6501 16.2035 14.9023 16.0337 15.0435C14.8478 16.0295 13.3847 16.6274 11.8244 16.7404C11.6041 16.7563 11.4126 16.5906 11.3966 16.3703C11.3807 16.15 11.5463 15.9584 11.7667 15.9425C13.1589 15.8417 14.4637 15.3084 15.5222 14.4283C15.6921 14.2871 15.9443 14.3103 16.0855 14.4802ZM18.72 9.32C18.72 6.41947 17.045 3.82122 14.4715 2.59744C14.272 2.50257 14.0333 2.58739 13.9385 2.78689C13.8436 2.9864 13.9284 3.22504 14.1279 3.31991C16.4251 4.41232 17.92 6.73109 17.92 9.32C17.92 10.8532 17.3993 12.3057 16.459 13.4759C16.3206 13.6481 16.348 13.8999 16.5202 14.0383C16.6924 14.1767 16.9442 14.1492 17.0826 13.977C18.136 12.666 18.72 11.0372 18.72 9.32Z" fill="#000638"/>
<path id="Oval Copy" fill-rule="evenodd" clip-rule="evenodd" d="M5.44001 9.31999C5.44001 6.09465 8.05466 3.48 11.28 3.48C14.5053 3.48 17.12 6.09465 17.12 9.31999C17.12 12.5453 14.5053 15.16 11.28 15.16C8.05466 15.16 5.44001 12.5453 5.44001 9.31999ZM16.32 9.31999C16.32 6.53648 14.0635 4.27999 11.28 4.27999C8.49648 4.27999 6.24 6.53648 6.24 9.31999C6.24 12.1035 8.49648 14.36 11.28 14.36C14.0635 14.36 16.32 12.1035 16.32 9.31999Z" fill="#000638"/>
<path id="Oval_2" fill-rule="evenodd" clip-rule="evenodd" d="M7.68 6.27999C7.68 5.79398 8.07399 5.39999 8.56 5.39999C9.04601 5.39999 9.44 5.79398 9.44 6.27999C9.44 6.76601 9.04601 7.15999 8.56 7.15999C8.07399 7.15999 7.68 6.76601 7.68 6.27999ZM8.64 6.27999C8.64 6.23581 8.60418 6.19999 8.56 6.19999C8.51582 6.19999 8.48 6.23581 8.48 6.27999C8.48 6.32418 8.51582 6.35999 8.56 6.35999C8.60418 6.35999 8.64 6.32418 8.64 6.27999Z" fill="#000638"/>
<path id="Path 19" d="M10.1552 5.28807C10.8847 4.95794 11.5841 4.83964 12.2476 4.94134C12.9387 5.04728 13.5069 5.40824 13.9331 6.00703C14.0612 6.18701 14.0192 6.43676 13.8392 6.56487C13.6592 6.69297 13.4095 6.65093 13.2814 6.47095C12.9783 6.0452 12.5997 5.80465 12.1264 5.7321C11.6254 5.65531 11.0803 5.74752 10.485 6.01691C10.2838 6.10799 10.0468 6.01867 9.95569 5.81741C9.86461 5.61614 9.95393 5.37915 10.1552 5.28807Z" fill="#000638"/>
<path id="Path 20" fill-rule="evenodd" clip-rule="evenodd" d="M16.0813 16.0417L17.7828 14.1531C17.9395 13.9791 18.2114 13.9763 18.3716 14.1471L21.91 17.9187C22.4612 18.5571 22.4612 19.2689 21.9107 19.91C21.3509 20.562 20.5944 20.6192 19.7863 20.1092C19.7637 20.0949 19.7427 20.0785 19.7234 20.0601L16.1021 16.5986C15.9457 16.4491 15.9365 16.2024 16.0813 16.0417ZM18.0855 15.0115L16.9351 16.2883L20.2456 19.4525L20.2737 19.4697C20.7112 19.7287 21.0054 19.7079 21.268 19.4286L21.3036 19.3889C21.5965 19.0478 21.5965 18.7799 21.3154 18.4539L18.0855 15.0115Z" fill="#000638"/>
<path id="Path 21" fill-rule="evenodd" clip-rule="evenodd" d="M15.7337 14.76L16.7202 15.6628L17.7895 14.76L16.7202 13.72" fill="#000638"/>
<path id="Path 22" d="M18.5762 15.0193C18.7199 14.8515 18.9724 14.8319 19.1402 14.9755C19.2968 15.1096 19.3244 15.3385 19.2105 15.5049L19.184 15.5395L17.5431 17.4565C17.3994 17.6243 17.1469 17.6439 16.9791 17.5002C16.8225 17.3662 16.795 17.1373 16.9088 16.9709L16.9353 16.9362L18.5762 15.0193Z" fill="#000638"/>
</g>
</g>
</svg>
