<svg width="24" height="24" viewBox="0 0 24 24" fill="none" xmlns="http://www.w3.org/2000/svg">
<ellipse cx="16.8" cy="7.2" rx="6" ry="6" fill="#FFDDDD"/>
<path d="M14.56 16.036V21.5336C14.56 21.6044 14.5413 21.6739 14.5057 21.735C14.47 21.7962 14.4188 21.8468 14.3573 21.8817C14.2957 21.9166 14.2259 21.9345 14.1552 21.9337C14.0844 21.9328 14.0151 21.9132 13.9544 21.8768L10.56 19.84L7.16563 21.8768C7.10487 21.9132 7.03552 21.9328 6.96469 21.9337C6.89385 21.9345 6.82407 21.9165 6.76247 21.8815C6.70087 21.8465 6.64967 21.7958 6.6141 21.7345C6.57854 21.6733 6.55988 21.6036 6.56003 21.5328V16.0368C5.52495 15.2081 4.77283 14.0783 4.4076 12.8036C4.04237 11.529 4.08208 10.1723 4.52123 8.92118C4.96038 7.67005 5.77728 6.5862 6.85906 5.81943C7.94084 5.05265 9.23407 4.64081 10.56 4.64081C11.886 4.64081 13.1792 5.05265 14.261 5.81943C15.3428 6.5862 16.1597 7.67005 16.5988 8.92118C17.038 10.1723 17.0777 11.529 16.7125 12.8036C16.3472 14.0783 15.5951 15.2081 14.56 16.0368V16.036ZM8.16003 16.9744V19.4144L10.56 17.9744L12.96 19.4144V16.9744C12.1975 17.2828 11.3826 17.4409 10.56 17.44C9.73751 17.4409 8.92256 17.2828 8.16003 16.9744ZM10.56 15.84C11.8331 15.84 13.054 15.3343 13.9541 14.4341C14.8543 13.5339 15.36 12.313 15.36 11.04C15.36 9.76697 14.8543 8.54607 13.9541 7.64589C13.054 6.74572 11.8331 6.24001 10.56 6.24001C9.28699 6.24001 8.0661 6.74572 7.16592 7.64589C6.26575 8.54607 5.76003 9.76697 5.76003 11.04C5.76003 12.313 6.26575 13.5339 7.16592 14.4341C8.0661 15.3343 9.28699 15.84 10.56 15.84Z" fill="#000638"/>
</svg>
