<svg width="24" height="24" viewBox="0 0 24 24" fill="none" xmlns="http://www.w3.org/2000/svg">
<g id="marche/handicap">
<g id="Group 14">
<circle id="Ellipse 10" cx="13.6802" cy="6.96001" r="6" fill="#FFDDDD"/>
<path id="Path 39" d="M19.4502 13.5541C19.6711 13.5541 19.8502 13.7332 19.8502 13.9541C19.8502 14.1612 19.6928 14.3315 19.4911 14.352L19.4502 14.3541L17.9704 14.3539L17.9685 14.3711C17.9323 14.5955 17.7644 14.7656 17.5263 14.786L17.4778 14.7881C17.364 14.7881 17.2504 14.7563 17.1222 14.6967L17.0811 14.6765L17.0265 14.6754C16.0551 14.6588 15.3112 14.7167 14.8026 14.8445L14.728 14.8642C13.9996 15.0666 13.352 15.3443 12.7839 15.6669C12.425 15.8707 11.9618 15.9812 11.3864 16.0072L11.2614 16.0114L8.85145 16.0106L8.45887 16.0029L8.316 16.0027L8.24297 16.0047L8.18444 16.0085C8.16704 16.0101 8.15159 16.0121 8.13762 16.0143L8.09806 16.0224L8.09958 16.0257L8.10096 16.0418L8.09933 16.1383L8.09369 16.2481L8.07784 16.4702C8.07459 16.5159 8.0721 16.5577 8.07037 16.5959L8.06746 16.7002C8.06704 16.763 8.06966 16.8129 8.07534 16.8527L8.08046 16.8816L8.21289 16.8936L8.39005 16.907L8.58432 16.9192L8.90768 16.9352L9.26915 16.9484L9.68398 16.9591L12.9953 16.959L13.001 17.759L12.3027 17.7675L11.4417 17.7732L10.9528 17.7735L10.3747 17.7703L10.0159 17.7659L9.64942 17.7591L8.22115 17.759C8.0311 17.7589 7.86453 17.7208 7.72613 17.648L7.71598 17.6419C7.54584 17.6186 7.40972 17.592 7.30651 17.562L7.27332 17.5519C6.53289 17.3151 5.40632 16.7792 4.78378 16.3893L4.69837 16.3346C4.25189 16.0422 3.84397 16.0203 3.73753 16.2257C3.54805 16.5915 3.55967 16.8435 3.73493 17.1706C3.74192 17.1836 3.76193 17.2005 3.79342 17.2205L3.84908 17.253C3.85973 17.2588 3.87104 17.2647 3.88301 17.2709L3.96235 17.3098L4.05604 17.3526L4.16293 17.3988L4.34548 17.4736L4.48032 17.5265L4.6994 17.6094L5.01688 17.7244L5.35489 17.8414L5.70423 17.9573L5.96813 18.0414L6.1428 18.0954L6.48394 18.1964L6.72807 18.2645C6.89646 18.3101 7.08667 18.3802 7.32633 18.4826L7.6312 18.6179L8.42483 18.9849L8.55257 19.043L8.79124 19.149L9.01197 19.2431C9.11874 19.2875 9.22079 19.3282 9.32111 19.3663C9.6161 19.4784 9.88172 19.562 10.1241 19.6168C11.5077 19.9295 12.4962 19.953 13.6418 19.6226C14.1643 19.472 14.7711 19.255 15.4613 18.9717L15.7858 18.8362C15.8409 18.8129 15.8965 18.7891 15.9525 18.765L16.2948 18.6154L16.6489 18.4564L17.0951 18.2506L17.1755 18.2506L17.1758 17.3595H17.9758L17.9755 19.1322L20.5655 19.1324C20.7726 19.1324 20.9429 19.2898 20.9634 19.4915L20.9655 19.5324C20.9655 19.7395 20.8081 19.9098 20.6064 19.9303L20.5655 19.9324H17.1758L17.1755 19.0947L17.1633 19.1008C16.7024 19.3129 16.2679 19.5036 15.8597 19.6727L15.5163 19.8125C15.4601 19.8349 15.4045 19.8569 15.3494 19.8784L15.0252 20.0024C14.6546 20.1409 14.3101 20.258 13.9917 20.3536L13.8635 20.3913C12.5719 20.7638 11.4524 20.7372 9.94778 20.3971C9.66506 20.3332 9.3646 20.2387 9.03687 20.1141C8.85769 20.046 8.6754 19.9711 8.47511 19.8839L8.22517 19.7729L7.18946 19.2959L7.02093 19.2221L6.87124 19.1598C6.82431 19.1409 6.78025 19.1238 6.73879 19.1085L6.62196 19.0676C6.58544 19.0557 6.55125 19.0454 6.51914 19.0368L6.29834 18.9761L5.9688 18.8819L5.75134 18.8173L5.53658 18.7514L5.32529 18.6843L5.11824 18.6162L4.9162 18.5473L4.71997 18.4776L4.5303 18.4075C4.49927 18.3957 4.46856 18.384 4.43817 18.3722L4.2598 18.3016L4.08995 18.2307C4.06239 18.2189 4.03522 18.2071 4.00845 18.1953L3.85281 18.1246L3.70761 18.054C3.35832 17.8782 3.11421 17.706 3.02978 17.5484C2.735 16.9983 2.71059 16.4689 3.02718 15.8578C3.40957 15.1196 4.30069 15.1476 5.07421 15.6257L5.13666 15.6654C5.60313 15.9709 6.51268 16.4191 7.20688 16.6811L7.2667 16.7031L7.26769 16.6467L7.27032 16.5738L7.29836 16.1429L7.30036 16.09L7.30096 16.0418C7.30096 15.6503 7.49549 15.3731 7.84304 15.2638L7.91261 15.2437C7.93549 15.2378 7.95827 15.2326 7.98155 15.2281L8.05356 15.2166L8.13232 15.2086L8.22153 15.2039L8.32489 15.202L8.4461 15.2025L8.93649 15.2113L11.252 15.2115C11.7549 15.1996 12.134 15.116 12.3888 14.9712C13.0116 14.6176 13.7191 14.3142 14.5139 14.0934C15.1083 13.9282 15.9436 13.8573 17.0287 13.8754L17.2922 13.8811L17.299 13.8851L17.3115 13.868C17.3985 13.7542 17.524 13.6641 17.6778 13.6002L17.7368 13.5774L17.8021 13.5541H19.4502Z" fill="#000638"/>
<path id="Shape" fill-rule="evenodd" clip-rule="evenodd" d="M11.9152 3.16405C11.6462 3.13476 11.3747 3.12001 11.1014 3.12001C6.99238 3.12001 3.66138 6.45101 3.66138 10.56C3.66138 12.2202 4.20711 13.7985 5.19734 15.0878C5.3319 15.263 5.58301 15.296 5.75822 15.1614C5.93342 15.0269 5.96638 14.7758 5.83182 14.6006C4.948 13.4498 4.46138 12.0424 4.46138 10.56C4.46138 6.89284 7.43421 3.92001 11.1014 3.92001C11.3457 3.92001 11.5884 3.93319 11.8286 3.95935C12.0483 3.98326 12.2457 3.8246 12.2696 3.60499C12.2935 3.38537 12.1348 3.18795 11.9152 3.16405ZM18.5415 10.56C18.5415 7.4278 16.5879 4.66366 13.7012 3.58697C13.4942 3.50977 13.2639 3.61498 13.1867 3.82197C13.1095 4.02895 13.2147 4.25933 13.4217 4.33653C15.9979 5.29742 17.7415 7.76448 17.7415 10.56C17.7415 11.3983 17.5862 12.2145 17.2876 12.978C17.2071 13.1837 17.3086 13.4157 17.5144 13.4962C17.7201 13.5767 17.9521 13.4752 18.0326 13.2694C18.3675 12.4134 18.5415 11.4984 18.5415 10.56Z" fill="#000638"/>
<path id="Oval" fill-rule="evenodd" clip-rule="evenodd" d="M10.7014 6.88001C10.7014 6.21727 11.2386 5.68001 11.9014 5.68001C12.5641 5.68001 13.1014 6.21727 13.1014 6.88001C13.1014 7.54275 12.5641 8.08001 11.9014 8.08001C11.2386 8.08001 10.7014 7.54275 10.7014 6.88001ZM12.3014 6.88001C12.3014 6.65909 12.1223 6.48001 11.9014 6.48001C11.6804 6.48001 11.5014 6.65909 11.5014 6.88001C11.5014 7.10092 11.6804 7.28001 11.9014 7.28001C12.1223 7.28001 12.3014 7.10092 12.3014 6.88001Z" fill="#000638"/>
<path id="Shape_2" fill-rule="evenodd" clip-rule="evenodd" d="M10.5575 8.78896C10.7713 8.73353 10.8997 8.51523 10.8443 8.30138C10.7889 8.08754 10.5706 7.95912 10.3567 8.01456C9.06158 8.3503 8.14136 9.52339 8.14136 10.88C8.14136 11.4282 8.29098 11.9554 8.5696 12.4143C8.68425 12.6031 8.93027 12.6633 9.11911 12.5486C9.30794 12.434 9.36808 12.1879 9.25343 11.9991C9.05027 11.6645 8.94136 11.2807 8.94136 10.88C8.94136 9.89009 9.61309 9.03377 10.5575 8.78896ZM13.9659 11.6284C14.0216 11.4146 13.8935 11.1961 13.6797 11.1404C13.4659 11.0847 13.2475 11.2128 13.1917 11.4266C12.9459 12.3697 12.0903 13.04 11.1014 13.04C10.7149 13.04 10.344 12.9387 10.0177 12.749C9.82669 12.6379 9.58185 12.7027 9.47083 12.8937C9.3598 13.0847 9.42462 13.3295 9.6156 13.4406C10.0633 13.7008 10.5727 13.84 11.1014 13.84C12.4566 13.84 13.6288 12.9217 13.9659 11.6284Z" fill="#000638"/>
<path id="Path 40" d="M10.192 9.24551L11.8652 7.72108L12.0906 10.0794L13.7525 10.0796L14.7014 11.2551V12.0756C14.7014 12.2965 14.5223 12.4756 14.3014 12.4756C14.0942 12.4756 13.9239 12.3182 13.9034 12.1165L13.9014 12.0756L13.9012 11.5376L13.37 10.8794L11.3635 10.8796L11.2209 9.3901L10.7307 9.83688C10.5783 9.97574 10.3478 9.97474 10.1968 9.84122L10.1657 9.81058C10.0268 9.65816 10.0278 9.42762 10.1613 9.27659L10.192 9.24551Z" fill="#000638"/>
<ellipse id="Oval_2" cx="18.7814" cy="18.24" rx="0.319999" ry="0.32" fill="#000638"/>
</g>
</g>
</svg>
