<svg width="26" height="25" viewBox="0 0 26 25" fill="none" xmlns="http://www.w3.org/2000/svg">
<g id="marche/feuille">
<circle id="Ellipse 12" cx="19.25" cy="6.25" r="6.25" fill="#FFDDDD"/>
<g id="Group 11">
<path id="Shape" fill-rule="evenodd" clip-rule="evenodd" d="M13.4831 2.65722C13.6619 2.51245 13.6896 2.25008 13.5448 2.07121C13.4 1.89233 13.1377 1.86469 12.9588 2.00946C8.86992 5.31876 6.80426 8.70415 6.80426 12.1667C6.80426 13.0025 6.92508 13.823 7.16648 14.6269C7.23266 14.8473 7.46498 14.9723 7.68538 14.9062C7.90577 14.84 8.03079 14.6077 7.9646 14.3873C7.74652 13.661 7.63759 12.9213 7.63759 12.1667C7.63759 8.99283 9.57193 5.82266 13.4831 2.65722ZM8.87975 16.1335L8.80719 16.0292C8.6781 15.8387 8.41902 15.7889 8.22852 15.918C8.03802 16.0471 7.98824 16.3062 8.11733 16.4967C8.13162 16.5178 8.14638 16.5392 8.16161 16.5611L8.2585 16.6964L8.36651 16.8405C8.38544 16.8652 8.40483 16.8903 8.42469 16.9158L8.54939 17.073L8.68523 17.239L8.83221 17.4138C8.85764 17.4436 8.88353 17.4739 8.90989 17.5045L9.07361 17.6925L9.24851 17.8893L9.43458 18.0949L9.63185 18.3094L9.84031 18.5328L10.06 18.765L10.4105 19.1301L10.7863 19.5152L11.0509 19.7831L11.4322 20.1651L11.9641 20.6914L12.5325 21.2468L12.9317 21.6332C13.0973 21.793 13.3611 21.7882 13.5209 21.6226C13.6806 21.457 13.6759 21.1932 13.5102 21.0335L12.8211 20.3644L12.1827 19.736L11.8242 19.3786L11.4841 19.0358L11.0591 18.6017L10.859 18.3946L10.574 18.0961L10.3076 17.8125L10.0596 17.5437L9.90451 17.3728L9.75767 17.2085L9.55285 16.9745L9.36657 16.7554L9.25268 16.6177L9.14706 16.4866L9.04969 16.3622L8.96058 16.2445L8.87975 16.1335Z" fill="#000638"/>
<path id="Shape_2" fill-rule="evenodd" clip-rule="evenodd" d="M19.1796 12.6667C19.1796 9.17792 17.4457 5.8509 14.0082 2.69532C13.8387 2.53971 13.5751 2.55098 13.4195 2.7205C13.2639 2.89002 13.2751 3.1536 13.4447 3.30922C16.7224 6.31812 18.3462 9.43404 18.3462 12.6667C18.3462 13.2722 18.2894 13.8526 18.1759 14.4083C18.1299 14.6338 18.2754 14.8539 18.5009 14.8999C18.7263 14.946 18.9464 14.8005 18.9924 14.575C19.1173 13.9635 19.1796 13.3273 19.1796 12.6667ZM18.3054 16.5232C18.419 16.323 18.3488 16.0687 18.1487 15.9551C17.9485 15.8416 17.6942 15.9118 17.5807 16.1119C17.5721 16.1269 17.5632 16.1422 17.5539 16.1578L17.4935 16.2545C17.4719 16.2878 17.4487 16.3221 17.424 16.3576L17.3452 16.4672L17.2572 16.5832L17.1601 16.7056L17.0538 16.8344L16.9384 16.9696L16.8138 17.1111L16.6801 17.259L16.5373 17.4132L16.3854 17.5737L16.2244 17.7404L16.1405 17.8262L15.8752 18.0928L15.6871 18.2783L15.3878 18.5681L15.0683 18.8719L14.7285 19.1895L14.3684 19.5209L14.1172 19.7495L13.7235 20.1037L13.4499 20.3474C13.2778 20.5001 13.262 20.7635 13.4147 20.9356C13.5675 21.1078 13.8308 21.1235 14.0029 20.9708L14.2851 20.7195L14.8216 20.2357L15.3211 19.7768L15.5571 19.5566L15.8938 19.2379L16.1068 19.0331L16.3106 18.8344L16.5991 18.5478L16.8671 18.2748L16.9519 18.1869L17.1146 18.0155L17.2681 17.8501L17.4126 17.6907L17.548 17.5373L17.6743 17.3899L17.7916 17.2484L17.8998 17.1128L17.9989 16.9832L18.0891 16.8594C18.1462 16.7788 18.1972 16.7022 18.2423 16.6294L18.3054 16.5232Z" fill="#000638"/>
<path id="Path 25" d="M13.3946 7.72728C13.6104 7.72728 13.7878 7.89124 13.8091 8.10134L13.8113 8.14395V22.8538C13.8113 23.084 13.6248 23.2705 13.3946 23.2705C13.1789 23.2705 13.0015 23.1066 12.9801 22.8964L12.978 22.8538V8.14395C12.978 7.91383 13.1645 7.72728 13.3946 7.72728Z" fill="#000638"/>
<path id="Path 26" d="M15.321 9.38884C15.4745 9.21735 15.7379 9.20271 15.9094 9.35615C16.0695 9.49936 16.0929 9.73837 15.9705 9.90903L15.9421 9.9445L13.7053 12.4445C13.5518 12.616 13.2884 12.6306 13.1169 12.4772C12.9569 12.334 12.9334 12.095 13.0558 11.9243L13.0842 11.8888L15.321 9.38884Z" fill="#000638"/>
<path id="Path 27" d="M10.4238 11.5309C10.5797 11.3831 10.8198 11.3795 10.9798 11.5155L11.0128 11.5468L13.6971 14.3801C13.8554 14.5472 13.8483 14.8109 13.6812 14.9692C13.5253 15.1169 13.2852 15.1205 13.1252 14.9845L13.0922 14.9532L10.4079 12.1199C10.2496 11.9529 10.2568 11.6891 10.4238 11.5309Z" fill="#000638"/>
<path id="Path 28" d="M15.7843 13.3719C15.9471 13.2093 16.2109 13.2094 16.3736 13.3722C16.5254 13.5241 16.5354 13.764 16.4037 13.9276L16.3733 13.9614L13.5154 16.8168C13.3526 16.9794 13.0888 16.9793 12.9262 16.8165C12.7744 16.6646 12.7643 16.4247 12.896 16.2611L12.9264 16.2273L15.7843 13.3719Z" fill="#000638"/>
<path id="Path 29" d="M10.4127 15.7084C10.563 15.555 10.8028 15.5424 10.9678 15.6723L11.0019 15.7024L13.6862 18.3319C13.8506 18.4929 13.8533 18.7567 13.6923 18.9211C13.542 19.0746 13.3022 19.0872 13.1372 18.9572L13.1031 18.9272L10.4188 16.2977C10.2544 16.1366 10.2517 15.8728 10.4127 15.7084Z" fill="#000638"/>
<path id="Oval" fill-rule="evenodd" clip-rule="evenodd" d="M3.9165 7.5C3.9165 6.80964 4.47615 6.25 5.1665 6.25C5.85686 6.25 6.4165 6.80964 6.4165 7.5C6.4165 8.19036 5.85686 8.75 5.1665 8.75C4.47615 8.75 3.9165 8.19036 3.9165 7.5ZM5.58317 7.5C5.58317 7.26988 5.39662 7.08333 5.1665 7.08333C4.93638 7.08333 4.74984 7.26988 4.74984 7.5C4.74984 7.73012 4.93638 7.91667 5.1665 7.91667C5.39662 7.91667 5.58317 7.73012 5.58317 7.5Z" fill="#000638"/>
<path id="Oval_2" fill-rule="evenodd" clip-rule="evenodd" d="M5.58319 19.5C5.58319 18.8096 6.14284 18.25 6.83319 18.25C7.52355 18.25 8.08319 18.8096 8.08319 19.5C8.08319 20.1904 7.52355 20.75 6.83319 20.75C6.14284 20.75 5.58319 20.1904 5.58319 19.5ZM7.24986 19.5C7.24986 19.2699 7.06331 19.0833 6.83319 19.0833C6.60307 19.0833 6.41652 19.2699 6.41652 19.5C6.41652 19.7301 6.60307 19.9167 6.83319 19.9167C7.06331 19.9167 7.24986 19.7301 7.24986 19.5Z" fill="#000638"/>
<path id="Oval_3" fill-rule="evenodd" clip-rule="evenodd" d="M18.5832 6.16667C18.5832 5.47632 19.1428 4.91667 19.8332 4.91667C20.5235 4.91667 21.0832 5.47632 21.0832 6.16667C21.0832 6.85703 20.5235 7.41667 19.8332 7.41667C19.1428 7.41667 18.5832 6.85703 18.5832 6.16667ZM20.2499 6.16667C20.2499 5.93655 20.0633 5.75 19.8332 5.75C19.6031 5.75 19.4165 5.93655 19.4165 6.16667C19.4165 6.39679 19.6031 6.58334 19.8332 6.58334C20.0633 6.58334 20.2499 6.39679 20.2499 6.16667Z" fill="#000638"/>
</g>
</g>
</svg>
