<svg width="24" height="24" viewBox="0 0 24 24" fill="none" xmlns="http://www.w3.org/2000/svg">
<g id="marche/recyclage">
<g id="Group 17">
<path id="Shape" fill-rule="evenodd" clip-rule="evenodd" d="M12.4095 6.98582C12.5821 6.84805 12.6105 6.59637 12.4727 6.42368C12.3349 6.25098 12.0832 6.22268 11.9105 6.36045C9.69081 8.13133 8.56 9.95815 8.56 11.8427C8.56 12.3003 8.62713 12.7498 8.76115 13.1897C8.82553 13.401 9.04903 13.5201 9.26036 13.4558C9.47169 13.3914 9.59081 13.1679 9.52643 12.9566C9.4154 12.5921 9.36 12.2212 9.36 11.8427C9.36 10.2384 10.3625 8.61884 12.4095 6.98582ZM9.95338 13.8385L9.92424 13.799C9.79493 13.6199 9.5449 13.5795 9.36579 13.7088C9.18668 13.8382 9.14632 14.0882 9.27564 14.2673C9.2862 14.2819 9.2972 14.2969 9.30864 14.3121L9.38254 14.4076C9.39574 14.4241 9.40937 14.441 9.42345 14.4582L9.51319 14.5652L9.61351 14.6799L9.72444 14.8024L9.84601 14.9327L9.97822 15.0708L10.1211 15.2168L10.2747 15.3707L10.5252 15.6164L10.7057 15.7901L10.8969 15.9719L11.204 16.2596L11.5355 16.5655L11.8915 16.8897C12.0553 17.0379 12.3082 17.0254 12.4565 16.8616C12.6047 16.6978 12.5922 16.4449 12.4284 16.2966L12.3107 16.1899L11.8665 15.7828L11.5611 15.4983L11.1911 15.1471L10.9416 14.9048L10.7887 14.7535L10.5794 14.5417L10.3943 14.3484L10.2844 14.2298L10.1854 14.1195L10.0972 14.0175L10.0198 13.9238L9.95338 13.8385Z" fill="#000638"/>
<ellipse id="Ellipse 8" cx="16.5598" cy="6" rx="6" ry="6" fill="#FFDDDD"/>
<path id="Shape_2" fill-rule="evenodd" clip-rule="evenodd" d="M15.44 11.8382C15.44 10.0169 14.4172 8.29629 12.4108 6.68151C12.2387 6.543 11.9869 6.57023 11.8484 6.74233C11.7099 6.91443 11.7371 7.16623 11.9092 7.30474C13.7428 8.7804 14.64 10.2898 14.64 11.8382C14.64 12.1254 14.6093 12.4 14.5482 12.6624C14.4981 12.8776 14.6319 13.0926 14.8471 13.1427C15.0622 13.1928 15.2773 13.059 15.3274 12.8438C15.4025 12.5211 15.44 12.1857 15.44 11.8382ZM15.0526 13.9352C15.1753 13.7515 15.1258 13.5031 14.9421 13.3805C14.7584 13.2578 14.51 13.3073 14.3873 13.491C14.3595 13.5326 14.324 13.579 14.2808 13.6301L14.2103 13.7103L14.1283 13.7975L14.0349 13.8917L13.93 13.9927L13.8139 14.1007L13.6864 14.2154L13.5476 14.3368L13.3977 14.465L13.2365 14.5998L13.0642 14.7411L12.8808 14.889L12.585 15.1229L12.2644 15.3712L11.9192 15.6337C11.7428 15.7667 11.7076 16.0175 11.8406 16.1939C11.9736 16.3703 12.2244 16.4055 12.4008 16.2725L12.6466 16.0862L12.8807 15.9065L13.1032 15.7335L13.3142 15.567L13.5137 15.4071L13.7914 15.1793L14.0435 14.9658L14.1973 14.8314L14.3399 14.7032L14.4711 14.5812L14.5912 14.4653L14.7 14.3555L14.7978 14.2518L14.8844 14.154C14.952 14.0749 15.008 14.0021 15.0526 13.9352Z" fill="#000638"/>
<path id="Path 25" d="M12.24 9.15312C12.4471 9.15312 12.6174 9.31052 12.6379 9.51222L12.64 9.55312V17.2331C12.64 17.454 12.4609 17.6331 12.24 17.6331C12.0329 17.6331 11.8625 17.4757 11.8421 17.274L11.84 17.2331V9.55312C11.84 9.33221 12.0191 9.15312 12.24 9.15312Z" fill="#000638"/>
<path id="Path 26" d="M13.1572 10.2303C13.3134 10.0741 13.5666 10.0741 13.7229 10.2303C13.8686 10.3761 13.8784 10.6064 13.752 10.7635L13.7229 10.796L12.4429 12.076C12.2866 12.2322 12.0334 12.2322 11.8772 12.076C11.7314 11.9302 11.7217 11.6998 11.848 11.5428L11.8772 11.5103L13.1572 10.2303Z" fill="#000638"/>
<path id="Path 27" d="M10.6301 11.1608C10.7911 11.032 11.0211 11.0477 11.1633 11.1907L11.1923 11.2232L12.4723 12.8232C12.6103 12.9957 12.5823 13.2475 12.4098 13.3855C12.2488 13.5143 12.0188 13.4985 11.8767 13.3556L11.8476 13.323L10.5676 11.723C10.4296 11.5505 10.4576 11.2988 10.6301 11.1608Z" fill="#000638"/>
<path id="Path 28" d="M13.1276 12.1832C13.2656 12.0107 13.5173 11.9828 13.6898 12.1208C13.8508 12.2496 13.8859 12.4774 13.7777 12.6475L13.7523 12.683L12.4723 14.283C12.3343 14.4555 12.0826 14.4835 11.9101 14.3455C11.7491 14.2167 11.714 13.9888 11.8222 13.8187L11.8476 13.7832L13.1276 12.1832Z" fill="#000638"/>
<path id="Path 29" d="M10.5972 13.4303C10.743 13.2845 10.9733 13.2748 11.1304 13.4011L11.1629 13.4303L12.4429 14.7103C12.5991 14.8665 12.5991 15.1198 12.4429 15.276C12.2971 15.4218 12.0667 15.4315 11.9096 15.3051L11.8772 15.276L10.5972 13.996C10.441 13.8398 10.441 13.5865 10.5972 13.4303Z" fill="#000638"/>
<path id="Shape_3" fill-rule="evenodd" clip-rule="evenodd" d="M12.4682 3.40572C12.3127 3.39734 12.1566 3.39313 12 3.39313C7.27245 3.39313 3.44 7.22557 3.44 11.9531C3.44 15.5634 5.69573 18.7482 9.02574 19.9822L9.30373 19.232L9.1835 19.1863C6.23085 18.0363 4.24 15.1824 4.24 11.9531C4.24 7.6674 7.71427 4.19313 12 4.19313C12.2133 4.19313 12.4255 4.20172 12.6363 4.21882L12.701 3.42144L12.4682 3.40572ZM20.5601 11.9531C20.5601 8.36321 18.3296 5.19256 15.0269 3.94379L14.744 4.69209L14.8649 4.73893C17.7923 5.90189 19.7601 8.74257 19.7601 11.9531C19.7601 16.2389 16.2858 19.7131 12.0001 19.7131C11.8905 19.7131 11.7812 19.7109 11.6722 19.7063L11.639 20.5056L11.8193 20.5113L12.0001 20.5131C16.7276 20.5131 20.5601 16.6807 20.5601 11.9531Z" fill="#000638"/>
<path id="Path 42" d="M11.2576 1.61802C11.4132 1.4828 11.6437 1.48926 11.7915 1.62632L11.8219 1.65768L13.7094 3.83062L11.4259 5.8432C11.2601 5.98927 11.0074 5.97333 10.8613 5.8076C10.725 5.65292 10.7298 5.42242 10.8658 5.27362L10.8969 5.24304L12.5842 3.75552L11.2179 2.18231C11.0827 2.02665 11.0891 1.79619 11.2262 1.64837L11.2576 1.61802Z" fill="#000638"/>
<path id="Path 43" d="M12.9518 18.1802C13.1235 18.0412 13.3754 18.0677 13.5144 18.2394C13.6441 18.3997 13.6297 18.6298 13.4876 18.7727L13.4552 18.802L11.7772 20.1603L13.2874 21.8577C13.4244 22.0118 13.4207 22.2423 13.2854 22.3917L13.2544 22.4224C13.1003 22.5595 12.8698 22.5558 12.7204 22.4205L12.6897 22.3895L10.6225 20.0659L12.9518 18.1802Z" fill="#000638"/>
</g>
</g>
</svg>
