<svg width="24" height="24" viewBox="0 0 24 24" fill="none" xmlns="http://www.w3.org/2000/svg">
<g id="marche/ouvrier">
<g id="Group 15">
<ellipse id="Ellipse 11" cx="14.6402" cy="7.92" rx="6" ry="6" fill="#FFDDDD"/>
<path id="Shape" fill-rule="evenodd" clip-rule="evenodd" d="M11.4379 4.11911C11.4174 3.91741 11.247 3.76001 11.0399 3.76001C10.819 3.76001 10.6399 3.9391 10.6399 4.16001V11.52L10.642 11.5609C10.6625 11.7626 10.8328 11.92 11.0399 11.92C11.2608 11.92 11.4399 11.7409 11.4399 11.52V4.16001L11.4379 4.11911ZM13.0379 4.11911C13.0174 3.91741 12.847 3.76001 12.6399 3.76001C12.419 3.76001 12.2399 3.9391 12.2399 4.16001V11.52L12.242 11.5609C12.2625 11.7626 12.4328 11.92 12.6399 11.92C12.8608 11.92 13.0399 11.7409 13.0399 11.52V4.16001L13.0379 4.11911Z" fill="#000638"/>
<path id="Path 44" d="M11.7572 2.8C12.4418 2.8 13.0209 3.30976 13.0554 3.98155L13.057 4.045L13.057 4.15072L14.2797 3.29325L14.6912 3.48789L14.9671 3.62141L15.1341 3.70451L15.288 3.78335L15.4292 3.85834L15.558 3.9299L15.6748 3.99843C15.6932 4.00962 15.7112 4.02071 15.7287 4.03169L15.8281 4.09646C16.1406 4.3088 16.2672 4.48787 16.2672 4.70219C16.2672 4.9231 16.0881 5.10219 15.8672 5.10219C15.7166 5.10219 15.5854 5.01894 15.5172 4.89594L15.497 4.85344L15.458 4.82202L15.3954 4.77718L15.3166 4.7255L15.2115 4.66134L15.0773 4.58437L14.9236 4.50071L14.7505 4.41045C14.7201 4.39485 14.6888 4.37899 14.6568 4.36285L14.3575 4.21536L12.257 5.68937V4.045C12.257 3.80102 12.0369 3.6 11.7572 3.6C11.4778 3.6 11.1726 3.83247 11.1412 4.01507L11.1386 4.045V5.74718L9.2151 4.22368L9.1546 4.25407C7.81346 4.9261 6.94157 5.59709 6.53732 6.24623L6.49717 6.3133C6.44537 6.40348 6.39224 6.50272 6.3378 6.61098L6.25516 6.78014C6.22728 6.83879 6.19908 6.89969 6.17056 6.96283L6.08402 7.15903C6.05486 7.22668 6.02537 7.29658 5.99556 7.36873L5.90517 7.59189L5.81288 7.82851C5.79734 7.86907 5.78172 7.91018 5.76603 7.95186L5.6709 8.20863L5.5739 8.47881L5.47504 8.76238L5.37433 9.05933L5.21982 9.52979L5.11453 9.86009L4.95322 10.3805L4.81269 10.845H3.8386C3.67697 10.845 3.61369 10.9012 3.60209 11.1459L3.6007 11.1869L3.60526 11.1992C3.67091 11.3729 3.73589 11.5053 3.79661 11.5945L3.82236 11.63L3.8464 11.6613C3.85715 11.676 3.85743 11.6798 3.84773 11.6808L14.3192 11.6811C14.5401 11.6811 14.7192 11.8602 14.7192 12.0811C14.7192 12.2882 14.5618 12.4585 14.3601 12.479L14.3192 12.4811H3.8386C3.39335 12.4811 3.09537 12.119 2.85309 11.472L2.82309 11.3896L2.80041 11.3256L2.8001 11.2578C2.79683 10.5382 3.14135 10.0765 3.77231 10.0466L3.8386 10.045L4.21894 10.0448L4.35456 9.60991L4.46288 9.27031L4.56946 8.94412C4.58708 8.89087 4.60463 8.83817 4.62211 8.78604L4.72613 8.47991L4.82845 8.18714L4.92909 7.9077L5.02805 7.64158L5.12535 7.38877L5.22101 7.14923L5.31503 6.92297C5.33057 6.88636 5.34603 6.85031 5.36143 6.8148L5.45303 6.6084C5.48329 6.54181 5.51328 6.47741 5.54301 6.41522L5.63141 6.23524C5.67521 6.14855 5.71842 6.06681 5.76104 5.98999L5.80347 5.91483C6.29606 5.0573 7.34141 4.25044 8.93755 3.46882L9.09374 3.39326L9.31892 3.28561L10.3383 4.0928L10.3386 4.045C10.3386 3.39344 11.012 2.83483 11.6933 2.80157L11.7572 2.8Z" fill="#000638"/>
<path id="Path 45" d="M16.8045 11.6811H19.6545L19.7663 11.68C19.7831 11.6796 19.799 11.6791 19.8141 11.6784L19.895 11.6731C20.0501 11.6578 20.0803 11.6176 20.0906 11.5255L20.0948 11.4659L20.0956 11.3903L20.0952 11.3384L20.095 11.1696L20.0921 11.0542L20.0901 11.0207C20.086 10.9612 20.0791 10.9129 20.0708 10.8772L20.0616 10.8448L18.4406 10.845L18.4598 10.2925L18.4647 10.0266C18.4723 9.20683 18.4045 8.59825 18.2682 8.21044C18.1037 7.74229 17.8379 7.25121 17.4694 6.73823C17.3405 6.55882 17.3814 6.30889 17.5608 6.17999C17.7402 6.05109 17.9902 6.09204 18.1191 6.27145C18.5299 6.84326 18.8317 7.40084 19.023 7.94519C19.184 8.40318 19.2628 9.03932 19.2653 9.86156L19.2642 10.0448L20.0843 10.045C20.6071 10.045 20.8343 10.3998 20.8834 10.9068L20.8882 10.966L20.8936 11.0753L20.8951 11.204L20.8951 11.4697L20.8925 11.5336C20.8918 11.5442 20.8911 11.5549 20.8902 11.5661C20.8463 12.1238 20.4753 12.4575 19.7352 12.4799L19.6545 12.4811L17.732 12.481L17.6867 12.7468C17.6044 13.2145 17.5064 13.7117 17.3929 14.2174C17.0652 15.6763 16.6772 16.9115 16.2204 17.7689C15.0953 19.8803 13.441 21.2537 11.7573 21.2537C10.1228 21.2537 8.32432 19.7973 7.1162 17.7868C6.39526 16.587 5.96314 14.6971 5.80233 12.1059C5.78864 11.8854 5.95629 11.6955 6.17678 11.6819C6.39727 11.6682 6.58711 11.8358 6.60079 12.0563C6.75436 14.5309 7.16057 16.3074 7.80192 17.3748C8.88053 19.1697 10.4661 20.4537 11.7573 20.4537C13.0885 20.4537 14.5138 19.2704 15.5143 17.3927C15.9292 16.614 16.2992 15.4363 16.6123 14.0422C16.7008 13.6479 16.7797 13.2586 16.8488 12.8852L16.9208 12.481L16.8045 12.4811V11.6811Z" fill="#000638"/>
<path id="Path 46" d="M10.4492 18.0586C10.6296 17.931 10.8792 17.9739 11.0067 18.1542C11.1816 18.4016 11.4179 18.5186 11.7573 18.5186C11.9756 18.5186 12.1769 18.446 12.3579 18.3219C12.4681 18.2464 12.5431 18.173 12.5739 18.1347C12.7122 17.9625 12.964 17.935 13.1362 18.0733C13.3085 18.2116 13.3359 18.4634 13.1976 18.6356C13.1213 18.7307 12.9919 18.8573 12.8101 18.9818C12.5047 19.1912 12.1515 19.3186 11.7573 19.3186C11.1634 19.3186 10.6815 19.08 10.3535 18.6161C10.226 18.4357 10.2688 18.1861 10.4492 18.0586Z" fill="#000638"/>
<path id="Path 47" d="M9.40668 13.309C10.0674 13.0877 10.6416 13.0877 11.1135 13.3336C11.3094 13.4356 11.3855 13.6772 11.2835 13.8731C11.1882 14.056 10.9714 14.1345 10.7836 14.0611L10.7439 14.0431C10.4879 13.9097 10.1322 13.9097 9.66079 14.0676C9.17122 14.2316 8.83863 14.4549 8.6496 14.7299C8.52446 14.912 8.27543 14.9581 8.09338 14.833C7.91132 14.7079 7.86518 14.4588 7.99032 14.2768C8.28761 13.8443 8.7642 13.5243 9.40668 13.309Z" fill="#000638"/>
<path id="Path 48" d="M12.3492 13.292C13.0026 13.2028 13.5789 13.2402 14.0761 13.4101C14.7602 13.6438 15.2944 13.9842 15.4709 14.315C15.575 14.5099 15.5013 14.7522 15.3064 14.8562C15.1115 14.9603 14.8692 14.8866 14.7652 14.6917C14.7392 14.6431 14.6479 14.5673 14.5089 14.4827L14.4093 14.4252C14.2499 14.3377 14.0467 14.2455 13.8174 14.1671C13.4474 14.0407 12.9947 14.0113 12.4574 14.0846C12.2385 14.1145 12.0369 13.9613 12.007 13.7424C11.9771 13.5236 12.1303 13.3219 12.3492 13.292Z" fill="#000638"/>
</g>
</g>
</svg>
