<svg width="25" height="25" viewBox="0 0 25 25" fill="none" xmlns="http://www.w3.org/2000/svg">
<circle cx="17.5" cy="7.5" r="6.25" fill="#006ADC"/>
<path fill-rule="evenodd" clip-rule="evenodd" d="M4.04286 6.41926C4.04286 5.08246 5.05526 4 6.30556 4C6.75029 4 7.13786 4.12856 7.48703 4.34634C7.51816 4.36575 7.54681 4.38937 7.57229 4.41661L8.15435 5.03894C8.17389 5.05983 8.19144 5.08273 8.20677 5.1073C8.4502 5.49772 8.56825 5.94869 8.56825 6.41926C8.56825 7.75606 7.55585 8.83852 6.30556 8.83852C5.05526 8.83852 4.04286 7.75606 4.04286 6.41926ZM6.30556 4.89706C5.51863 4.89706 4.88187 5.57789 4.88187 6.41926C4.88187 7.26063 5.51863 7.94146 6.30556 7.94146C7.09248 7.94146 7.72924 7.26063 7.72924 6.41926C7.72924 6.12711 7.6606 5.8641 7.52961 5.63961L7.01942 5.09412C6.80012 4.96617 6.57029 4.89706 6.30556 4.89706ZM4.61429 9.4913C4.25962 9.30169 3.83901 9.58275 3.83901 9.99769V12.7463C3.83901 12.9217 3.86029 13.0618 3.9021 13.1661C3.90519 13.1738 3.90808 13.1816 3.91076 13.1895L4.10478 13.7599C4.12149 13.8091 4.13004 13.8609 4.13004 13.9132V19.5142C4.13004 19.8295 4.37173 20.077 4.65638 20.077C4.95128 20.077 5.18273 19.8186 5.18273 19.5142V16.5841C5.18273 15.9215 5.68583 15.3836 6.30556 15.3836C6.92528 15.3836 7.42838 15.9215 7.42838 16.5841V19.5402C7.42838 19.8555 7.67008 20.1029 7.95473 20.1029C8.24963 20.1029 8.48107 19.8445 8.48107 19.5402V14.1466C8.48107 14.0859 8.49261 14.0257 8.51499 13.9699L8.66271 13.6014C8.73678 13.4232 8.7721 13.2517 8.7721 13.0575C8.7721 12.8098 8.95992 12.609 9.19161 12.609C9.42329 12.609 9.61111 12.8098 9.61111 13.0575C9.61111 13.3808 9.5498 13.6752 9.43063 13.9629L9.32008 14.2387V19.5402C9.32008 20.3249 8.72694 21 7.95473 21C7.22077 21 6.58938 20.3658 6.58938 19.5402V16.5841C6.58938 16.4169 6.46191 16.2806 6.30556 16.2806C6.1492 16.2806 6.02173 16.4169 6.02173 16.5841V19.5142C6.02173 20.299 5.42859 20.9741 4.65638 20.9741C3.92243 20.9741 3.29103 20.3399 3.29103 19.5142V13.9922L3.12592 13.5068C3.02634 13.2518 3 12.982 3 12.7463V9.99769C3 8.90865 4.08305 8.20435 4.98951 8.68894L6.30556 9.3925L7.62161 8.68894C8.52806 8.20435 9.61111 8.90865 9.61111 9.99769V10.4904C9.61111 10.7381 9.42329 10.9389 9.19161 10.9389C8.95992 10.9389 8.7721 10.7381 8.7721 10.4904V9.99769C8.7721 9.58275 8.3515 9.30169 7.99682 9.4913L6.49316 10.2951C6.37506 10.3583 6.23605 10.3583 6.11795 10.2951L4.61429 9.4913Z" fill="#000638"/>
<path fill-rule="evenodd" clip-rule="evenodd" d="M9.13889 11.5556C9.39969 11.5556 9.61111 11.716 9.61111 11.9139V12.1417C9.61111 12.3396 9.39969 12.5 9.13889 12.5C8.87809 12.5 8.66667 12.3396 8.66667 12.1417V11.9139C8.66667 11.716 8.87809 11.5556 9.13889 11.5556Z" fill="#000638"/>
<path fill-rule="evenodd" clip-rule="evenodd" d="M11.0278 4C11.2886 4 11.5 4.20298 11.5 4.45337V20.5466C11.5 20.797 11.2886 21 11.0278 21C10.767 21 10.5556 20.797 10.5556 20.5466V4.45337C10.5556 4.20298 10.767 4 11.0278 4Z" fill="#000638"/>
<path fill-rule="evenodd" clip-rule="evenodd" d="M14.7515 7.23771C14.7515 7.01438 14.9625 6.83333 15.2229 6.83333H19.5286C19.7018 6.83333 19.8611 6.91484 19.9434 7.04561C20.0257 7.17638 20.0178 7.33533 19.9227 7.45958L18.9492 8.73215L19.9208 9.98242C20.0173 10.1065 20.0263 10.2661 19.9442 10.3975C19.8622 10.529 19.7025 10.6111 19.5286 10.6111H13.8603C13.5999 10.6111 13.3889 10.4301 13.3889 10.2067V8.73391C13.3889 8.51058 13.5999 8.32953 13.8603 8.32953H14.7515V7.23771ZM15.6942 7.64209V8.73391C15.6942 8.95724 15.4832 9.13829 15.2229 9.13829H14.3316V9.80235H18.6478L17.9918 8.95822C17.887 8.82328 17.8862 8.64764 17.99 8.51205L18.6555 7.64209H15.6942Z" fill="#000638"/>
<path fill-rule="evenodd" clip-rule="evenodd" d="M10.5556 5.43771C10.5556 5.16529 10.7959 4.94444 11.0924 4.94444H15.6854C15.9819 4.94444 16.2222 5.16529 16.2222 5.43771V9.1734C16.2222 9.44583 15.9819 9.66667 15.6854 9.66667H11.0924C10.7959 9.66667 10.5556 9.44583 10.5556 9.1734V5.43771ZM11.6292 5.93097V8.68014H15.1486V5.93097H11.6292Z" fill="#000638"/>
<path fill-rule="evenodd" clip-rule="evenodd" d="M13.3889 9.057C13.3889 8.87211 13.6483 8.72222 13.9682 8.72222H15.6429C15.8652 8.72222 16.0679 8.79572 16.1645 8.91139C16.2612 9.02706 16.2349 9.1645 16.0967 9.26511L14.422 10.4844C14.2688 10.596 14.0102 10.6393 13.7775 10.5924C13.5448 10.5456 13.3889 10.4187 13.3889 10.2763V9.057Z" fill="#000638"/>
</svg>
