<svg width="25" height="25" viewBox="0 0 25 25" fill="none" xmlns="http://www.w3.org/2000/svg">
<g id="marche/local">
<g id="Group 16">
<circle id="Ellipse 9" cx="16.25" cy="7.25" r="6.25" fill="#FFDDDD"/>
<path id="Path 39 Copy" d="M20.2604 13.1188C20.4906 13.1188 20.6771 13.3054 20.6771 13.5355C20.6771 13.7512 20.5131 13.9287 20.303 13.95L20.2604 13.9522L18.7189 13.952L18.717 13.9698C18.6793 14.2036 18.5044 14.3808 18.2564 14.4021L18.2058 14.4042C18.0873 14.4042 17.9689 14.3712 17.8354 14.309L17.7926 14.288L17.7357 14.2869C16.7238 14.2696 15.9489 14.3299 15.4191 14.463L15.3415 14.4835C14.5827 14.6943 13.9082 14.9836 13.3164 15.3197C12.9425 15.532 12.46 15.6471 11.8607 15.6741L11.7304 15.6786L9.22005 15.6777L8.81112 15.6696L8.66229 15.6695L8.58622 15.6716L8.52526 15.6756C8.50713 15.6772 8.49103 15.6792 8.47648 15.6816L8.43527 15.69L8.43686 15.6934L8.4383 15.7101L8.43659 15.8107L8.43072 15.9251L8.41421 16.1564C8.41083 16.2041 8.40823 16.2476 8.40643 16.2874L8.4034 16.396C8.40296 16.4614 8.40569 16.5134 8.41161 16.5548L8.41694 16.585L8.55489 16.5975L8.73943 16.6114L8.9418 16.6241L9.27863 16.6408L9.65516 16.6546L10.0873 16.6657L13.5365 16.6656L13.5425 17.4989L12.8151 17.5078L11.9182 17.5137L11.4089 17.5141L10.8068 17.5107L10.433 17.5062L10.0513 17.499L8.56349 17.499C8.36552 17.4988 8.19201 17.4592 8.04785 17.3833L8.03727 17.377C7.86005 17.3527 7.71826 17.325 7.61074 17.2938L7.57617 17.2833C6.80489 17.0366 5.63138 16.4783 4.98289 16.0722L4.89393 16.0152C4.42885 15.7107 4.00393 15.6878 3.89306 15.9018C3.69568 16.2828 3.70778 16.5453 3.89035 16.886C3.89763 16.8996 3.91847 16.9171 3.95127 16.938L4.00925 16.9718C4.02034 16.9779 4.03213 16.9841 4.0446 16.9905L4.12724 17.0311L4.22484 17.0756L4.33618 17.1237L4.52634 17.2016L4.66679 17.2567L4.89501 17.3431L5.22571 17.4629L5.57781 17.5848L5.94171 17.7055L6.2166 17.7931L6.39854 17.8493L6.75389 17.9546L7.0082 18.0255C7.18361 18.073 7.38175 18.1461 7.63139 18.2527L7.94896 18.3936L8.77566 18.7759L8.90872 18.8364L9.15734 18.9468L9.38727 19.0448C9.49848 19.0911 9.60478 19.1335 9.70928 19.1732C10.0166 19.29 10.2933 19.3771 10.5458 19.4342C11.987 19.7599 13.0167 19.7844 14.21 19.4402C14.7543 19.2833 15.3863 19.0572 16.1053 18.7622L16.4434 18.6211C16.5007 18.5967 16.5586 18.572 16.617 18.5468L16.9736 18.391L17.3424 18.2254L17.8072 18.0111L17.8909 18.011L17.8912 17.0828H18.7246L18.7243 18.9293L21.4222 18.9295C21.6379 18.9295 21.8153 19.0935 21.8367 19.3036L21.8388 19.3462C21.8388 19.5619 21.6749 19.7394 21.4648 19.7607L21.4222 19.7629H17.8912L17.8909 18.8903L17.8783 18.8967C17.3981 19.1176 16.9455 19.3162 16.5203 19.4924L16.1626 19.638C16.1041 19.6614 16.0461 19.6842 15.9887 19.7067L15.6511 19.8358C15.265 19.9801 14.9061 20.102 14.5745 20.2016L14.441 20.2409C13.0955 20.6289 11.9293 20.6012 10.3621 20.247C10.0676 20.1804 9.75459 20.0819 9.4132 19.9522C9.22655 19.8812 9.03667 19.8032 8.82804 19.7124L8.56769 19.5968L7.48881 19.0999L7.31327 19.023L7.15734 18.9581C7.10845 18.9384 7.06255 18.9206 7.01937 18.9046L6.89767 18.8621C6.85963 18.8497 6.82402 18.839 6.79057 18.8299L6.56057 18.7667L6.2173 18.6687L5.99078 18.6014L5.76707 18.5327L5.54697 18.4628L5.33129 18.3919L5.12084 18.3201L4.91643 18.2475L4.71885 18.1744C4.68654 18.1622 4.65455 18.15 4.62289 18.1377L4.43709 18.0641L4.26016 17.9903C4.23145 17.978 4.20315 17.9657 4.17527 17.9534L4.01314 17.8797L3.86189 17.8063C3.49804 17.6231 3.24376 17.4438 3.15581 17.2796C2.84875 16.7065 2.82332 16.1551 3.15311 15.5185C3.55144 14.7496 4.47969 14.7788 5.28543 15.2767L5.35048 15.3181C5.83639 15.6363 6.78383 16.1032 7.50696 16.3761L7.56927 16.399L7.5703 16.3403L7.57304 16.2644L7.60225 15.8155L7.60434 15.7604L7.60497 15.7101C7.60497 15.3024 7.8076 15.0137 8.16963 14.8997L8.2421 14.8789C8.26593 14.8727 8.28966 14.8673 8.31391 14.8626L8.38892 14.8506L8.47096 14.8423L8.56389 14.8374L8.67156 14.8354L8.79781 14.8359L9.30864 14.8451L11.7206 14.8453C12.2444 14.8329 12.6394 14.7458 12.9048 14.595C13.5535 14.2267 14.2905 13.9106 15.1184 13.6806C15.7376 13.5085 16.6077 13.4347 17.738 13.4535L18.0125 13.4595L18.0196 13.4637L18.0326 13.4458C18.1233 13.3272 18.254 13.2335 18.4142 13.1668L18.4757 13.1431L18.5437 13.1188H20.2604Z" fill="#000638"/>
<path id="Oval Copy 6" fill-rule="evenodd" clip-rule="evenodd" d="M19.0637 18C19.0637 17.7239 19.2876 17.5 19.5637 17.5C19.8399 17.5 20.0637 17.7239 20.0637 18C20.0637 18.2761 19.8399 18.5 19.5637 18.5C19.2876 18.5 19.0637 18.2761 19.0637 18ZM19.7304 18C19.7304 17.908 19.6558 17.8333 19.5637 17.8333C19.4717 17.8333 19.3971 17.908 19.3971 18C19.3971 18.092 19.4717 18.1667 19.5637 18.1667C19.6558 18.1667 19.7304 18.092 19.7304 18Z" fill="#000638"/>
<path id="Path" d="M10.7304 4.25C11.0918 4.25 11.447 4.29908 11.7886 4.39475L11.9342 4.43859L11.6783 5.23166C11.3749 5.13377 11.0563 5.08333 10.7304 5.08333C9.02751 5.08333 7.64705 6.46379 7.64705 8.16667C7.64705 8.83628 8.14621 9.91869 8.9753 11.1772L9.14547 11.4311C9.17454 11.4738 9.20398 11.5167 9.23376 11.5597C9.60585 12.0976 10.0112 12.6304 10.3792 13.0757L10.5043 13.2252L10.6192 13.359L10.6482 13.392L10.7449 13.2865L10.8713 13.1444L10.9382 13.0679C11.3264 12.621 11.7527 12.0886 12.144 11.5515L12.2342 11.4267L12.4083 11.1802L12.5737 10.9382C12.6273 10.8583 12.6794 10.7792 12.73 10.701L12.8771 10.469C13.4701 9.51372 13.8137 8.70412 13.8137 8.16667C13.8137 7.26941 13.4286 6.43593 12.771 5.85517L12.694 5.7893L13.2251 5.14712C14.119 5.8864 14.6471 6.98382 14.6471 8.16667C14.6471 9.07972 14.0341 10.324 13.0136 11.7689L12.8176 12.0422L12.6896 12.2165L12.4977 12.4727L12.307 12.721L12.119 12.9595L11.9351 13.1863L11.8154 13.3301L11.6413 13.5331L11.5294 13.6592L11.4213 13.7774L11.3175 13.8869L11.2183 13.9873C11.1861 14.0192 11.1547 14.0494 11.1242 14.078L11.0356 14.1584L10.9528 14.228C10.82 14.3347 10.7134 14.3939 10.6415 14.3939C10.5665 14.3939 10.4588 14.3326 10.3262 14.222L10.2437 14.1498C10.2295 14.1368 10.215 14.1233 10.2003 14.1094L10.1096 14.0205L10.0139 13.9212L9.91347 13.812L9.80882 13.6936L9.70029 13.5665L9.53106 13.3607L9.41449 13.2143L9.29538 13.0612L9.11276 12.8202L8.92655 12.5674L8.67488 12.2152L8.54845 12.0339C7.47053 10.4758 6.81372 9.13166 6.81372 8.16667C6.81372 6.00355 8.56727 4.25 10.7304 4.25Z" fill="#000638"/>
<path id="Oval" fill-rule="evenodd" clip-rule="evenodd" d="M8.81372 8.33333C8.81372 7.18274 9.74646 6.25 10.8971 6.25C12.0476 6.25 12.9804 7.18274 12.9804 8.33333C12.9804 9.48393 12.0476 10.4167 10.8971 10.4167C9.74646 10.4167 8.81372 9.48393 8.81372 8.33333ZM12.1471 8.33333C12.1471 7.64298 11.5874 7.08333 10.8971 7.08333C10.2067 7.08333 9.64705 7.64298 9.64705 8.33333C9.64705 9.02369 10.2067 9.58333 10.8971 9.58333C11.5874 9.58333 12.1471 9.02369 12.1471 8.33333Z" fill="#000638"/>
</g>
</g>
</svg>
