<svg width="24" height="25" viewBox="0 0 24 25" fill="none" xmlns="http://www.w3.org/2000/svg">
<ellipse cx="17.1" cy="7.8" rx="6" ry="6" fill="#FFDDDD"/>
<path d="M17.76 8.16C18.2016 8.16 18.56 8.5184 18.56 8.96V20.16C18.56 20.6016 18.2016 20.96 17.76 20.96H6.124L2.56 23.76V8.96C2.56 8.5184 2.9184 8.16 3.36 8.16H17.76ZM16.96 9.76H4.16V20.468L5.5704 19.36H16.96V9.76ZM9.372 11.6896L9.7296 12.24C8.3952 12.9624 8.4184 14.1216 8.4184 14.3712C8.5424 14.3552 8.6728 14.352 8.8024 14.364C9.524 14.4312 10.0928 15.024 10.0928 15.76C10.0928 16.5328 9.4656 17.16 8.6928 17.16C8.2632 17.16 7.8528 16.964 7.5936 16.688C7.1816 16.2512 6.96 15.76 6.96 14.964C6.96 13.564 7.9424 12.3096 9.372 11.6896ZM13.372 11.6896L13.7296 12.24C12.3952 12.9624 12.4184 14.1216 12.4184 14.3712C12.5424 14.3552 12.6728 14.352 12.8024 14.364C13.524 14.4312 14.0928 15.024 14.0928 15.76C14.0928 16.5328 13.4656 17.16 12.6928 17.16C12.2632 17.16 11.8528 16.964 11.5936 16.688C11.1816 16.2512 10.96 15.76 10.96 14.964C10.96 13.564 11.9424 12.3096 13.372 11.6896Z" fill="#000638"/>
</svg>
