<svg width="25" height="24" viewBox="0 0 25 24" fill="none" xmlns="http://www.w3.org/2000/svg">
<ellipse cx="18.3" cy="7.5" rx="6" ry="6" fill="#FFDDDD"/>
<g clip-path="url(#clip0_218:143)">
<path fill-rule="evenodd" clip-rule="evenodd" d="M7.20002 6.45H1.95002V9.6H7.20002V6.45ZM1.95002 5.4C1.67155 5.4 1.40448 5.51063 1.20756 5.70754C1.01065 5.90445 0.900024 6.17152 0.900024 6.45L0.900024 9.6C0.900024 9.87848 1.01065 10.1456 1.20756 10.3425C1.40448 10.5394 1.67155 10.65 1.95002 10.65H7.20002C7.4785 10.65 7.74557 10.5394 7.94249 10.3425C8.1394 10.1456 8.25002 9.87848 8.25002 9.6V6.45C8.25002 6.17152 8.1394 5.90445 7.94249 5.70754C7.74557 5.51063 7.4785 5.4 7.20002 5.4H1.95002ZM16.65 18H11.4V21.15H16.65V18ZM11.4 16.95C11.1215 16.95 10.8545 17.0606 10.6576 17.2575C10.4606 17.4545 10.35 17.7215 10.35 18V21.15C10.35 21.4285 10.4606 21.6956 10.6576 21.8925C10.8545 22.0894 11.1215 22.2 11.4 22.2H16.65C16.9285 22.2 17.1956 22.0894 17.3925 21.8925C17.5894 21.6956 17.7 21.4285 17.7 21.15V18C17.7 17.7215 17.5894 17.4545 17.3925 17.2575C17.1956 17.0606 16.9285 16.95 16.65 16.95H11.4ZM7.20002 13.8H1.95002V21.15H7.20002V13.8ZM1.95002 12.75C1.67155 12.75 1.40448 12.8606 1.20756 13.0575C1.01065 13.2545 0.900024 13.5215 0.900024 13.8L0.900024 21.15C0.900024 21.4285 1.01065 21.6956 1.20756 21.8925C1.40448 22.0894 1.67155 22.2 1.95002 22.2H7.20002C7.4785 22.2 7.74557 22.0894 7.94249 21.8925C8.1394 21.6956 8.25002 21.4285 8.25002 21.15V13.8C8.25002 13.5215 8.1394 13.2545 7.94249 13.0575C7.74557 12.8606 7.4785 12.75 7.20002 12.75H1.95002ZM16.65 6.45H11.4V13.8H16.65V6.45ZM11.4 5.4C11.1215 5.4 10.8545 5.51063 10.6576 5.70754C10.4606 5.90445 10.35 6.17152 10.35 6.45V13.8C10.35 14.0785 10.4606 14.3456 10.6576 14.5425C10.8545 14.7394 11.1215 14.85 11.4 14.85H16.65C16.9285 14.85 17.1956 14.7394 17.3925 14.5425C17.5894 14.3456 17.7 14.0785 17.7 13.8V6.45C17.7 6.17152 17.5894 5.90445 17.3925 5.70754C17.1956 5.51063 16.9285 5.4 16.65 5.4H11.4Z" fill="#000638"/>
</g>
<defs>
<clipPath id="clip0_218:143">
<rect width="16.8" height="16.8" fill="white" transform="translate(0.900024 5.4)"/>
</clipPath>
</defs>
</svg>
