<svg xmlns="http://www.w3.org/2000/svg" width="25" height="22">
  <path fill="#000638" d="M24.543 3.6a9.617 9.617 0 01-2.827.795 5.038 5.038 0 002.165-2.793c-.964.587-2.023 1-3.129 1.224a4.854 4.854 0 00-3.593-1.594c-2.718 0-4.922 2.26-4.922 5.05 0 .395.042.78.127 1.15-4.093-.212-7.72-2.22-10.15-5.278a5.14 5.14 0 00-.666 2.54c0 1.752.869 3.297 2.19 4.203a4.834 4.834 0 01-2.231-.63v.062c0 2.447 1.697 4.489 3.951 4.95-.422.12-.858.18-1.297.179-.317 0-.627-.03-.927-.09.627 2.005 2.444 3.466 4.6 3.505a9.723 9.723 0 01-7.29 2.093 13.71 13.71 0 007.547 2.266c9.058 0 14.01-7.692 14.01-14.365 0-.22-.005-.439-.013-.654.968-.718 1.8-1.603 2.455-2.613"/>
</svg>
