<svg xmlns="http://www.w3.org/2000/svg" preserveAspectRatio="xMinYMin meet" viewBox="0 0 298 81">
  <g fill="none" transform="translate(-1 -1)">
    <path fill="#000638" d="M84.6176353 64.0762824C84.7964034 64.2522305 84.8943894 64.4943135 84.8883353 64.7450706L84.8883353 79.9520412C84.8994467 80.2130664 84.801363 80.46693 84.6176353 80.6526765 84.425947 80.837255 84.1669261 80.9351073 83.9010765 80.9233765 83.6393999 80.9385436 83.3839429 80.8398443 83.2004412 80.6526765 83.0208397 80.4653059 82.9283688 80.2110108 82.9456647 79.9520412L82.9456647 78.6622353C82.6053632 79.3822082 82.0486507 79.9778906 81.3533118 80.3660529 80.6322045 80.7798067 79.8118909 80.9890142 78.9807059 80.9711471 78.022113 80.9938218 77.078881 80.7274975 76.2737059 80.2068176 75.4930369 79.6582607 74.8809146 78.9027583 74.5061941 78.0252941 74.0563521 77.0248694 73.8334035 75.9373154 73.8533294 74.8405882 73.8291094 73.7434691 74.0522501 72.6549779 74.5061941 71.6558824 74.8961286 70.7949778 75.526501 70.0650729 76.3214765 69.5539765 77.1330474 69.0493416 78.0729426 68.7894882 79.0284765 68.8055706 79.8596615 68.7877035 80.6799751 68.996911 81.4010824 69.4106647 82.0964212 69.798827 82.6531338 70.3945094 82.9934353 71.1144824L82.9934353 64.7450706C82.9787003 64.4912215 83.0711243 64.2428321 83.2482118 64.0603588 83.6550115 63.7082877 84.2586062 63.7082877 84.6654059 64.0603588L84.6176353 64.0762824zM82.0221 78.2004529C82.7139732 77.2232375 83.0408323 76.0341466 82.9456647 74.8405882 83.0052189 73.7053065 82.6797968 72.5831613 82.0221 71.6558824 81.3809457 70.8835125 80.413167 70.4586341 79.4106412 70.5093882 78.3971566 70.4483451 77.4153042 70.8742088 76.7673353 71.6558824 76.0865449 72.573213 75.7485098 73.6999964 75.8119235 74.8405882 75.7412363 76.0215062 76.0785454 77.1908443 76.7673353 78.1526824 77.4087853 78.9462438 78.3916464 79.3843867 79.4106412 79.3310235 80.4104555 79.3856574 81.3777493 78.9668899 82.0221 78.2004529zM97.9456294 78.3119176C98.0758178 78.4615397 98.1441418 78.6551243 98.1367118 78.8533176 98.1367118 79.2673294 97.8660118 79.6176471 97.3086882 79.9520412 96.7385356 80.2941814 96.1216877 80.5516483 95.4774824 80.7163706 94.8691917 80.8770213 94.2435183 80.9625835 93.6144294 80.9711471 92.0327583 81.0544742 90.4874067 80.4778505 89.3469235 79.3787941 88.2391904 78.1793592 87.6647015 76.58228 87.7545706 74.9520529 87.7282272 73.8513192 87.9628637 72.7599869 88.4392824 71.7673471 88.875468 70.8798152 89.5546642 70.134356 90.3978765 69.6176706 91.2572031 69.0999328 92.2451135 68.8350183 93.2481882 68.8533412 94.6157312 68.7897808 95.940573 69.3383937 96.8628294 70.3501529 97.8010589 71.469912 98.2791341 72.9041374 98.2004059 74.3628824 98.2192643 74.6114605 98.151772 74.8589323 98.0093235 75.0635176 97.8415697 75.2183634 97.6154164 75.2937478 97.3883059 75.2705235L89.7131647 75.2705235C89.8564765 78.0093706 91.1622059 79.3947176 93.6144294 79.3947176 94.1558164 79.4006424 94.6942711 79.3144896 95.2067824 79.1399412 95.6997218 78.9450606 96.1785732 78.716276 96.6399 78.4552294 96.8944241 78.278892 97.1812031 78.1544408 97.4838471 78.0889882 97.6637358 78.0889044 97.8338067 78.1710076 97.9456294 78.3119176zM90.8596588 71.3214882C90.1920991 72.0700511 89.8039245 73.0264232 89.7609353 74.0284882L96.5443588 74.0284882C96.5684959 73.0453963 96.2536319 72.0839364 95.6526412 71.3055647 95.0488327 70.6629451 94.1924212 70.3192153 93.3118824 70.3660765 92.3949595 70.3161143 91.5010967 70.6643725 90.8596588 71.3214882zM110.286365 80.4297471C109.83081 80.0297738 109.58424 79.4427015 109.617576 78.8373941L109.617576 61.3215118C109.58424 60.7162044 109.83081 60.1291321 110.286365 59.7291588 111.260306 58.988616 112.608594 58.988616 113.582535 59.7291588 114.03809 60.1291321 114.28466 60.7162044 114.251324 61.3215118L114.251324 78.8373941C114.28466 79.4427015 114.03809 80.0297738 113.582535 80.4297471 112.608594 81.1702899 111.260306 81.1702899 110.286365 80.4297471L110.286365 80.4297471zM121.878694 59.9043176C122.414101 60.635324 122.673575 61.5322025 122.611176 62.4361588 122.618089 64.5279758 121.786472 66.5353269 120.302265 68.0093941 120.086954 68.2780532 119.769787 68.4452868 119.426471 68.4711765 119.090092 68.4756865 118.764952 68.3501939 118.518829 68.1208588 118.263622 67.9155637 118.116856 67.6044201 118.120741 67.2769118 118.124178 66.9780804 118.244163 66.6924018 118.455135 66.4807353 119.080499 65.833598 119.544245 65.0479588 119.808635 64.1877471 119.167008 64.1527553 118.563087 63.8735844 118.120741 63.4074941 117.684707 62.9492846 117.449685 62.3359353 117.467876 61.7036765 117.445601 61.0019464 117.70341 60.3201827 118.184435 59.8087765 118.653982 59.3198408 119.306008 59.0486441 119.983794 59.0603706 120.710533 59.0407515 121.407129 59.3509998 121.878694 59.9043176L121.878694 59.9043176zM126.178047 62.3565412C125.698728 61.9238715 125.441121 61.2974196 125.477412 60.6527235 125.426253 59.9963708 125.685574 59.3539637 126.178047 58.9170588 126.726299 58.4895859 127.410587 58.2746856 128.104794 58.3119647 128.796398 58.2772039 129.476594 58.4982676 130.015618 58.9329824 130.501667 59.3496698 130.771311 59.965161 130.7481 60.6049529 130.778069 61.2518304 130.514832 61.8777503 130.031541 62.3087706 128.880811 63.1378053 127.328777 63.1378053 126.178047 62.3087706L126.178047 62.3565412zM126.432824 80.4297471C125.988939 80.0226649 125.749602 79.4389153 125.779959 78.8373941L125.779959 67.6909235C125.746622 67.0856161 125.993193 66.4985438 126.448747 66.0985706 126.902332 65.7419286 127.46413 65.5509173 128.0411 65.5571706 128.61911 65.5442822 129.183087 65.7360343 129.633453 66.0985706 130.089007 66.4985438 130.335578 67.0856161 130.302241 67.6909235L130.302241 78.8373941C130.335578 79.4427015 130.089007 80.0297738 129.633453 80.4297471 129.184608 80.7967911 128.62087 80.9940994 128.0411 80.9870706 127.456969 80.9911602 126.889173 80.7943992 126.432824 80.4297471L126.432824 80.4297471zM147.420035 66.9584412C148.402322 68.3488295 148.869644 70.0379447 148.741688 71.7355L148.741688 78.8214706C148.776098 79.4204595 148.54276 80.0038036 148.104747 80.4138235 147.643134 80.8273386 147.035524 81.0394292 146.416853 81.0029941 145.797682 81.0430585 145.188705 80.8304911 144.728959 80.4138235 144.302263 79.9972623 144.075932 79.4169264 144.107941 78.8214706L144.107941 71.9425059C144.167327 71.153734 143.971971 70.3667276 143.550618 69.6972882 143.10095 69.2037674 142.448779 68.9452492 141.783106 68.9966529 140.911912 68.9588739 140.066044 69.2949038 139.458271 69.9202176 138.862009 70.5937353 138.55333 71.4740411 138.5984 72.3724412L138.5984 78.7418529C138.630409 79.3373088 138.404078 79.9176447 137.977382 80.3342059 137.51577 80.7477209 136.908159 80.9598115 136.289488 80.9233765 135.666392 80.9570886 135.054845 80.7456188 134.585671 80.3342059 134.158975 79.9176447 133.932644 79.3373088 133.964653 78.7418529L133.964653 67.5476118C133.929704 66.9453144 134.169818 66.3596704 134.617518 65.9552588 135.096217 65.5621964 135.702396 65.3582483 136.321335 65.3820118 136.9064 65.3392324 137.482999 65.5410423 137.913688 65.9393353 138.316203 66.3182426 138.536579 66.8517858 138.518782 67.4043L138.518782 67.8183118C139.029884 67.0234388 139.744708 66.3800969 140.588841 65.9552588 141.479812 65.5174793 142.462549 65.2990934 143.455076 65.3183176 144.958053 65.2296096 146.418922 65.8339048 147.420035 66.9584412L147.420035 66.9584412zM155.079253 80.0953529C153.935526 79.4826744 153.003201 78.5392507 152.4041 77.3883529 151.755005 76.1180606 151.432146 74.7062355 151.464612 73.2800824 151.437457 71.8316719 151.782894 70.4005761 152.467794 69.1240412 153.113258 67.9480447 154.087039 66.9853297 155.270335 66.3533471 156.557268 65.6841222 157.992115 65.3500546 159.4423 65.3820118 160.276082 65.3853012 161.105847 65.497721 161.910447 65.7164059 162.692455 65.9206837 163.438799 66.2428466 164.123818 66.6718176 164.738368 67.013884 165.107901 67.6728837 165.079229 68.3756353 165.098967 68.8387342 164.970686 69.2960829 164.712988 69.6813647 164.491624 70.0076661 164.119939 70.1995036 163.725729 70.1909176 163.469433 70.1910035 163.215457 70.1423697 162.977324 70.0476059L162.037835 69.6335941C161.669107 69.4349929 161.285842 69.2646531 160.891341 69.1240412 160.524134 68.9905574 160.135498 68.9257847 159.744847 68.9329588 158.747642 68.8614818 157.77475 69.2624312 157.117465 70.0157588 155.927992 71.9722975 155.927992 74.4286319 157.117465 76.3851706 157.771603 77.1444046 158.744962 77.5514456 159.744847 77.4838941 160.127926 77.4938738 160.509998 77.440061 160.875418 77.3246588 161.286188 77.1735862 161.685343 76.9926356 162.069682 76.7832588L162.993247 76.3692471C163.225368 76.2729762 163.474442 76.2242444 163.725729 76.2259353 164.118095 76.2233398 164.484537 76.421579 164.697065 76.7514118 164.964727 77.1387108 165.098888 77.602685 165.079229 78.0730647 165.109324 78.7720065 164.738562 79.4270202 164.123818 79.7609588 163.420615 80.1840266 162.658636 80.5006236 161.862676 80.7004471 160.984054 80.9304472 160.079824 81.0481577 159.1716 81.0507647 157.748747 81.0824489 156.340989 80.7537894 155.079253 80.0953529zM168.009159 80.4297471C167.5595 80.0267151 167.318982 79.4400841 167.356294 78.8373941L167.356294 61.3215118C167.318982 60.7188218 167.5595 60.1321907 168.009159 59.7291588 168.461248 59.3679394 169.022837 59.1713831 169.601512 59.171765 170.180839 59.1674938 170.743691 59.3644919 171.193865 59.7291588 171.637749 60.136241 171.877086 60.7199906 171.846729 61.3215118L171.846729 78.8373941C171.877086 79.4389153 171.637749 80.0226649 171.193865 80.4297471 170.743691 80.794414 170.180839 80.9914121 169.601512 80.9871408 169.022837 80.9875227 168.461248 80.7909665 168.009159 80.4297471L168.009159 80.4297471zM189.49 66.0189529C189.913207 66.4378143 190.138902 67.016519 190.111018 67.6113059L190.111018 78.8692412C190.1532 79.4727252 189.911837 80.0614151 189.458153 80.4615941 188.986442 80.868621 188.376717 81.0794605 187.754335 81.0507647 187.170289 81.086052 186.596548 80.8852427 186.161982 80.4934412 185.761799 80.1141012 185.5467 79.5792612 185.572812 79.0284765L185.572812 78.7100059C185.131394 79.4619123 184.49261 80.0786701 183.725682 80.4934412 181.458904 81.5970135 178.748978 81.212582 176.878565 79.5221059 175.849429 78.1520998 175.356716 76.4530879 175.493218 74.7450471L175.493218 67.6113059C175.465334 67.016519 175.691028 66.4378143 176.114235 66.0189529 176.589134 65.6190831 177.198026 65.4142225 177.818053 65.4457059 178.433578 65.4118136 179.038372 65.6172151 179.505947 66.0189529 179.929154 66.4378143 180.154849 67.016519 180.126965 67.6113059L180.126965 74.8405882C180.066231 75.5496055 180.264202 76.2566418 180.684288 76.8310294 181.141033 77.2882415 181.775885 77.5212145 182.419953 77.4679706 183.248536 77.4936319 184.048443 77.1632356 184.6174 76.5603294 185.196799 75.8842397 185.498375 75.0136523 185.461347 74.1240294L185.461347 67.6113059C185.427257 67.0185987 185.647335 66.4394457 186.066441 66.0189529 186.534017 65.6172151 187.13881 65.4118136 187.754335 65.4457059 188.385147 65.405963 189.006943 65.6113269 189.49 66.0189529zM196.050494 80.7322941C195.192192 80.5555778 194.372466 80.2266087 193.630118 79.7609588 193.326896 79.5822454 193.078926 79.3232546 192.913559 79.0125529 192.757932 78.7066363 192.676129 78.368518 192.674706 78.0252941 192.657281 77.5968231 192.79909 77.1770696 193.072794 76.8469529 193.309946 76.5431752 193.674676 76.3666929 194.060053 76.3692471 194.331634 76.3717092 194.600836 76.4201654 194.856229 76.5125588 195.111006 76.6081 195.397629 76.7036412 195.684253 76.8310294 196.226105 77.0906488 196.79124 77.2985757 197.372147 77.4520471 198.037094 77.6262937 198.723142 77.70669 199.410359 77.6909 199.986865 77.7208508 200.561689 77.6058861 201.082329 77.3565059 201.442524 77.1879336 201.676714 76.8304859 201.687424 76.4329412 201.696561 76.1799644 201.604928 75.9337017 201.432647 75.7482294 201.147921 75.5195282 200.816269 75.356421 200.461312 75.2705235 199.983606 75.1272118 199.251124 74.9520529 198.216094 74.7450471 196.797825 74.5499067 195.451073 74.0024465 194.298906 73.1526941 193.484113 72.4095023 193.045768 71.3399398 193.104641 70.2386882 193.098443 69.3392927 193.395786 68.4640964 193.948588 67.7546176 194.553371 66.9842799 195.349443 66.3858534 196.2575 66.0189529 197.308803 65.5922334 198.435115 65.3810499 199.569594 65.3979353 200.44031 65.3973357 201.307422 65.5097391 202.149206 65.7323294 202.937311 65.9333915 203.689383 66.255708 204.3785 66.6877412 204.993051 67.0298075 205.362583 67.6888072 205.333912 68.3915588 205.354215 68.8350041 205.212747 69.2707275 204.935824 69.6176706 204.710341 69.9289295 204.348835 70.1126454 203.964488 70.1113 203.362601 70.0773733 202.780344 69.8851185 202.276594 69.5539765 201.8246 69.3234536 201.356244 69.1265308 200.875324 68.9648059 200.39451 68.8235843 199.895543 68.7538362 199.394435 68.7578 198.865469 68.7319323 198.340258 68.8590887 197.8817 69.1240412 197.530236 69.33147 197.322701 69.7166145 197.342748 70.1242317 197.362795 70.5318489 197.60712 70.8947708 197.977241 71.0667118 198.77358 71.3940005 199.608294 71.6187312 200.461312 71.7355 201.559039 71.92602 202.628815 72.2523017 203.646018 72.7068353 204.333647 73.0064093 204.919867 73.4986129 205.333912 74.1240294 205.70655 74.7889666 205.888388 75.5438706 205.859388 76.3055529 205.889875 77.693579 205.211819 79.0016875 204.060029 79.7768824 202.645082 80.7032763 200.971898 81.1550361 199.282971 81.0666882 198.196492 81.0737581 197.112517 80.9616227 196.050494 80.7322941zM208.916706 62.3565412C208.443047 61.9199091 208.186591 61.2962535 208.216071 60.6527235 208.17226 59.9975242 208.430322 59.3582348 208.916706 58.9170588 209.471186 58.4897654 210.160327 58.2751147 210.859376 58.3119647 211.55098 58.2772039 212.231176 58.4982676 212.7702 58.9329824 213.244705 59.3568079 213.507096 59.9690521 213.486759 60.6049529 213.516238 61.2484829 213.259782 61.8721385 212.786124 62.3087706 211.628835 63.1356235 210.073995 63.1356235 208.916706 62.3087706L208.916706 62.3565412zM209.187406 80.4297471C208.731852 80.0297738 208.485281 79.4427015 208.518618 78.8373941L208.518618 67.6909235C208.484288 67.0820929 208.737825 66.4924725 209.203329 66.0985706 209.656915 65.7419286 210.218713 65.5509173 210.795682 65.5571706 211.373272 65.5469937 211.93635 65.7384402 212.388035 66.0985706 212.83192 66.5056528 213.071257 67.0894023 213.0409 67.6909235L213.0409 78.8373941C213.071257 79.4389153 212.83192 80.0226649 212.388035 80.4297471 211.409071 81.1729226 210.054906 81.1729226 209.075941 80.4297471L209.187406 80.4297471zM219.744706 80.0794294C218.567877 79.458779 217.598993 78.5065048 216.958088 77.3405824 216.276641 76.0690908 215.936488 74.6426442 215.970829 73.2004647 215.938068 71.7533775 216.278045 70.3221854 216.958088 69.0444235 217.59458 67.879157 218.565036 66.9308828 219.744706 66.3215 222.407201 65.0685273 225.489834 65.0685273 228.152329 66.3215 229.310937 66.9430936 230.262838 67.8894596 230.891176 69.0444235 231.565694 70.323665 231.900169 71.7547762 231.862512 73.2004647 231.902472 74.6413084 231.567782 76.0678558 230.891176 77.3405824 230.245825 78.5031286 229.278089 79.4542742 228.104559 80.0794294 225.452632 81.3788178 222.348862 81.3788178 219.696935 80.0794294L219.744706 80.0794294zM227.324306 73.2482353C227.392853 72.1189987 227.084834 70.998927 226.448512 70.0635294 225.83094 69.3307275 224.905497 68.9298984 223.948518 68.9807294 221.7033 68.9807294 220.572729 70.4297706 220.572729 73.3119294 220.572729 76.1940882 221.7033 77.6272059 223.948518 77.6272059 226.193735 77.6272059 227.324306 76.0826235 227.324306 73.2482353zM248.200053 66.9584412C249.176714 68.3509048 249.638358 70.0398449 249.505782 71.7355L249.505782 78.8214706C249.537791 79.4169264 249.31146 79.9972623 248.884765 80.4138235 248.417358 80.8282676 247.804526 81.0401815 247.180947 81.0029941 246.562276 81.0394292 245.954666 80.8273386 245.493053 80.4138235 245.077372 79.9911269 244.857893 79.413551 244.887959 78.8214706L244.887959 71.9425059C244.950857 71.1512628 244.749224 70.361533 244.314712 69.6972882 243.865044 69.2037674 243.212874 68.9452492 242.5472 68.9966529 241.680766 68.9593604 240.839987 69.2956722 240.238288 69.9202176 239.630163 70.5876118 239.314738 71.4708038 239.362494 72.3724412L239.362494 78.7418529C239.39256 79.3339333 239.173081 79.9115093 238.7574 80.3342059 238.295787 80.7477209 237.688177 80.9598115 237.069506 80.9233765 236.445927 80.9605638 235.833095 80.74865 235.365688 80.3342059 234.934907 79.9192819 234.702957 79.3394056 234.728747 78.7418529L234.728747 67.5476118C234.692982 66.9418868 234.939983 66.3537907 235.397535 65.9552588 235.873992 65.5581683 236.481764 65.3536842 237.101353 65.3820118 237.685906 65.3430434 238.26104 65.5443406 238.693706 65.9393353 239.09036 66.321066 239.304786 66.8542339 239.282876 67.4043L239.282876 67.8183118C239.798063 67.0269224 240.511838 66.3845249 241.352935 65.9552588 242.245706 65.5226258 243.227193 65.3045175 244.219171 65.3183176 245.726405 65.2317732 247.191218 65.8352762 248.200053 66.9584412L248.200053 66.9584412z"/>
    <circle cx="35.494" cy="49.602" r="10.43" fill="#18A47D" opacity=".5"/>
    <circle cx="25.064" cy="45.987" r="7.898" fill="#18A47D"/>
    <path fill="#E7F6F2" d="M49.3629412,1.11463323 C47.7099506,1.11248019 46.0664864,1.36490771 44.4903412,1.86305294 C36.6574618,4.27345456 31.765669,12.0505462 32.9848803,20.1547154 C34.2040916,28.2588846 41.1675745,34.2524392 49.3629412,34.2515118 C58.3135219,33.9739994 65.4256318,26.6379612 65.4256318,17.6830794 C65.4256318,8.72819761 58.3135219,1.39215942 49.3629412,1.11463323"/>
    <path fill="#18A47D" d="M55.2068765,68.6781824 C56.4748026,72.8048309 54.1581574,77.1781513 50.0319115,78.4473868 C45.9056655,79.7166223 41.5316102,77.401365 40.2610654,73.275522 C38.9905206,69.149679 41.3043898,64.7748892 45.4298294,63.5030353 C49.5580773,62.2394975 53.9304943,64.5538876 55.2068765,68.6781824 L55.2068765,68.6781824 Z"/>
    <path fill="#5DBFA4" d="M6.89488824,57.1176956 C6.35537472,57.1202664 5.81905791,57.2007139 5.30253529,57.3565529 C2.75660779,58.1414012 1.16797896,60.6707573 1.56649378,63.3049402 C1.96500859,65.9391231 4.23073315,67.8853698 6.89488824,67.8820059 C7.43518722,67.8903659 7.97317344,67.8096679 8.48724118,67.6431529 C11.0331687,66.8583047 12.6217975,64.3289486 12.2232827,61.6947657 C11.8247679,59.0605827 9.55904332,57.1143361 6.89488824,57.1176956"/>
    <path fill="#B9E4D8" d="M56.6877647,47.4680412 C56.288855,47.4726762 55.8924336,47.5316037 55.5094235,47.6432 C53.6420884,48.2419465 52.4849496,50.1069839 52.7777769,52.0459759 C53.0706043,53.9849679 54.7268942,55.4251201 56.6877647,55.4457294 C57.08725,55.4487762 57.4847796,55.389684 57.8661059,55.2705706 C59.733441,54.6718241 60.8905799,52.8067867 60.5977525,50.8677947 C60.3049251,48.9288027 58.6486352,47.4886505 56.6877647,47.4680412"/>
    <path fill="#A3DBCB" d="M13.8375471,16.5923176 C12.9532702,16.5942477 12.0738372,16.7229452 11.2260882,16.9744824 C6.74925711,18.3278846 4.07415299,22.9052187 5.09225862,27.4699942 C6.11036426,32.0347697 10.4769927,35.0415495 15.1046371,34.3643332 C19.7322816,33.687117 23.0542199,29.5551811 22.7216132,24.8900886 C22.3890064,20.2249962 18.5144609,16.6061475 13.8375471,16.5923176"/>
    <path fill="#46B697" d="M65.5890176,10.4457209 C61.928814,10.4520016 58.9207015,13.3357049 58.760035,16.9923859 C58.5993684,20.6490668 61.3429698,23.7854878 64.9885276,24.1126533 C68.6340854,24.4398187 71.8922961,21.8420218 72.3852805,18.2151643 C72.8782648,14.5883068 70.4316718,11.2150786 66.8310529,10.5573 C66.4215328,10.4806962 66.0056335,10.4433719 65.5890176,10.4457209"/>
    <path fill="#18A47D" d="M73.5507824 51.0986059C73.1535343 50.6654016 72.9420026 50.0936944 72.9616118 49.5062529L72.9616118 32.3247647C72.9225739 31.6842941 73.1633997 31.0584034 73.621681 30.6092878 74.0799622 30.1601722 74.7105898 29.9320385 75.3501412 29.9840059 75.9964433 29.9485035 76.6291928 30.1785943 77.1017294 30.6209471 77.538237 31.0778062 77.7684391 31.6935968 77.7386706 32.3247647L77.7386706 47.7705882 85.5730471 47.7705882C87.0539353 47.7705882 87.8023412 48.4234529 87.8023412 49.7291824 87.8023412 51.0349118 87.0539353 51.6559294 85.5730471 51.6559294L75.2068294 51.6559294C74.6015086 51.7070446 74.0020334 51.5052981 73.5507824 51.0986059L73.5507824 51.0986059zM101.464729 37.9139235C102.623486 39.2736781 103.19608 41.0372672 103.057082 42.8183706L103.057082 49.7291824C103.097414 50.3197935 102.882955 50.8994126 102.467912 51.3215353 102.028904 51.7057807 101.458366 51.9054688 100.875559 51.8788588 100.297415 51.9064372 99.7344659 51.6888238 99.3251916 51.2795496 98.9159173 50.8702753 98.698304 50.3073262 98.7258824 49.7291824L98.7258824 49.5062529C98.4172035 50.266921 97.8545055 50.8971427 97.1335294 51.2896882 96.3743839 51.7272633 95.5095111 51.9476131 94.6335353 51.9266294 93.6762329 51.9357171 92.7291957 51.7288929 91.8628412 51.3215353 91.0668133 50.9354381 90.390048 50.3412052 89.9042471 49.6017941 89.4234886 48.8804893 89.1684855 48.0323266 89.1717647 47.1654941 89.1353947 46.227015 89.4473274 45.3082313 90.0475588 44.5858824 90.7899297 43.8651586 91.7341184 43.3875102 92.7545588 43.2164588 94.4326538 42.890239 96.1410571 42.7460925 97.8500882 42.7865235L98.7258824 42.7865235 98.7258824 42.2451235C98.7813198 41.5711716 98.5825032 40.9008755 98.1685588 40.3661471 97.6197463 39.9196442 96.9116327 39.7181485 96.2099647 39.8088235 94.9040224 39.9031095 93.6230652 40.2152755 92.4201647 40.7323882 92.0501358 40.9268844 91.643126 41.0408472 91.2259 41.0667824 90.814388 41.0870871 90.4179383 40.9095723 90.1590235 40.5890765 89.8797108 40.2372463 89.7381852 39.7956864 89.7609353 39.3470412 89.7364595 38.9917855 89.8317695 38.6385778 90.0316353 38.3438588 90.2614272 38.0337748 90.5616006 37.7827207 90.9074294 37.6113765 91.7298459 37.1547407 92.6151913 36.8220655 93.5348118 36.6241176 94.5336521 36.4037104 95.5533384 36.2915983 96.5762059 36.2897235 98.357884 36.151242 100.120172 36.7367578 101.464729 37.9139235zM97.8182412 47.8502059C98.4162398 47.2192939 98.7422325 46.3785759 98.7258824 45.5094471L98.7258824 44.9839706 98.2163294 44.9839706C97.0452053 44.9249974 95.87237 45.0594969 94.745 45.3820588 94.127446 45.5812652 93.7176139 46.1667396 93.7418176 46.8151765 93.7239054 47.3427181 93.9325424 47.8527196 94.3150647 48.2164471 94.7009011 48.5696507 95.2094229 48.7582037 95.7322588 48.7419235 96.5229839 48.7560115 97.2820427 48.4315283 97.8182412 47.8502059L97.8182412 47.8502059zM117.913735 50.9552941C116.774091 50.3444652 115.842637 49.4074665 115.238582 48.2642176 114.589487 46.9939253 114.266628 45.5821002 114.299094 44.1559471 114.269638 42.7123546 114.615297 41.285824 115.302276 40.0158294 115.941235 38.840396 116.909818 37.8773476 118.088894 37.2451353 119.370834 36.5778709 120.800043 36.243841 122.244935 36.2738 123.078846 36.2752315 123.908854 36.3876842 124.713082 36.6081941 125.495091 36.812472 126.241435 37.1346348 126.926453 37.5636059 127.541004 37.9056722 127.910536 38.5646719 127.881865 39.2674235 127.899411 39.7302659 127.771317 40.186951 127.515624 40.5731529 127.290627 40.8934109 126.919569 41.0789403 126.528365 41.0667824 126.273063 41.0723337 126.019048 41.0290971 125.779959 40.9393941L124.856394 40.5253824C124.484453 40.3287264 124.101676 40.1532868 123.7099 39.9999059 123.355749 39.8797574 122.985097 39.8152962 122.611176 39.8088235 121.619411 39.7424461 120.653528 40.1429342 119.999718 40.8916235 118.776705 42.8386347 118.776705 45.3140241 119.999718 47.2610353 120.650396 48.0156319 121.616742 48.4222043 122.611176 48.3597588 122.994189 48.3685751 123.37607 48.314789 123.741747 48.2005235 124.152828 48.0502089 124.552038 47.8692333 124.936012 47.6591235L125.843653 47.2451118C126.078885 47.1616523 126.326538 47.1185821 126.576135 47.1177235 126.964049 47.1173367 127.327303 47.3078962 127.547471 47.6272765 127.813042 48.0155645 127.946998 48.478829 127.929635 48.9489294 127.955934 49.6469529 127.586226 50.3001028 126.974224 50.6368235 126.271021 51.0598913 125.509042 51.3764883 124.713082 51.5763118 123.833965 51.8019603 122.929614 51.9143353 122.022006 51.9107059 120.594004 51.9430115 119.180945 51.6143932 117.913735 50.9552941L117.913735 50.9552941zM133.168476 50.9552941C131.995524 50.3366489 131.027455 49.3907073 130.381859 48.2323706 129.087406 45.6184648 129.087406 42.5501176 130.381859 39.9362118 131.023941 38.7791916 131.993335 37.8374948 133.168476 37.2292118 135.820058 35.977285 138.892672 35.977285 141.544253 37.2292118 142.716084 37.8420805 143.6843 38.7826339 144.330871 39.9362118 145.625323 42.5501176 145.625323 45.6184648 144.330871 48.2323706 143.680224 49.3868372 142.713453 50.3315108 141.544253 50.9552941 138.897855 52.2301292 135.814875 52.2301292 133.168476 50.9552941L133.168476 50.9552941zM140.716229 44.0922529C140.790949 42.9623814 140.482386 41.8403342 139.840435 40.9075471 139.229285 40.1769955 138.306962 39.7808696 137.356365 39.8406706 135.111147 39.8406706 133.9965 41.2737882 133.9965 44.1559471 133.9965 47.0381059 135.111147 48.4553 137.356365 48.4553 139.601582 48.4553 140.716229 46.9744118 140.716229 44.1081765L140.716229 44.0922529zM170.381765 37.7865353C171.370226 39.1739905 171.838177 40.8653812 171.703418 42.5635941L171.703418 49.6336412C171.740085 50.232996 171.506377 50.8172664 171.066476 51.2259941 170.615445 51.5873192 170.051923 51.7789169 169.474124 51.7673941 168.89756 51.7711227 168.336573 51.5803869 167.881771 51.2259941 167.426216 50.8260209 167.179646 50.2389486 167.212982 49.6336412L167.212982 42.5795176C167.285983 41.8514502 167.106045 41.1204514 166.703429 40.5094588 166.295249 40.0729573 165.70507 39.8545914 165.111076 39.9202882 164.333999 39.8879387 163.584251 40.2100963 163.072865 40.7960824 162.524302 41.5035117 162.252549 42.3867086 162.308535 43.2801529L162.308535 49.6495647C162.338892 50.2510859 162.099555 50.8348355 161.655671 51.2419176 161.207368 51.6081903 160.64197 51.8004257 160.063318 51.7833176 159.486348 51.789571 158.92455 51.5985596 158.470965 51.2419176 158.01541 50.8419444 157.76884 50.2548721 157.802176 49.6495647L157.802176 42.5795176C157.875177 41.8514502 157.695239 41.1204514 157.292624 40.5094588 156.884443 40.0729573 156.294265 39.8545914 155.700271 39.9202882 154.922326 39.8831903 154.170597 40.206199 153.662059 40.7960824 153.113496 41.5035117 152.841743 42.3867086 152.897729 43.2801529L152.897729 49.6495647C152.931066 50.2548721 152.684496 50.8419444 152.228941 51.2419176 151.780639 51.6081903 151.21524 51.8004257 150.636588 51.7833176 150.059619 51.789571 149.497821 51.5985596 149.044235 51.2419176 148.588681 50.8419444 148.342111 50.2548721 148.375447 49.6495647L148.375447 38.4712471C148.330609 37.8606057 148.586111 37.2664146 149.060159 36.8788941 149.51614 36.5266921 150.076349 36.3362211 150.652512 36.3374941 151.230602 36.3053349 151.799458 36.4930574 152.244865 36.8629706 152.655956 37.2492706 152.877104 37.7963229 152.849959 38.3597824L152.849959 38.6623294C153.3175 37.9089386 153.976975 37.2934283 154.760782 36.8788941 155.591459 36.46667 156.508714 36.2591955 157.435935 36.2738 158.390563 36.2453049 159.335662 36.47059 160.174782 36.9266647 160.97111 37.4249152 161.576803 38.1764236 161.894524 39.0604176 162.362001 38.2085783 163.056516 37.5030394 163.900888 37.0222059 164.799357 36.516567 165.815879 36.2583157 166.846741 36.2738 168.184957 36.2606205 169.467338 36.8093869 170.381765 37.7865353L170.381765 37.7865353zM197.451765 37.7865353C198.434598 39.1760914 198.896863 40.8673027 198.757494 42.5635941L198.757494 49.6336412C198.794161 50.232996 198.560453 50.8172664 198.120553 51.2259941 197.139613 51.9454713 195.805322 51.9454713 194.824382 51.2259941 194.358878 50.8320922 194.105341 50.2424718 194.139671 49.6336412L194.139671 42.5795176C194.21736 41.8533089 194.043081 41.1224629 193.646041 40.5094588 193.233713 40.0792394 192.646742 39.8620604 192.053688 39.9202882 191.271552 39.8853773 190.515885 40.2075606 189.999553 40.7960824 189.45099 41.5035117 189.179238 42.3867086 189.235224 43.2801529L189.235224 49.6495647C189.271891 50.2489195 189.038183 50.83319 188.598282 51.2419176 188.147251 51.6032428 187.583729 51.7948404 187.005929 51.7833176 186.429366 51.7870462 185.868379 51.5963105 185.413576 51.2419176 184.958022 50.8419444 184.711452 50.2548721 184.744788 49.6495647L184.744788 42.5795176C184.817789 41.8514502 184.637851 41.1204514 184.235235 40.5094588 183.827055 40.0729573 183.236876 39.8545914 182.642882 39.9202882 181.865805 39.8879387 181.116057 40.2100963 180.604671 40.7960824 180.056108 41.5035117 179.784355 42.3867086 179.840341 43.2801529L179.840341 49.6495647C179.870698 50.2510859 179.631361 50.8348355 179.187476 51.2419176 178.735791 51.6020481 178.172713 51.7934945 177.595124 51.7833176 177.018154 51.789571 176.456356 51.5985596 176.002771 51.2419176 175.547216 50.8419444 175.300646 50.2548721 175.333982 49.6495647L175.333982 38.4712471C175.289144 37.8606057 175.544646 37.2664146 176.018694 36.8788941 176.496106 36.5094952 177.087341 36.3180474 177.690665 36.3374941 178.268755 36.3053349 178.837611 36.4930574 179.283018 36.8629706 179.694109 37.2492706 179.915257 37.7963229 179.888112 38.3597824L179.888112 38.6623294C180.355653 37.9089386 181.015128 37.2934283 181.798935 36.8788941 182.629612 36.46667 183.546867 36.2591955 184.474088 36.2738 185.428716 36.2453049 186.373815 36.47059 187.212935 36.9266647 188.009263 37.4249152 188.614956 38.1764236 188.932676 39.0604176 189.400154 38.2085783 190.094669 37.5030394 190.939041 37.0222059 191.843329 36.516676 192.86493 36.2585296 193.900818 36.2738 195.244553 36.2561338 196.533582 36.8052716 197.451765 37.7865353zM216.066371 36.9425882C216.489577 37.3614496 216.715272 37.9401543 216.687388 38.5349412L216.687388 49.6814118C216.732079 50.2852972 216.490276 50.8750612 216.034524 51.2737647 215.557307 51.6694942 214.950077 51.8737958 214.330706 51.8470118 213.748184 51.8921674 213.172627 51.6964782 212.738353 51.3056118 212.338169 50.9262718 212.123071 50.3914318 212.149182 49.8406471L212.149182 49.5221765C211.707765 50.2740829 211.06898 50.8908407 210.302053 51.3056118 209.504207 51.7141482 208.618731 51.9218523 207.722441 51.9107059 206.144537 52.0324893 204.593676 51.4494589 203.486782 50.3183529 202.443837 48.9546741 201.944467 47.2522769 202.085512 45.5412941L202.085512 38.5349412C202.061779 37.9377407 202.293404 37.3586761 202.722453 36.9425882 203.190856 36.5423022 203.79505 36.3371042 204.410347 36.3693412 205.025872 36.3354489 205.630666 36.5408504 206.098241 36.9425882 206.510608 37.3674018 206.729518 37.9434789 206.703335 38.5349412L206.703335 45.6846059C206.644203 46.3959007 206.848182 47.1041618 207.276582 47.6750471 207.724329 48.1374152 208.354541 48.3766625 208.996324 48.3279118 209.827757 48.351563 210.628871 48.0148632 211.193771 47.4043471 211.770695 46.7340177 212.067233 45.8672138 212.021794 44.9839706L212.021794 38.6145588C211.99391 38.019772 212.219605 37.4410673 212.642812 37.0222059 213.103803 36.6199624 213.70396 36.4141944 214.314782 36.4489588 214.940628 36.3793848 215.568951 36.5564575 216.066371 36.9425882zM233.661871 37.8820765C234.642218 39.2728056 235.104231 40.9630986 234.9676 42.6591353L234.9676 49.7291824C234.999609 50.3246382 234.773278 50.9049741 234.346582 51.3215353 233.87818 51.7218213 233.273986 51.9270193 232.658688 51.8947824 232.042703 51.9320628 231.436671 51.7262404 230.970794 51.3215353 230.549932 50.9021788 230.329543 50.3222062 230.3657 49.7291824L230.3657 42.8820647C230.431173 42.0956103 230.229182 41.3100873 229.792453 40.6527706 229.353583 40.1534682 228.703013 39.8932401 228.040865 39.9521353 227.176866 39.910709 226.336454 40.2410778 225.731953 40.8597765 225.12691 41.5290177 224.811957 42.4108854 224.856159 43.312L224.856159 49.6814118C224.886225 50.2734921 224.666746 50.8510681 224.251065 51.2737647 223.783489 51.6755025 223.178696 51.880904 222.563171 51.8470118 221.943143 51.8784951 221.334252 51.6736346 220.859353 51.2737647 220.432657 50.8572035 220.206326 50.2768676 220.238335 49.6814118L220.238335 38.4712471C220.203386 37.8689497 220.4435 37.2833056 220.8912 36.8788941 221.368417 36.4831646 221.975647 36.278863 222.595018 36.3056471 223.178564 36.2739176 223.750977 36.4742623 224.187371 36.8629706 224.584025 37.2447013 224.798451 37.7778692 224.776541 38.3279353L224.776541 38.7419471C225.287643 37.9470741 226.002467 37.3037322 226.8466 36.8788941 227.732354 36.4424249 228.709621 36.2240412 229.696912 36.2419529 231.199889 36.1532448 232.660758 36.75754 233.661871 37.8820765L233.661871 37.8820765zM250.079029 37.9139235C251.237786 39.2736781 251.81038 41.0372672 251.671382 42.8183706L251.671382 49.7291824C251.703715 50.3186138 251.490414 50.895102 251.082212 51.3215353 250.643204 51.7057807 250.072666 51.9054688 249.489859 51.8788588 248.909211 51.9210874 248.338532 51.7110278 247.923829 51.3024242 247.509127 50.8938206 247.290637 50.3263152 247.324259 49.7451059L247.324259 49.5221765C247.01558 50.2828445 246.452882 50.9130662 245.731906 51.3056118 244.97276 51.7431869 244.107888 51.9635367 243.231912 51.9425529 242.274609 51.9516406 241.327572 51.7448164 240.461218 51.3374588 239.66519 50.9513617 238.988425 50.3571287 238.502624 49.6177176 238.027487 48.8946311 237.778067 48.0466027 237.786065 47.1814176 237.726497 46.2354631 238.028117 45.3021479 238.630012 44.5699588 239.370586 43.8467198 240.315609 43.3686492 241.337012 43.2005353 243.015107 42.8743155 244.72351 42.730169 246.432541 42.7706L247.228718 42.7706 247.228718 42.2292C247.284155 41.5552481 247.085338 40.884952 246.671394 40.3502235 246.145189 39.9188001 245.469835 39.7127601 244.792418 39.7769765 243.481575 39.8727453 242.195623 40.1848174 240.986694 40.7005412 240.622788 40.8960812 240.220725 41.0101801 239.808353 41.0349353 239.392775 41.0527261 238.992574 40.8761666 238.725553 40.5572294 238.452502 40.2020855 238.311736 39.7628953 238.327465 39.3151941 238.307637 38.9581007 238.4086 38.6047294 238.614088 38.3120118 238.84388 38.0019277 239.144054 37.7508737 239.489882 37.5795294 240.315865 37.1449969 241.201062 36.8338371 242.117265 36.6559647 243.136303 36.4256049 244.177604 36.3081248 245.222353 36.3056471 246.991075 36.1715286 248.739933 36.7506586 250.079029 37.9139235L250.079029 37.9139235zM246.432541 47.8502059C247.001628 47.2068383 247.298519 46.3675502 247.260565 45.5094471L247.260565 44.9839706 246.814706 44.9839706C245.643582 44.9249974 244.470747 45.0594969 243.343376 45.3820588 242.725822 45.5812652 242.31599 46.1667396 242.340194 46.8151765 242.322282 47.3427181 242.530919 47.8527196 242.913441 48.2164471 243.297447 48.572638 243.80724 48.7616624 244.330635 48.7419235 245.12687 48.7606032 245.892636 48.4357326 246.432541 47.8502059L246.432541 47.8502059zM268.948412 36.9425882C269.382747 37.3551116 269.615373 37.9366758 269.585353 38.5349412L269.585353 49.6814118C269.626122 50.2879819 269.378224 50.8782146 268.916565 51.2737647 268.444992 51.6684454 267.843069 51.8728721 267.228671 51.8470118 266.646623 51.8884448 266.072485 51.6932378 265.636318 51.3056118 265.247223 50.9199617 265.039046 50.3879527 265.063071 49.8406471L265.063071 49.5221765C264.61351 50.2732001 263.969948 50.8892597 263.200018 51.3056118 262.402171 51.7141482 261.516696 51.9218523 260.620406 51.9107059 259.042501 52.0324893 257.49164 51.4494589 256.384747 50.3183529 255.35427 48.9490173 254.861406 47.2494862 254.9994 45.5412941L254.9994 38.5349412C254.971516 37.9401543 255.197211 37.3614496 255.620418 36.9425882 256.093705 36.5398601 256.703764 36.3346065 257.324235 36.3693412 257.908443 36.3519967 258.477489 36.5568535 258.916588 36.9425882 259.339795 37.3614496 259.56549 37.9401543 259.537606 38.5349412L259.537606 45.6846059C259.481168 46.3932126 259.678727 47.0987795 260.094929 47.6750471 260.548829 48.1380829 261.184053 48.3770205 261.830594 48.3279118 262.657322 48.351135 263.453374 48.0141205 264.012118 47.4043471 264.594788 46.7364341 264.897121 45.8693671 264.856065 44.9839706L264.856065 38.6145588C264.829882 38.0230965 265.048792 37.4470195 265.461159 37.0222059 266.456525 36.2575688 267.841581 36.2575688 268.836947 37.0222059L268.948412 36.9425882zM282.817806 48.9648529C283.138739 49.3216587 283.292615 49.7982087 283.240953 50.2753242 283.189291 50.7524397 282.936975 51.1850071 282.547106 51.4648471 281.932006 51.8070566 281.220864 51.9358461 280.524818 51.8310882L279.664947 51.8310882C276.098076 51.5444647 274.314641 49.6654882 274.314641 46.2260059L274.314641 40.1272941 273.104453 40.1272941C272.536 40.1899744 271.96535 40.0301924 271.5121 39.6814353 271.152763 39.3585093 270.959465 38.8899083 270.986624 38.4075529 270.954508 37.9197495 271.148239 37.4442268 271.5121 37.1177471 271.96535 36.76899 272.536 36.609208 273.104453 36.6718882L274.314641 36.6718882 274.314641 34.2833588C274.284621 33.6850935 274.517247 33.1035292 274.951582 32.6910059 275.946949 31.9263688 277.332004 31.9263688 278.327371 32.6910059 278.739738 33.1158195 278.958647 33.6918965 278.932465 34.2833588L278.932465 36.6241176 281.082141 36.6241176C282.467488 36.6241176 283.1522 37.1973647 283.1522 38.3597824 283.183375 38.839561 282.996104 39.307739 282.642647 39.6336647 282.183783 39.971061 281.617645 40.1295795 281.050294 40.0795235L278.900618 40.0795235 278.900618 46.4489353C278.863659 46.9533545 279.017056 47.4533129 279.330553 47.8502059 279.664717 48.183584 280.1165 48.3723033 280.588512 48.3756824L281.448382 48.3756824C281.960521 48.4024372 282.446222 48.6114018 282.817806 48.9648529zM297.992929 47.7705882C298.257987 48.1350848 298.392606 48.5782065 298.375094 49.0285471 298.379703 49.3712797 298.273597 49.7063513 298.072547 49.9839588 297.852475 50.3009215 297.556968 50.5581218 297.212676 50.7323647 296.448869 51.1266086 295.642023 51.4311797 294.808224 51.6400059 293.977203 51.8640638 293.121112 51.9817763 292.260459 51.9903235 290.78846 52.0223401 289.330323 51.7001302 288.008876 51.0508353 286.826156 50.4474594 285.850355 49.5049249 285.206335 48.3438353 283.910954 45.7581561 283.910954 42.7129733 285.206335 40.1272941 285.812773 38.9811953 286.721411 38.0229953 287.833718 37.3566 288.996008 36.6907366 290.315996 36.3497398 291.655365 36.3693412 292.914807 36.3421013 294.158205 36.6557018 295.254082 37.2769824 296.27103 37.8714366 297.090617 38.7519395 297.610765 39.8088235 298.207258 41.0210658 298.502239 42.3594083 298.470635 43.7100882 298.501396 44.0783181 298.387121 44.4440007 298.152165 44.7291941 297.917902 44.9768289 297.584412 45.1055444 297.244524 45.0795118L288.693588 45.0795118C288.734414 46.0536801 289.124412 46.9806321 289.792312 47.6909706 290.502429 48.2735122 291.407679 48.5638755 292.324153 48.5030706 292.862263 48.5133662 293.398914 48.4436016 293.916506 48.2960647 294.459453 48.1342582 294.991351 47.9374561 295.508859 47.7068941L296.336882 47.3884235C296.560527 47.3009819 296.797501 47.2525098 297.037518 47.2451118 297.421327 47.2587488 297.775879 47.4537529 297.992929 47.7705882L297.992929 47.7705882zM289.633076 40.3820706C289.059172 41.0679673 288.728784 41.9247365 288.693588 42.8183706L294.58535 42.8183706C294.589921 41.9341683 294.304666 41.0728103 293.773194 40.3661471 293.254727 39.8062617 292.512603 39.5082434 291.750906 39.5540471 290.969157 39.5015814 290.201141 39.7787602 289.633076 40.3183765L289.633076 40.3820706zM291.719059 34.9362235C291.408511 34.9450222 291.108381 34.8238161 290.891035 34.6018294 290.675578 34.3931995 290.55477 34.105561 290.55662 33.8056529 290.563234 33.5188055 290.657724 33.2408956 290.827341 33.0094765L293.454724 29.4903765C293.856851 28.8563277 294.551132 28.4672912 295.301853 28.4553128 295.801666 28.4523433 296.282423 28.6469355 296.639429 28.9967471 297.004591 29.3260689 297.212927 29.7948257 297.212677 30.2865529 297.157453 30.9405953 296.79761 31.5305013 296.241341 31.8789059L292.515235 34.6018294C292.284802 34.7733324 292.006274 34.8680322 291.719059 34.8725294L291.719059 34.9362235z"/>
  </g>
</svg>
