<svg xmlns="http://www.w3.org/2000/svg" xmlns:xlink="http://www.w3.org/1999/xlink" width="103" height="107" viewBox="0 0 103 107"><defs><path id="a" d="M0 0h97.168v97.168H0z"/></defs><g fill="none" fill-rule="evenodd"><g transform="translate(.157 .332)"><mask id="b" fill="#fff"><use xlink:href="#a"/></mask><circle cx=".682" cy=".682" r="1" fill="#000638" mask="url(#b)"/><circle cx=".682" cy="7.16" r="1" fill="#000638" mask="url(#b)"/><circle cx=".682" cy="13.638" r="1" fill="#000638" mask="url(#b)"/><circle cx=".682" cy="20.115" r="1" fill="#000638" mask="url(#b)"/><circle cx=".682" cy="26.593" r="1" fill="#000638" mask="url(#b)"/><circle cx=".682" cy="33.071" r="1" fill="#000638" mask="url(#b)"/><circle cx=".682" cy="39.549" r="1" fill="#000638" mask="url(#b)"/><circle cx=".682" cy="46.027" r="1" fill="#000638" mask="url(#b)"/><circle cx=".682" cy="52.505" r="1" fill="#000638" mask="url(#b)"/><circle cx=".682" cy="58.983" r="1" fill="#000638" mask="url(#b)"/><circle cx=".682" cy="65.461" r="1" fill="#000638" mask="url(#b)"/><circle cx=".682" cy="71.938" r="1" fill="#000638" mask="url(#b)"/><circle cx=".682" cy="78.416" r="1" fill="#000638" mask="url(#b)"/><circle cx=".682" cy="84.894" r="1" fill="#000638" mask="url(#b)"/><circle cx=".682" cy="91.372" r="1" fill="#000638" mask="url(#b)"/><circle cx="7.16" cy=".682" r="1" fill="#000638" mask="url(#b)"/><circle cx="7.16" cy="7.16" r="1" fill="#000638" mask="url(#b)"/><circle cx="7.16" cy="13.638" r="1" fill="#000638" mask="url(#b)"/><circle cx="7.16" cy="20.115" r="1" fill="#000638" mask="url(#b)"/><circle cx="7.16" cy="26.593" r="1" fill="#000638" mask="url(#b)"/><circle cx="7.16" cy="33.071" r="1" fill="#000638" mask="url(#b)"/><circle cx="7.16" cy="39.549" r="1" fill="#000638" mask="url(#b)"/><circle cx="7.16" cy="46.027" r="1" fill="#000638" mask="url(#b)"/><circle cx="7.16" cy="52.505" r="1" fill="#000638" mask="url(#b)"/><circle cx="7.16" cy="58.983" r="1" fill="#000638" mask="url(#b)"/><circle cx="7.16" cy="65.461" r="1" fill="#000638" mask="url(#b)"/><circle cx="7.16" cy="71.938" r="1" fill="#000638" mask="url(#b)"/><circle cx="7.16" cy="78.416" r="1" fill="#000638" mask="url(#b)"/><circle cx="7.16" cy="84.894" r="1" fill="#000638" mask="url(#b)"/><circle cx="7.16" cy="91.372" r="1" fill="#000638" mask="url(#b)"/><circle cx="13.638" cy=".682" r="1" fill="#000638" mask="url(#b)"/><circle cx="13.638" cy="7.16" r="1" fill="#000638" mask="url(#b)"/><circle cx="13.638" cy="13.638" r="1" fill="#000638" mask="url(#b)"/><circle cx="13.638" cy="20.115" r="1" fill="#000638" mask="url(#b)"/><circle cx="13.638" cy="26.593" r="1" fill="#000638" mask="url(#b)"/><circle cx="13.638" cy="33.071" r="1" fill="#000638" mask="url(#b)"/><circle cx="13.638" cy="39.549" r="1" fill="#000638" mask="url(#b)"/><circle cx="13.638" cy="46.027" r="1" fill="#000638" mask="url(#b)"/><circle cx="13.638" cy="52.505" r="1" fill="#000638" mask="url(#b)"/><circle cx="13.638" cy="58.983" r="1" fill="#000638" mask="url(#b)"/><circle cx="13.638" cy="65.461" r="1" fill="#000638" mask="url(#b)"/><circle cx="13.638" cy="71.938" r="1" fill="#000638" mask="url(#b)"/><circle cx="13.638" cy="78.416" r="1" fill="#000638" mask="url(#b)"/><circle cx="13.638" cy="84.894" r="1" fill="#000638" mask="url(#b)"/><circle cx="13.638" cy="91.372" r="1" fill="#000638" mask="url(#b)"/><circle cx="20.115" cy=".682" r="1" fill="#000638" mask="url(#b)"/><circle cx="20.115" cy="7.16" r="1" fill="#000638" mask="url(#b)"/><circle cx="20.115" cy="13.638" r="1" fill="#000638" mask="url(#b)"/><circle cx="20.115" cy="20.115" r="1" fill="#000638" mask="url(#b)"/><circle cx="20.115" cy="26.593" r="1" fill="#000638" mask="url(#b)"/><circle cx="20.115" cy="33.071" r="1" fill="#000638" mask="url(#b)"/><circle cx="20.115" cy="39.549" r="1" fill="#000638" mask="url(#b)"/><circle cx="20.115" cy="46.027" r="1" fill="#000638" mask="url(#b)"/><circle cx="20.115" cy="52.505" r="1" fill="#000638" mask="url(#b)"/><circle cx="20.115" cy="58.983" r="1" fill="#000638" mask="url(#b)"/><circle cx="20.115" cy="65.461" r="1" fill="#000638" mask="url(#b)"/><circle cx="20.115" cy="71.938" r="1" fill="#000638" mask="url(#b)"/><circle cx="20.115" cy="78.416" r="1" fill="#000638" mask="url(#b)"/><circle cx="20.115" cy="84.894" r="1" fill="#000638" mask="url(#b)"/><circle cx="20.115" cy="91.372" r="1" fill="#000638" mask="url(#b)"/><circle cx="26.593" cy=".682" r="1" fill="#000638" mask="url(#b)"/><circle cx="26.593" cy="7.16" r="1" fill="#000638" mask="url(#b)"/><circle cx="26.593" cy="13.638" r="1" fill="#000638" mask="url(#b)"/><circle cx="26.593" cy="20.115" r="1" fill="#000638" mask="url(#b)"/><circle cx="26.593" cy="26.593" r="1" fill="#000638" mask="url(#b)"/><circle cx="26.593" cy="33.071" r="1" fill="#000638" mask="url(#b)"/><circle cx="26.593" cy="39.549" r="1" fill="#000638" mask="url(#b)"/><circle cx="26.593" cy="46.027" r="1" fill="#000638" mask="url(#b)"/><circle cx="26.593" cy="52.505" r="1" fill="#000638" mask="url(#b)"/><circle cx="26.593" cy="58.983" r="1" fill="#000638" mask="url(#b)"/><circle cx="26.593" cy="65.461" r="1" fill="#000638" mask="url(#b)"/><circle cx="26.593" cy="71.938" r="1" fill="#000638" mask="url(#b)"/><circle cx="26.593" cy="78.416" r="1" fill="#000638" mask="url(#b)"/><circle cx="26.593" cy="84.894" r="1" fill="#000638" mask="url(#b)"/><circle cx="26.593" cy="91.372" r="1" fill="#000638" mask="url(#b)"/><circle cx="33.071" cy=".682" r="1" fill="#000638" mask="url(#b)"/><circle cx="33.071" cy="7.16" r="1" fill="#000638" mask="url(#b)"/><circle cx="33.071" cy="13.638" r="1" fill="#000638" mask="url(#b)"/><circle cx="33.071" cy="20.115" r="1" fill="#000638" mask="url(#b)"/><circle cx="33.071" cy="26.593" r="1" fill="#000638" mask="url(#b)"/><circle cx="33.071" cy="33.071" r="1" fill="#000638" mask="url(#b)"/><circle cx="33.071" cy="39.549" r="1" fill="#000638" mask="url(#b)"/><circle cx="33.071" cy="46.027" r="1" fill="#000638" mask="url(#b)"/><circle cx="33.071" cy="52.505" r="1" fill="#000638" mask="url(#b)"/><circle cx="33.071" cy="58.983" r="1" fill="#000638" mask="url(#b)"/><circle cx="33.071" cy="65.461" r="1" fill="#000638" mask="url(#b)"/><circle cx="33.071" cy="71.938" r="1" fill="#000638" mask="url(#b)"/><circle cx="33.071" cy="78.416" r="1" fill="#000638" mask="url(#b)"/><circle cx="33.071" cy="84.894" r="1" fill="#000638" mask="url(#b)"/><circle cx="33.071" cy="91.372" r="1" fill="#000638" mask="url(#b)"/><circle cx="39.549" cy=".682" r="1" fill="#000638" mask="url(#b)"/><circle cx="39.549" cy="7.16" r="1" fill="#000638" mask="url(#b)"/><circle cx="39.549" cy="13.638" r="1" fill="#000638" mask="url(#b)"/><circle cx="39.549" cy="20.115" r="1" fill="#000638" mask="url(#b)"/><circle cx="39.549" cy="26.593" r="1" fill="#000638" mask="url(#b)"/><circle cx="39.549" cy="33.071" r="1" fill="#000638" mask="url(#b)"/><circle cx="39.549" cy="39.549" r="1" fill="#000638" mask="url(#b)"/><circle cx="39.549" cy="46.027" r="1" fill="#000638" mask="url(#b)"/><circle cx="39.549" cy="52.505" r="1" fill="#000638" mask="url(#b)"/><circle cx="39.549" cy="58.983" r="1" fill="#000638" mask="url(#b)"/><circle cx="39.549" cy="65.461" r="1" fill="#000638" mask="url(#b)"/><circle cx="39.549" cy="71.938" r="1" fill="#000638" mask="url(#b)"/><circle cx="39.549" cy="78.416" r="1" fill="#000638" mask="url(#b)"/><circle cx="39.549" cy="84.894" r="1" fill="#000638" mask="url(#b)"/><circle cx="39.549" cy="91.372" r="1" fill="#000638" mask="url(#b)"/><circle cx="46.027" cy=".682" r="1" fill="#000638" mask="url(#b)"/><circle cx="46.027" cy="7.16" r="1" fill="#000638" mask="url(#b)"/><circle cx="46.027" cy="13.638" r="1" fill="#000638" mask="url(#b)"/><circle cx="46.027" cy="20.115" r="1" fill="#000638" mask="url(#b)"/><circle cx="46.027" cy="26.593" r="1" fill="#000638" mask="url(#b)"/><circle cx="46.027" cy="33.071" r="1" fill="#000638" mask="url(#b)"/><circle cx="46.027" cy="39.549" r="1" fill="#000638" mask="url(#b)"/><circle cx="46.027" cy="46.027" r="1" fill="#000638" mask="url(#b)"/><circle cx="46.027" cy="52.505" r="1" fill="#000638" mask="url(#b)"/><circle cx="46.027" cy="58.983" r="1" fill="#000638" mask="url(#b)"/><circle cx="46.027" cy="65.461" r="1" fill="#000638" mask="url(#b)"/><circle cx="46.027" cy="71.938" r="1" fill="#000638" mask="url(#b)"/><circle cx="46.027" cy="78.416" r="1" fill="#000638" mask="url(#b)"/><circle cx="46.027" cy="84.894" r="1" fill="#000638" mask="url(#b)"/><circle cx="46.027" cy="91.372" r="1" fill="#000638" mask="url(#b)"/><circle cx="52.505" cy=".682" r="1" fill="#000638" mask="url(#b)"/><circle cx="52.505" cy="7.16" r="1" fill="#000638" mask="url(#b)"/><circle cx="52.505" cy="13.638" r="1" fill="#000638" mask="url(#b)"/><circle cx="52.505" cy="20.115" r="1" fill="#000638" mask="url(#b)"/><circle cx="52.505" cy="26.593" r="1" fill="#000638" mask="url(#b)"/><circle cx="52.505" cy="33.071" r="1" fill="#000638" mask="url(#b)"/><circle cx="52.505" cy="39.549" r="1" fill="#000638" mask="url(#b)"/><circle cx="52.505" cy="46.027" r="1" fill="#000638" mask="url(#b)"/><circle cx="52.505" cy="52.505" r="1" fill="#000638" mask="url(#b)"/><circle cx="52.505" cy="58.983" r="1" fill="#000638" mask="url(#b)"/><circle cx="52.505" cy="65.461" r="1" fill="#000638" mask="url(#b)"/><circle cx="52.505" cy="71.938" r="1" fill="#000638" mask="url(#b)"/><circle cx="52.505" cy="78.416" r="1" fill="#000638" mask="url(#b)"/><circle cx="52.505" cy="84.894" r="1" fill="#000638" mask="url(#b)"/><circle cx="52.505" cy="91.372" r="1" fill="#000638" mask="url(#b)"/><circle cx="58.983" cy=".682" r="1" fill="#000638" mask="url(#b)"/><circle cx="58.983" cy="7.16" r="1" fill="#000638" mask="url(#b)"/><circle cx="58.983" cy="13.638" r="1" fill="#000638" mask="url(#b)"/><circle cx="58.983" cy="20.115" r="1" fill="#000638" mask="url(#b)"/><circle cx="58.983" cy="26.593" r="1" fill="#000638" mask="url(#b)"/><circle cx="58.983" cy="33.071" r="1" fill="#000638" mask="url(#b)"/><circle cx="58.983" cy="39.549" r="1" fill="#000638" mask="url(#b)"/><circle cx="58.983" cy="46.027" r="1" fill="#000638" mask="url(#b)"/><circle cx="58.983" cy="52.505" r="1" fill="#000638" mask="url(#b)"/><circle cx="58.983" cy="58.983" r="1" fill="#000638" mask="url(#b)"/><circle cx="58.983" cy="65.461" r="1" fill="#000638" mask="url(#b)"/><circle cx="58.983" cy="71.938" r="1" fill="#000638" mask="url(#b)"/><circle cx="58.983" cy="78.416" r="1" fill="#000638" mask="url(#b)"/><circle cx="58.983" cy="84.894" r="1" fill="#000638" mask="url(#b)"/><circle cx="58.983" cy="91.372" r="1" fill="#000638" mask="url(#b)"/><circle cx="65.461" cy=".682" r="1" fill="#000638" mask="url(#b)"/><circle cx="65.461" cy="7.16" r="1" fill="#000638" mask="url(#b)"/><circle cx="65.461" cy="13.638" r="1" fill="#000638" mask="url(#b)"/><circle cx="65.461" cy="20.115" r="1" fill="#000638" mask="url(#b)"/><circle cx="65.461" cy="26.593" r="1" fill="#000638" mask="url(#b)"/><circle cx="65.461" cy="33.071" r="1" fill="#000638" mask="url(#b)"/><circle cx="65.461" cy="39.549" r="1" fill="#000638" mask="url(#b)"/><circle cx="65.461" cy="46.027" r="1" fill="#000638" mask="url(#b)"/><circle cx="65.461" cy="52.505" r="1" fill="#000638" mask="url(#b)"/><circle cx="65.461" cy="58.983" r="1" fill="#000638" mask="url(#b)"/><circle cx="65.461" cy="65.461" r="1" fill="#000638" mask="url(#b)"/><circle cx="65.461" cy="71.938" r="1" fill="#000638" mask="url(#b)"/><circle cx="65.461" cy="78.416" r="1" fill="#000638" mask="url(#b)"/><circle cx="65.461" cy="84.894" r="1" fill="#000638" mask="url(#b)"/><circle cx="65.461" cy="91.372" r="1" fill="#000638" mask="url(#b)"/><circle cx="71.938" cy=".682" r="1" fill="#000638" mask="url(#b)"/><circle cx="71.938" cy="7.16" r="1" fill="#000638" mask="url(#b)"/><circle cx="71.938" cy="13.638" r="1" fill="#000638" mask="url(#b)"/><circle cx="71.938" cy="20.115" r="1" fill="#000638" mask="url(#b)"/><circle cx="71.938" cy="26.593" r="1" fill="#000638" mask="url(#b)"/><circle cx="71.938" cy="33.071" r="1" fill="#000638" mask="url(#b)"/><circle cx="71.938" cy="39.549" r="1" fill="#000638" mask="url(#b)"/><circle cx="71.938" cy="46.027" r="1" fill="#000638" mask="url(#b)"/><circle cx="71.938" cy="52.505" r="1" fill="#000638" mask="url(#b)"/><circle cx="71.938" cy="58.983" r="1" fill="#000638" mask="url(#b)"/><circle cx="71.938" cy="65.461" r="1" fill="#000638" mask="url(#b)"/><circle cx="71.938" cy="71.938" r="1" fill="#000638" mask="url(#b)"/><circle cx="71.938" cy="78.416" r="1" fill="#000638" mask="url(#b)"/><circle cx="71.938" cy="84.894" r="1" fill="#000638" mask="url(#b)"/><circle cx="71.938" cy="91.372" r="1" fill="#000638" mask="url(#b)"/><circle cx="78.416" cy=".682" r="1" fill="#000638" mask="url(#b)"/><circle cx="78.416" cy="7.16" r="1" fill="#000638" mask="url(#b)"/><circle cx="78.416" cy="13.638" r="1" fill="#000638" mask="url(#b)"/><circle cx="78.416" cy="20.115" r="1" fill="#000638" mask="url(#b)"/><circle cx="78.416" cy="26.593" r="1" fill="#000638" mask="url(#b)"/><circle cx="78.416" cy="33.071" r="1" fill="#000638" mask="url(#b)"/><circle cx="78.416" cy="39.549" r="1" fill="#000638" mask="url(#b)"/><circle cx="78.416" cy="46.027" r="1" fill="#000638" mask="url(#b)"/><circle cx="78.416" cy="52.505" r="1" fill="#000638" mask="url(#b)"/><circle cx="78.416" cy="58.983" r="1" fill="#000638" mask="url(#b)"/><circle cx="78.416" cy="65.461" r="1" fill="#000638" mask="url(#b)"/><circle cx="78.416" cy="71.938" r="1" fill="#000638" mask="url(#b)"/><circle cx="78.416" cy="78.416" r="1" fill="#000638" mask="url(#b)"/><circle cx="78.416" cy="84.894" r="1" fill="#000638" mask="url(#b)"/><circle cx="78.416" cy="91.372" r="1" fill="#000638" mask="url(#b)"/><circle cx="84.894" cy=".682" r="1" fill="#000638" mask="url(#b)"/><circle cx="84.894" cy="7.16" r="1" fill="#000638" mask="url(#b)"/><circle cx="84.894" cy="13.638" r="1" fill="#000638" mask="url(#b)"/><circle cx="84.894" cy="20.115" r="1" fill="#000638" mask="url(#b)"/><circle cx="84.894" cy="26.593" r="1" fill="#000638" mask="url(#b)"/><circle cx="84.894" cy="33.071" r="1" fill="#000638" mask="url(#b)"/><circle cx="84.894" cy="39.549" r="1" fill="#000638" mask="url(#b)"/><circle cx="84.894" cy="46.027" r="1" fill="#000638" mask="url(#b)"/><circle cx="84.894" cy="52.505" r="1" fill="#000638" mask="url(#b)"/><circle cx="84.894" cy="58.983" r="1" fill="#000638" mask="url(#b)"/><circle cx="84.894" cy="65.461" r="1" fill="#000638" mask="url(#b)"/><circle cx="84.894" cy="71.938" r="1" fill="#000638" mask="url(#b)"/><circle cx="84.894" cy="78.416" r="1" fill="#000638" mask="url(#b)"/><circle cx="84.894" cy="84.894" r="1" fill="#000638" mask="url(#b)"/><circle cx="84.894" cy="91.372" r="1" fill="#000638" mask="url(#b)"/><circle cx="91.372" cy=".682" r="1" fill="#000638" mask="url(#b)"/><circle cx="91.372" cy="7.16" r="1" fill="#000638" mask="url(#b)"/><circle cx="91.372" cy="13.638" r="1" fill="#000638" mask="url(#b)"/><circle cx="91.372" cy="20.115" r="1" fill="#000638" mask="url(#b)"/><circle cx="91.372" cy="26.593" r="1" fill="#000638" mask="url(#b)"/><circle cx="91.372" cy="33.071" r="1" fill="#000638" mask="url(#b)"/><circle cx="91.372" cy="39.549" r="1" fill="#000638" mask="url(#b)"/><circle cx="91.372" cy="46.027" r="1" fill="#000638" mask="url(#b)"/><circle cx="91.372" cy="52.505" r="1" fill="#000638" mask="url(#b)"/><circle cx="91.372" cy="58.983" r="1" fill="#000638" mask="url(#b)"/><circle cx="91.372" cy="65.461" r="1" fill="#000638" mask="url(#b)"/><circle cx="91.372" cy="71.938" r="1" fill="#000638" mask="url(#b)"/><circle cx="91.372" cy="78.416" r="1" fill="#000638" mask="url(#b)"/><circle cx="91.372" cy="84.894" r="1" fill="#000638" mask="url(#b)"/><circle cx="91.372" cy="91.372" r="1" fill="#000638" mask="url(#b)"/></g><path d="M87.5 75.5c8.56 0 15.5 6.94 15.5 15.5 0 8.56-6.94 15.5-15.5 15.5-8.56 0-15.5-6.94-15.5-15.5 0-8.56 6.94-15.5 15.5-15.5zm0 8a7.5 7.5 0 100 15 7.5 7.5 0 000-15z" fill="#FFAD1D" fill-rule="nonzero"/></g></svg>